<svg width="550" height="569" viewBox="0 0 550 569" fill="none" xmlns="http://www.w3.org/2000/svg">
<defs>
  <!-- Colors of COLSIH skeleton (Vinotinto, Amarillo Oscuro, Azul Rey) -->
  <linearGradient id="colsihGradient" x1="0%" y1="0%" x2="100%" y2="100%">
    <stop offset="0%" stop-color="#800A15" />
    <stop offset="50%" stop-color="#D99B00" />
    <stop offset="100%" stop-color="#003C8F" />
  </linearGradient>

  <!-- Travelling neon pulse animation (Slower 5.0s duration) -->
  <style>
    @keyframes stroke-loading {
      0% {
        stroke-dashoffset: 4000;
      }
      100% {
        stroke-dashoffset: 0;
      }
    }
    .animated-stroke {
      stroke-dasharray: 450 1500;
      stroke-dashoffset: 4000;
      animation: stroke-loading 5.0s linear infinite;
    }
  </style>

  <!-- Neon glow filter for the loading pulses (stdDeviation: 3.5) -->
  <filter id="glowFilter" x="-20%" y="-20%" width="140%" height="140%">
    <feGaussianBlur stdDeviation="3.5" result="blur" />
    <feMerge>
      <feMergeNode in="blur" />
      <feMergeNode in="SourceGraphic" />
    </feMerge>
  </filter>
</defs>

<!-- Group A: Faint background skeleton outline so logo shape is clear -->
<g opacity="0.12">
  <path stroke="url(#colsihGradient)" stroke-width="2.5" stroke-linecap="round" stroke-linejoin="round" d="M242.688 0.328125C236.062 1.60714 231.085 4.30727 228.213 8.20117C226.223 10.9013 225.682 12.6067 225.654 16.1311C225.654 18.7744 225.739 19.3428 226.479 21.105C227.474 23.4641 231.142 30.3992 233.673 34.6626C235.067 37.0217 235.436 37.846 235.209 38.2155C234.782 39.0397 231.512 42.0525 229.209 43.7579C218.829 51.4604 197.33 60.0724 176.599 64.8474C155.1 69.793 126.918 71.1288 113.04 67.8602C103.002 65.5012 94.6978 59.305 89.5222 50.3235C88.2993 48.1634 86.1949 43.8147 84.9437 40.7735C84.6024 40.0061 84.318 39.7219 83.863 39.7219C83.4934 39.7219 68.1085 42.2231 49.6524 45.2643C31.1678 48.3055 12.4558 51.4035 8.0479 52.1425C3.6116 52.8531 0 53.5352 0 53.6489C0 53.9047 17.9158 71.1288 45.7848 97.6756C52.6099 104.184 52.7805 104.355 54.2024 107.055C54.9703 108.561 56.8756 111.773 58.4112 114.189C59.9753 116.605 65.4922 125.416 70.6964 133.744L80.1946 148.893L80.1661 307.69C80.1661 465.862 80.1661 466.487 80.7349 469.756C82.1852 478.084 85.3702 485.389 90.5744 492.352C91.4844 493.603 93.9869 496.36 96.1197 498.491C101.75 504.147 107.722 508.468 115.145 512.219C124.643 517.023 130.672 518.899 169.774 529.017C197.671 536.237 211.321 540.074 224.09 544.28C246.499 551.642 262.879 559.486 272.576 567.501C273.344 568.155 274.083 568.667 274.226 568.667C274.339 568.667 275.221 568.013 276.188 567.217C282.757 561.76 295.014 555.223 308.977 549.766C325.243 543.399 340.969 538.738 385.19 527.312C417.524 518.956 423.353 517.137 432.055 512.788C450.938 503.323 462.711 490.05 466.949 473.423C468.456 467.596 468.37 477.658 468.37 306.696V148.04L471.555 142.981C475.821 136.16 485.234 121.266 490.58 112.882L494.96 106.06L503.918 97.3914C508.837 92.6448 517.881 83.9474 523.966 78.0924C530.08 72.2373 537.048 65.5296 539.465 63.1705C541.882 60.8398 545.124 57.7134 546.66 56.2354C548.167 54.7574 549.39 53.5353 549.361 53.5068C549.304 53.4784 547.115 53.1089 544.442 52.6826C541.797 52.2562 523.483 49.215 503.775 45.9464C484.068 42.6778 467.318 39.9776 466.55 39.9492L465.157 39.864L463.394 44.1558C460.607 50.9488 458.076 54.8427 453.611 59.1345C444.938 67.4907 435.894 69.8498 413.713 69.4803C400.745 69.2814 391.987 68.315 379.076 65.7001C357.093 61.2378 333.831 52.2278 322.485 43.7579C320.181 42.0525 316.911 39.0397 316.484 38.2439C316.285 37.846 316.598 37.0501 317.878 34.8331C320.92 29.5465 324.731 22.2135 325.271 20.5082C327.063 15.1363 325.897 10.3329 321.83 6.3537C317.394 1.97662 310.313 -0.354032 302.72 0.0438843C295.895 0.384956 290.094 2.91456 285.885 7.40533C283.582 9.8781 282.615 11.3276 280.937 14.8521C275.761 25.6811 277.069 37.9597 285.117 53.3363C289.724 62.1473 297.09 71.4415 304.853 78.2061L306.702 79.7977L304.142 79.5988C302.749 79.4567 288.956 79.3714 273.515 79.3714H245.447L246.357 78.6608C253.694 72.9195 262.026 62.4884 267.031 52.7678C273.884 39.3808 275.619 28.4665 272.406 18.6607C269.306 9.19597 262.964 2.88615 254.433 0.754456C251.419 0.0154675 245.503 -0.211905 242.688 0.328125ZM253.637 3.65356C254.831 3.93779 256.879 4.73359 258.215 5.35889C261.485 6.95055 265.467 10.9013 267.23 14.2836C269.932 19.485 271.183 24.6579 270.927 29.6318C270.642 35.828 268.709 42.3652 264.898 50.0961C259.381 61.3515 251.817 70.6741 242.148 78.1776L240.157 79.7409L232.621 80.0536C199.15 81.5031 160.56 84.9991 133.373 89.0635C106.13 93.1279 81.1899 97.9882 59.6056 103.474L56.8187 104.184L55.3399 102.678C54.5437 101.854 48.0599 95.6291 40.9504 88.8646C26.3334 74.9659 8.92947 58.2534 7.33695 56.5765L6.25631 55.4964L18.0011 53.5352C24.4281 52.4836 41.2917 49.6982 55.4537 47.3391C69.6157 45.0085 81.4743 43.0473 81.844 43.0473C82.4127 42.9905 82.6971 43.3883 84.0052 46.259C89.4369 58.1681 97.2288 65.7001 108.149 69.5372C121.97 74.3974 152.398 73.4595 178.589 67.4055C205.719 61.1241 231.512 48.9592 238.138 39.3524L239.19 37.8459L236.801 33.8668C233.816 28.9212 230.062 21.9009 229.265 19.7692C227.986 16.3585 228.242 13.6015 230.119 10.6455C233.986 4.56307 244.679 1.37975 253.637 3.65356ZM309.716 3.48303C312.019 3.96622 315.062 5.10311 316.797 6.0979C318.788 7.26323 321.034 9.56545 322.03 11.4413C322.854 13.033 322.911 13.3456 322.911 16.0458V18.9449L321.205 22.2704C318.56 27.4433 315.46 33.0994 313.896 35.5437L312.474 37.7322L312.986 38.5281C319.84 49.1013 346.003 61.4936 374.839 67.8318C401.57 73.7153 429.866 74.2838 443.374 69.1961C447.924 67.4907 452.076 64.819 455.772 61.2378C460.294 56.8607 463.536 52.0573 465.982 46.0032C466.949 43.6442 467.347 43.0189 467.716 43.0757C468.143 43.1326 493.339 47.2823 538.271 54.7006C540.801 55.1269 542.849 55.5532 542.821 55.6385C542.764 55.7238 537.247 61.0957 530.507 67.576C523.796 74.028 512.477 84.9138 505.396 91.7068C498.315 98.5282 492.372 104.128 492.144 104.184C491.945 104.241 488.846 103.559 485.262 102.706C443.857 92.7584 400.66 86.136 351.491 82.2421C337.557 81.1336 319.84 80.082 314.835 80.082H312.133L309.488 78.064C296.094 67.8602 284.719 50.4656 281.648 35.4869C279.97 27.3864 281.079 20.2239 285.032 13.4309C286.454 11.0434 290.151 7.26323 292.397 5.92737C297.175 3.14195 303.602 2.23244 309.716 3.48303ZM291.772 82.4695C306.047 82.64 311.934 82.8105 327.746 83.6348C381.92 86.4771 437.515 94.2933 484.637 105.691L490.523 107.112L488.931 109.585C484.182 116.975 469.878 139.229 468.228 141.873C466.579 144.488 466.209 144.914 465.697 144.772C465.384 144.687 461.915 143.891 457.991 143.038C440.757 139.286 415.078 135.023 394.574 132.522C364.828 128.912 337.955 126.667 310.825 125.53C298.938 125.047 260.604 124.876 247.835 125.246C214.99 126.212 183.253 128.685 150.578 132.806C129.79 135.449 99.0488 140.707 85.0574 144.061C83.0952 144.516 81.4174 144.8 81.3036 144.687C81.0761 144.459 65.9757 120.385 60.8 112.057C58.9231 109.016 57.9278 107.169 58.1268 107.055C58.6956 106.714 75.0189 102.877 84.4602 100.859C136.587 89.6888 198.78 83.1232 259.921 82.3842C268.453 82.2989 275.875 82.2421 276.415 82.2705C276.956 82.2989 283.866 82.4126 291.772 82.4695ZM298.682 128.315C298.796 128.372 298.881 142.356 298.881 159.41V190.362H334.855H370.829V210.968V231.575H334.855H298.881V362.432V493.262L297.402 493.432C289.61 494.342 284.662 494.597 274.993 494.597C265.126 494.626 260.348 494.399 252.528 493.546L249.542 493.205L249.456 362.375L249.399 231.575H213.426H177.452V210.968V190.362H213.426H249.399V159.239V128.116L257.021 128.031C266.121 127.917 298.369 128.116 298.682 128.315ZM246.271 157.818V187.235H210.297H174.324L174.381 210.883L174.466 234.559L210.383 234.644L246.271 234.701V325.17C246.271 374.91 246.357 431.727 246.47 451.424C246.556 471.12 246.527 488.487 246.413 490.021L246.214 492.807L245.333 492.636C232.906 490.505 220.507 487.321 211.378 483.939C200.003 479.732 190.078 474.702 181.945 469.074C176.968 465.606 173.101 462.309 168.067 457.279C161.527 450.713 157.033 444.886 153.081 437.781C148.161 428.941 144.407 417.714 142.928 407.511C141.734 399.183 141.762 403.958 141.762 267.529V137.069L145.317 136.586C163.432 134.113 189.453 131.527 210.297 130.134C222.355 129.338 238.167 128.514 243.371 128.429L246.271 128.4V157.818ZM311.252 128.685C333.035 129.594 351.719 130.93 372.819 133.119C386.214 134.483 405.921 136.956 406.234 137.268C406.291 137.325 406.348 195.933 406.404 267.529C406.433 365.53 406.376 398.472 406.12 400.831C404.983 411.632 403.219 419.192 399.949 427.492C387.579 458.785 358.828 480.187 315.659 490.164C310.711 491.3 302.322 492.892 302.152 492.722C302.095 492.665 301.952 434.597 301.839 363.654L301.64 234.701L337.727 234.644L373.815 234.559V210.968V187.377L337.784 187.292L301.725 187.235V157.818V128.4H303.09C303.829 128.4 307.498 128.543 311.252 128.685ZM138.862 269.576L138.947 401.684L139.573 406.004C142.502 426.184 150.322 442.954 163.29 456.881C178.845 473.593 199.662 484.991 227.445 492.039C253.779 498.719 283.781 499.6 310.256 494.455C320.778 492.409 336.192 487.804 344.922 484.11C360.079 477.714 372.393 469.671 382.488 459.524C393.096 448.922 400.148 437.297 404.897 422.575C406.859 416.549 407.627 412.882 408.879 404.1C409.305 401.144 409.334 388.78 409.419 269.291C409.504 139.343 409.533 137.78 410.073 137.78C410.841 137.78 424.178 139.855 433.108 141.361C441.525 142.782 455.374 145.511 461.346 146.904L465.242 147.841L465.328 301.75C465.356 386.421 465.356 458.018 465.328 460.831C465.242 468.733 464.304 473.451 461.574 479.846C456.085 492.579 446.132 502.328 430.804 509.946C421.619 514.522 415.476 516.398 378.08 526.033C348.875 533.565 336.248 537.118 321.745 541.893C302.976 548.117 285.97 556.019 276.899 562.812C275.505 563.835 274.311 564.688 274.226 564.688C274.14 564.688 273.173 564.005 272.036 563.153C262.822 556.246 247.807 549.084 229.209 542.774C214.933 537.914 201.311 534.02 171.906 526.459C133.572 516.568 126.065 514.294 116.879 509.69C107.893 505.199 99.8451 498.975 94.385 492.324C88.2425 484.82 84.4034 475.895 83.3227 466.487C83.1521 464.754 83.0384 412.087 83.0384 305.843V147.756L84.119 147.472C86.8206 146.761 97.4847 144.488 103.514 143.351C110.623 142.015 136.103 137.751 138.407 137.524C138.691 137.496 138.776 164.952 138.862 269.576Z" fill="none"/>
<path stroke="url(#colsihGradient)" stroke-width="2.5" stroke-linecap="round" stroke-linejoin="round" d="M245.333 94.3217C242.518 94.9754 239.731 97.2492 238.536 99.8357C237.996 101.029 237.882 101.74 237.882 104.241C237.882 107.055 237.939 107.339 238.821 109.13C240.641 112.825 243.598 114.53 248.12 114.559C252.84 114.587 255.599 113.194 257.334 109.926C257.845 108.959 258.158 108.078 258.045 107.936C257.76 107.68 253.665 106.686 253.58 106.828C253.551 106.884 253.182 107.567 252.784 108.362C251.845 110.182 250.423 111.063 248.319 111.063C245.162 111.063 243.399 109.3 242.83 105.605C242.006 100.347 244.48 97.1071 248.973 97.4766C250.764 97.6187 251.76 98.2156 252.755 99.722L253.409 100.717L255.599 100.262C258.016 99.722 258.045 99.722 256.907 97.7608C256.025 96.2544 254.319 95.0038 252.442 94.4354C250.878 93.9806 247.068 93.9238 245.333 94.3217Z" fill="none"/>
<path stroke="url(#colsihGradient)" stroke-width="2.5" stroke-linecap="round" stroke-linejoin="round" d="M261.969 104.014L262.054 114.047L264.415 114.132L266.747 114.218V104.099V94.009H264.329H261.912L261.969 104.014Z" fill="none"/>
<path stroke="url(#colsihGradient)" stroke-width="2.5" stroke-linecap="round" stroke-linejoin="round" d="M276.444 97.5051C275.591 99.4094 273.572 103.843 271.951 107.339C270.33 110.864 269.022 113.82 269.022 113.962C269.022 114.36 273.799 114.246 274.055 113.848C274.169 113.649 274.624 112.654 275.022 111.631L275.79 109.784H280.539H285.316L286.17 111.972L287.023 114.189H289.696C291.175 114.189 292.312 114.104 292.255 113.962C292.198 113.848 290.122 109.329 287.648 103.872L283.127 94.0091H280.567L277.979 94.0375L276.444 97.5051ZM282.103 102.422L283.496 105.804L280.624 105.89C279.06 105.918 277.723 105.918 277.667 105.861C277.61 105.804 278.235 104.213 279.032 102.308C279.856 100.404 280.567 98.8978 280.596 98.9546C280.653 99.0115 281.335 100.575 282.103 102.422Z" fill="none"/>
<path stroke="url(#colsihGradient)" stroke-width="2.5" stroke-linecap="round" stroke-linejoin="round" d="M228.754 99.3241C228.839 101.797 229.01 104.781 229.095 105.947C229.237 108.05 229.237 108.078 228.725 107.481C228.441 107.14 226.137 104.298 223.578 101.143L218.943 95.4302L216.753 95.6292C215.558 95.7144 214.506 95.8281 214.449 95.885C214.307 96.0271 215.502 115.383 215.672 115.525C215.729 115.61 216.724 115.553 217.833 115.44L219.909 115.241L219.71 111.802C219.17 101.939 219.17 102.621 219.682 103.246C219.909 103.559 222.184 106.344 224.715 109.471L229.294 115.099L231.597 114.9C232.877 114.786 233.929 114.672 233.986 114.615C234.1 114.502 233.247 98.5851 233.019 96.3397L232.877 94.8617H230.716H228.555L228.754 99.3241Z" fill="none"/>
<path stroke="url(#colsihGradient)" stroke-width="2.5" stroke-linecap="round" stroke-linejoin="round" d="M312.133 101.655C311.877 110.665 311.65 111.347 309.062 111.347C307.356 111.347 306.446 110.551 306.133 108.846L305.962 107.709L304.341 107.822C301.298 108.078 301.355 108.078 301.554 109.556C301.839 111.716 302.777 113.081 304.597 113.99C307.839 115.61 312.219 115.241 314.522 113.166C316.228 111.603 316.484 110.437 316.911 102.337C317.11 98.4714 317.224 95.2028 317.167 95.0607C317.11 94.947 316.001 94.8617 314.693 94.8617H312.332L312.133 101.655Z" fill="none"/>
<path stroke="url(#colsihGradient)" stroke-width="2.5" stroke-linecap="round" stroke-linejoin="round" d="M321.916 102.451C321.518 110.466 321.575 111.148 322.968 112.995C323.821 114.161 325.812 115.184 328.087 115.61C330.532 116.093 335.139 115.866 336.419 115.212C338.097 114.331 339.263 113.024 339.689 111.489C340.088 110.096 340.969 100.802 340.969 97.8745V96.3681L339.917 96.1691C339.32 96.0839 338.296 95.9986 337.642 95.9986C336.504 95.9986 336.476 96.027 336.305 97.0503C336.22 97.6471 336.078 99.523 335.993 101.257C335.708 106.487 335.31 109.897 334.883 110.722C334.286 111.858 333.177 112.342 331.187 112.342C328.883 112.313 327.404 111.603 326.807 110.238C326.437 109.329 326.437 108.391 326.75 102.451C326.949 98.7272 327.063 95.6291 326.978 95.5723C326.921 95.5154 325.84 95.3733 324.589 95.2596L322.286 95.0607L321.916 102.451Z" fill="none"/>
<path stroke="url(#colsihGradient)" stroke-width="2.5" stroke-linecap="round" stroke-linejoin="round" d="M199.918 96.624C195.936 96.9366 192.609 97.2493 192.524 97.3061C192.41 97.4482 193.86 114.701 194.145 116.378C194.259 117.174 194.372 117.287 195.055 117.145C195.709 117.031 210.411 115.895 211.236 115.895C211.463 115.895 211.577 115.298 211.577 114.161V112.427L209.672 112.597C205.52 112.967 198.752 113.393 198.666 113.308C198.61 113.251 198.496 112.001 198.382 110.551L198.183 107.936L199.406 107.908C200.088 107.908 202.619 107.737 205.036 107.567L209.444 107.226L209.53 105.719C209.587 104.582 209.501 104.184 209.16 104.071C208.932 103.957 206.345 104.042 203.472 104.241C200.572 104.44 198.126 104.554 198.041 104.469C197.955 104.383 197.813 103.417 197.728 102.337L197.557 100.347L199.662 100.177C200.828 100.063 203.558 99.8357 205.719 99.6936C207.909 99.5231 209.729 99.3525 209.757 99.3241C209.814 99.2673 209.757 98.5283 209.672 97.6188L209.501 95.9987L208.335 96.0271C207.681 96.0555 203.899 96.3113 199.918 96.624Z" fill="none"/>
<path stroke="url(#colsihGradient)" stroke-width="2.5" stroke-linecap="round" stroke-linejoin="round" d="M349.387 97.2776C346.941 98.1302 345.519 100.006 345.519 102.337C345.519 103.9 345.974 104.895 347.14 105.975C348.249 107.027 349.159 107.424 352.941 108.618C356.837 109.812 357.747 110.409 357.747 111.773C357.747 113.592 355.359 114.53 352.401 113.876C350.524 113.478 349.33 112.484 348.932 111.034L348.619 109.897L346.287 109.982L343.955 110.068L344.04 110.92C344.325 113.393 346.287 115.781 348.903 116.775C351.15 117.628 355.871 117.856 358.146 117.202C362.724 115.866 364.26 110.665 360.961 107.623C359.823 106.543 358.345 105.861 354.904 104.81C351.32 103.73 350.069 103.019 350.069 102.138C350.069 101.001 351.036 100.432 353.169 100.319C355.785 100.177 357.065 100.717 357.662 102.252C358.089 103.303 358.202 103.388 359.169 103.388C359.766 103.388 360.819 103.474 361.558 103.559C362.866 103.758 362.866 103.758 362.866 102.905C362.866 101.655 361.729 99.6651 360.421 98.6703C359.738 98.1587 358.458 97.5902 357.378 97.3344C355.103 96.7375 350.922 96.7375 349.387 97.2776Z" fill="none"/>
<path stroke="url(#colsihGradient)" stroke-width="2.5" stroke-linecap="round" stroke-linejoin="round" d="M184.021 97.903L182.77 98.0167L182.94 99.2104C183.026 99.8642 183.509 104.355 184.021 109.187L184.959 117.969L187.234 117.799C188.457 117.685 189.538 117.543 189.595 117.486C189.68 117.429 189.396 114.445 188.998 110.864C188.628 107.311 188.144 102.877 187.945 101.029L187.604 97.704L186.438 97.7609C185.784 97.7893 184.703 97.8461 184.021 97.903Z" fill="none"/>
<path stroke="url(#colsihGradient)" stroke-width="2.5" stroke-linecap="round" stroke-linejoin="round" d="M366.449 98.7272C366.364 98.983 366.279 99.722 366.279 100.404C366.279 101.797 366.25 101.797 370.488 102.138C371.909 102.252 372.82 102.451 372.82 102.65C372.82 102.82 372.393 106.515 371.881 110.835L370.943 118.737L371.824 118.85C372.279 118.936 373.331 119.078 374.156 119.163C375.919 119.362 375.663 120.243 376.687 110.494C377.114 106.515 377.54 103.161 377.625 103.047C377.711 102.962 379.246 103.019 381.038 103.218C383.256 103.445 384.28 103.474 384.365 103.275C384.422 103.104 384.507 102.337 384.536 101.541L384.621 100.12L376.659 99.2104C367.217 98.1588 366.677 98.1303 366.449 98.7272Z" fill="none"/>
<path stroke="url(#colsihGradient)" stroke-width="2.5" stroke-linecap="round" stroke-linejoin="round" d="M168.807 99.1535C165.224 99.6936 162.039 101.854 160.674 104.668C159.678 106.714 159.564 110.068 160.361 112.711C161.441 116.321 164.598 118.964 168.579 119.589C171.736 120.101 175.717 119.078 177.935 117.202C178.874 116.406 180.182 113.99 180.352 112.796C180.438 112.143 180.324 112.086 178.447 111.745C177.367 111.546 176.314 111.375 176.144 111.375C175.973 111.347 175.689 111.83 175.518 112.455C174.58 115.553 171.224 117.003 168.153 115.639C166.674 114.957 165.565 113.336 165.053 111.148C164.114 107.112 164.882 104.639 167.47 103.303C170.086 101.996 172.589 102.365 174.21 104.326L175.063 105.35L177.253 104.753C178.447 104.412 179.442 104.071 179.442 103.957C179.442 103.843 179.016 103.104 178.532 102.365C176.798 99.7788 172.959 98.5282 168.807 99.1535Z" fill="none"/>
<path stroke="url(#colsihGradient)" stroke-width="2.5" stroke-linecap="round" stroke-linejoin="round" d="M387.465 104.298C387.209 106.373 386.612 110.693 386.157 113.876C385.702 117.06 385.332 119.817 385.332 120.016C385.332 120.328 387.749 120.783 389.74 120.868C390.081 120.868 390.167 120.328 391.446 110.75C392.015 106.487 392.527 102.564 392.612 102.053C392.783 101.058 392.726 101.029 389.569 100.688L387.977 100.518L387.465 104.298Z" fill="none"/>
<path stroke="url(#colsihGradient)" stroke-width="2.5" stroke-linecap="round" stroke-linejoin="round" d="M403.475 102.82C398.925 103.616 395.74 106.941 395.001 111.659C394.461 115.184 395.456 118.083 398.015 120.414C399.949 122.176 402.054 123 405.125 123.199C407.798 123.398 409.959 122.858 411.58 121.664C412.803 120.755 414.737 118.168 414.424 117.856C414.168 117.628 410.3 116.122 410.244 116.236C409.049 118.509 407.798 119.39 405.637 119.533C403.106 119.703 400.916 118.452 400.148 116.378C399.409 114.445 399.949 110.466 401.229 108.448C402.253 106.856 403.674 106.145 405.864 106.145C408.139 106.174 409.703 107.083 410.613 108.874L411.296 110.238L413.457 110.068C414.651 109.954 415.675 109.812 415.704 109.755C415.96 109.556 415.362 107.879 414.623 106.686C412.775 103.786 407.741 102.053 403.475 102.82Z" fill="none"/>
<path stroke="url(#colsihGradient)" stroke-width="2.5" stroke-linecap="round" stroke-linejoin="round" d="M131.24 104.099C129.051 104.469 125.439 105.037 123.221 105.378L119.183 106.003L119.325 106.771C120.292 112.228 122.823 125.643 122.908 125.7C123.022 125.785 139.999 123 140.141 122.858C140.312 122.687 139.601 119.589 139.402 119.589C139.288 119.589 136.587 120.044 133.373 120.584C130.16 121.124 127.401 121.579 127.231 121.579C126.889 121.579 125.894 116.719 126.207 116.434C126.321 116.321 128.653 115.894 131.383 115.468C134.113 115.07 136.558 114.644 136.786 114.53C137.44 114.246 136.956 111.347 136.274 111.375C136.018 111.375 133.487 111.745 130.672 112.171C127.856 112.626 125.496 112.938 125.439 112.882C125.24 112.683 124.643 108.76 124.813 108.675C124.899 108.618 127.657 108.163 130.899 107.623L136.814 106.685L136.644 105.89C136.558 105.463 136.416 104.696 136.331 104.241C136.132 103.246 136.416 103.246 131.24 104.099Z" fill="none"/>
<path stroke="url(#colsihGradient)" stroke-width="2.5" stroke-linecap="round" stroke-linejoin="round" d="M420.481 107.425C419.742 110.977 417.182 124.222 417.182 124.45C417.182 124.677 419.457 125.189 420.993 125.331L421.818 125.416L423.752 115.639C424.832 110.238 425.657 105.804 425.628 105.804C425.543 105.719 421.533 105.094 421.221 105.094C421.078 105.094 420.737 106.146 420.481 107.425Z" fill="none"/>
<path stroke="url(#colsihGradient)" stroke-width="2.5" stroke-linecap="round" stroke-linejoin="round" d="M106.727 108.192C102.916 108.931 99.7313 109.613 99.646 109.727C99.4754 109.897 103.4 128.94 103.627 129.196C103.741 129.282 108.092 128.486 108.234 128.315C108.291 128.287 107.921 126.525 107.466 124.421C107.011 122.318 106.699 120.442 106.755 120.272C106.812 120.101 108.888 119.618 111.362 119.163C113.865 118.737 115.912 118.339 115.941 118.31C115.998 118.31 115.884 117.486 115.713 116.52C115.429 114.928 115.344 114.786 114.775 114.9C114.462 114.985 112.301 115.411 109.997 115.866L105.817 116.662L105.362 114.53C105.021 113.024 104.964 112.342 105.191 112.228C105.362 112.114 107.779 111.603 110.566 111.091C113.325 110.579 115.657 110.125 115.685 110.068C115.742 110.011 115.657 109.244 115.457 108.391C115.145 106.913 115.088 106.799 114.377 106.828C113.95 106.856 110.509 107.481 106.727 108.192Z" fill="none"/>
<path stroke="url(#colsihGradient)" stroke-width="2.5" stroke-linecap="round" stroke-linejoin="round" d="M436.15 108.561C432.311 113.791 423.979 125.615 424.064 125.7C424.15 125.814 428.415 126.695 428.757 126.695C428.813 126.695 429.439 125.786 430.15 124.705C431.06 123.37 431.657 122.716 432.027 122.716C432.653 122.716 440.587 124.109 440.7 124.251C440.757 124.279 440.928 125.075 441.07 126.013C441.61 129.111 441.355 128.855 444.113 129.338C445.478 129.594 446.644 129.765 446.701 129.679C446.815 129.594 441.98 108.76 441.81 108.59C441.753 108.505 437.373 107.652 437.032 107.652C436.918 107.652 436.52 108.078 436.15 108.561ZM439.762 120.414C439.677 120.499 434.188 119.561 433.989 119.419C433.932 119.362 434.899 117.856 436.122 116.037L438.34 112.74L439.108 116.52C439.506 118.595 439.819 120.357 439.762 120.414Z" fill="none"/>
<path stroke="url(#colsihGradient)" stroke-width="2.5" stroke-linecap="round" stroke-linejoin="round" d="M440.928 196.87C436.406 198.405 430.264 200.565 427.278 201.645L421.875 203.607V206.42V209.206L425.998 210.599C428.273 211.394 434.274 213.498 439.364 215.288C444.454 217.079 448.834 218.614 449.118 218.699C449.545 218.841 449.601 218.585 449.601 216.141V213.441L446.473 212.361L443.345 211.281L443.402 206.307L443.487 201.333L446.473 200.452L449.459 199.542L449.545 196.785C449.573 195.279 449.516 194.057 449.402 194.057C449.289 194.057 445.478 195.336 440.928 196.87ZM438.71 209.575C438.568 209.718 428.842 206.477 428.842 206.278C428.842 206.193 431.06 205.426 433.762 204.573L438.653 202.981L438.738 206.222C438.767 208.012 438.767 209.519 438.71 209.575Z" fill="none"/>
<path stroke="url(#colsihGradient)" stroke-width="2.5" stroke-linecap="round" stroke-linejoin="round" d="M110.765 195.933C106.101 196.672 102.49 198.945 100.641 202.356C99.7029 204.061 99.6745 204.26 99.6745 207.131C99.6745 209.575 99.7882 210.343 100.272 211.423C101.039 213.1 102.632 214.862 104.168 215.743C105.39 216.454 108.547 217.562 108.718 217.335C108.775 217.278 109.087 216.226 109.4 215.004C109.969 212.958 109.969 212.759 109.542 212.617C106.158 211.537 104.594 209.916 104.424 207.415C104.225 204.516 105.845 202.583 109.315 201.589C111.306 200.992 115.173 200.935 117.505 201.418C123.448 202.669 125.155 209.007 120.32 211.878C119.467 212.389 118.699 212.844 118.557 212.872C118.443 212.929 118.614 213.952 118.955 215.175L119.552 217.42L120.406 217.25C121.856 216.965 124.103 215.743 125.268 214.606C125.866 214.038 126.69 212.844 127.088 211.991C127.743 210.599 127.828 210.03 127.828 207.415C127.828 204.744 127.743 204.26 127.032 202.839C125.638 199.997 122.567 197.609 118.87 196.501C117.306 196.018 112.386 195.677 110.765 195.933Z" fill="none"/>
<path stroke="url(#colsihGradient)" stroke-width="2.5" stroke-linecap="round" stroke-linejoin="round" d="M109.031 222.309C105.305 223.161 102.092 225.634 100.499 228.874C99.7313 230.466 99.6745 230.807 99.6745 233.848C99.6745 236.804 99.7598 237.287 100.442 238.737C102.604 243.341 107.267 245.786 113.865 245.786C118.728 245.786 122.112 244.564 124.87 241.835C126.889 239.817 127.714 237.799 127.885 234.417C127.999 232.456 127.913 231.66 127.401 230.153C126.207 226.601 123.704 224.156 119.922 222.82C118.216 222.223 117.277 222.081 114.32 221.996C112.016 221.968 110.168 222.053 109.031 222.309ZM116.936 227.34C120.775 228.164 123.136 230.722 123.136 234.047C123.107 237.003 121.316 239.107 117.988 240.13C116.311 240.641 115.486 240.727 113.069 240.613C107.95 240.386 105.021 238.453 104.225 234.758C103.57 231.688 106.272 228.221 109.969 227.34C111.533 226.97 115.202 226.97 116.936 227.34Z" fill="none"/>
<path stroke="url(#colsihGradient)" stroke-width="2.5" stroke-linecap="round" stroke-linejoin="round" d="M421.732 225.037V227.595H435.667H449.601V225.037V222.479H435.667H421.732V225.037Z" fill="none"/>
<path stroke="url(#colsihGradient)" stroke-width="2.5" stroke-linecap="round" stroke-linejoin="round" d="M445.62 233.649C441.838 235.696 440.075 236.861 438.482 238.396C437.544 239.277 437.316 239.391 437.174 239.021C436.406 236.52 434.672 234.53 432.653 233.82C430.889 233.195 427.534 233.337 425.856 234.104C424.121 234.872 423.297 235.611 422.5 237.117C421.903 238.197 421.875 238.709 421.789 245.701L421.704 253.176H435.667H449.63L449.545 250.675L449.459 248.202L443.658 248.116L437.857 248.06L438.056 246.269C438.283 244.052 438.511 243.853 444.824 240.13L449.459 237.401L449.545 234.616C449.602 232.512 449.545 231.859 449.26 231.859C449.061 231.887 447.412 232.683 445.62 233.649ZM431.544 238.851C433.051 239.561 433.392 240.641 433.392 244.621V248.06H429.809H426.226L426.311 244.393C426.425 241.181 426.51 240.613 427.022 239.902C428.159 238.396 429.78 237.998 431.544 238.851Z" fill="none"/>
<path stroke="url(#colsihGradient)" stroke-width="2.5" stroke-linecap="round" stroke-linejoin="round" d="M100.101 257.382C100.101 260.964 100.016 264.857 99.9304 266.051L99.7314 268.24H102.035H104.31L104.509 265.312C104.594 263.721 104.651 260.992 104.594 259.287L104.509 256.16L115.969 256.075L127.43 256.018L127.344 253.517L127.259 251.044L113.694 250.959L100.101 250.902V257.382Z" fill="none"/>
<path stroke="url(#colsihGradient)" stroke-width="2.5" stroke-linecap="round" stroke-linejoin="round" d="M434.529 264.403V269.661H436.805H439.08V266.961V264.261H440.9C442.606 264.261 442.776 264.317 443.516 265.17C444.653 266.563 445.137 267.899 445.137 269.803C445.165 272.929 443.658 275.004 440.388 276.283C439.25 276.738 438.255 276.88 435.667 276.88C431.828 276.909 430.15 276.454 428.273 274.862C424.718 271.821 425.373 266.421 429.496 264.687C430.292 264.346 430.548 264.118 430.434 263.749C430.349 263.493 430.065 262.413 429.809 261.361C429.354 259.514 429.325 259.429 428.586 259.599C427.022 259.94 424.292 261.475 423.439 262.498C421.875 264.374 421.334 266.279 421.306 269.803C421.306 272.73 421.363 273.043 422.187 274.777C423.723 278.017 426.851 280.433 430.861 281.513C433.079 282.082 437.715 282.138 439.933 281.627C443.999 280.66 447.355 278.244 448.919 275.118C449.602 273.725 449.744 273.072 449.829 270.599C449.943 268.211 449.829 267.33 449.317 265.625C448.692 263.465 447.753 261.646 446.502 260.082L445.762 259.144H440.16H434.529V264.403Z" fill="none"/>
<path stroke="url(#colsihGradient)" stroke-width="2.5" stroke-linecap="round" stroke-linejoin="round" d="M100.101 282.735V291.83H102.319H104.509V285.236V278.642H105.789C106.5 278.642 108.177 278.671 109.571 278.699L112.045 278.756V284.725V290.722L114.263 290.637L116.453 290.551L116.538 284.497L116.595 278.472H119.723H122.851V285.009V291.546H125.126H127.401V282.593V273.64H113.751H100.101V282.735Z" fill="none"/>
<path stroke="url(#colsihGradient)" stroke-width="2.5" stroke-linecap="round" stroke-linejoin="round" d="M421.732 290.125V292.399L430.889 292.456L440.075 292.541L432.397 296.634C428.159 298.879 424.036 301.153 423.24 301.665L421.732 302.631V305.047V307.463H435.667H449.63L449.545 305.104L449.459 302.773L440.558 302.631L431.686 302.489L440.644 297.657L449.601 292.825V290.324V287.851H435.667H421.732V290.125Z" fill="none"/>
<path stroke="url(#colsihGradient)" stroke-width="2.5" stroke-linecap="round" stroke-linejoin="round" d="M109.599 296.776C105.533 297.714 102.149 300.244 100.499 303.626C99.7313 305.218 99.6745 305.559 99.6745 308.6C99.6745 311.613 99.7598 312.039 100.613 314.142C101.096 315.393 102.006 317.041 102.604 317.837L103.684 319.258L109.144 319.344L114.604 319.4V314.142V308.884H112.329H110.054V311.584V314.284H108.206H106.357L105.504 312.778C103.542 309.339 103.77 306.326 106.158 304.109C108.007 302.432 110.196 301.693 113.467 301.693C118.045 301.665 121.117 303.057 122.51 305.758C123.05 306.809 123.164 307.378 123.079 309.055C122.993 310.76 122.851 311.243 122.169 312.153C121.714 312.749 120.974 313.432 120.519 313.687C118.813 314.625 118.842 314.483 119.382 316.984C119.951 319.571 119.894 319.571 122.624 318.349C124.643 317.468 126.548 315.506 127.288 313.574C127.714 312.465 127.828 311.414 127.828 308.884C127.828 305.928 127.743 305.445 127.06 303.995C125.496 300.67 122.794 298.339 119.183 297.202C116.737 296.435 111.988 296.236 109.599 296.776Z" fill="none"/>
<path stroke="url(#colsihGradient)" stroke-width="2.5" stroke-linecap="round" stroke-linejoin="round" d="M421.732 316.245V318.804L431.913 318.889C441.468 318.974 442.122 319.002 443.032 319.543C444.682 320.509 445.194 321.475 445.194 323.522C445.194 325.483 444.767 326.336 443.231 327.472C442.492 328.041 442.037 328.069 432.084 328.155L421.732 328.24V330.798V333.356L432.34 333.271C444.454 333.157 444.852 333.1 447.27 330.883C449.26 329.121 449.943 327.273 449.971 323.664C450 320.111 449.402 318.32 447.611 316.558C446.786 315.705 445.649 314.966 444.596 314.54C442.947 313.886 442.72 313.858 432.34 313.773L421.732 313.687V316.245Z" fill="none"/>
<path stroke="url(#colsihGradient)" stroke-width="2.5" stroke-linecap="round" stroke-linejoin="round" d="M99.8167 327.927V330.485H113.609H127.401V327.927V325.369H113.609H99.8167V327.927Z" fill="none"/>
<path stroke="url(#colsihGradient)" stroke-width="2.5" stroke-linecap="round" stroke-linejoin="round" d="M110.339 335.488C108.547 335.829 105.959 336.88 104.452 337.847C102.461 339.126 101.381 340.348 100.414 342.423C99.7598 343.815 99.6745 344.327 99.6745 347.255C99.6745 350.211 99.7598 350.694 100.442 352.143C102.575 356.719 107.267 359.192 113.893 359.192C122.226 359.192 127.572 354.986 127.913 348.164C128.226 342.309 125.183 337.96 119.467 336.141C117.619 335.544 112.13 335.147 110.339 335.488ZM118.728 341.314C120.491 341.968 122.14 343.418 122.738 344.867C122.965 345.379 123.136 346.516 123.136 347.397C123.136 350.04 121.771 352.001 119.012 353.28C117.761 353.849 117.164 353.934 113.865 353.934C110.168 353.934 110.111 353.934 108.177 352.939C105.533 351.575 104.566 350.211 104.424 347.567C104.338 346.032 104.424 345.407 104.907 344.498C106.357 341.627 109.571 340.319 114.661 340.575C116.197 340.661 117.732 340.945 118.728 341.314Z" fill="none"/>
<path stroke="url(#colsihGradient)" stroke-width="2.5" stroke-linecap="round" stroke-linejoin="round" d="M421.732 342.138V344.697H427.278H432.823V349.386V354.076H427.278H421.732V356.492V358.908H435.667H449.601V356.492V354.076L443.573 354.019L437.515 353.934L437.43 349.329L437.373 344.697L443.402 344.64L449.459 344.554L449.545 342.053L449.63 339.58H435.667H421.732V342.138Z" fill="none"/>
<path stroke="url(#colsihGradient)" stroke-width="2.5" stroke-linecap="round" stroke-linejoin="round" d="M420.737 407.766C420.282 412.456 419.998 416.378 420.083 416.464C420.339 416.719 447.725 418.88 447.924 418.652C448.094 418.453 449.602 402.991 449.602 401.513C449.602 400.803 449.545 400.774 447.554 400.604C446.416 400.519 445.393 400.547 445.279 400.632C445.194 400.746 444.824 403.645 444.511 407.056C444.17 410.495 443.829 413.366 443.772 413.451C443.715 413.593 436.15 413.081 436.094 412.939C436.065 412.911 436.321 410.353 436.605 407.198C436.89 404.071 437.089 401.457 437.032 401.428C437.004 401.371 435.98 401.258 434.757 401.144L432.596 400.945L432.425 401.741C432.34 402.167 432.055 404.81 431.771 407.596L431.288 412.683L429.013 412.484C425.742 412.229 425.145 412.087 425.145 411.547C425.145 411.291 425.401 408.505 425.714 405.407C426.027 402.281 426.197 399.666 426.112 399.581C426.027 399.495 424.974 399.353 423.752 399.325L421.562 399.211L420.737 407.766Z" fill="none"/>
<path stroke="url(#colsihGradient)" stroke-width="2.5" stroke-linecap="round" stroke-linejoin="round" d="M119.353 406.658C116.766 407.312 115.031 408.761 114.007 411.092C113.751 411.745 113.239 413.906 112.926 415.867C112.244 419.931 112.045 420.528 111.249 421.239C109.628 422.688 107.068 421.836 105.874 419.448C104.48 416.748 105.248 414.048 107.694 412.74C108.376 412.399 109.059 412.058 109.258 412.001C109.514 411.916 109.4 411.234 108.917 409.557C108.177 406.857 108.376 406.914 104.992 408.534C101.466 410.239 100.186 412.655 100.471 417.117C100.812 422.802 103.627 426.241 108.348 426.753C111.732 427.094 115.287 425.701 116.794 423.456C117.647 422.177 117.932 421.125 118.557 416.862C119.126 413.025 119.382 412.342 120.349 411.66C122.425 410.211 124.813 412.484 124.842 415.924C124.842 417.657 124.216 418.595 122.538 419.448C121.941 419.761 121.429 420.045 121.429 420.102C121.429 420.13 121.742 421.125 122.112 422.29C122.738 424.337 122.794 424.422 123.591 424.337C124.956 424.166 126.662 423.285 127.771 422.148C130.672 419.164 130.217 412.143 126.889 408.79C125.013 406.885 121.941 406.033 119.353 406.658Z" fill="none"/>
<path stroke="url(#colsihGradient)" stroke-width="2.5" stroke-linecap="round" stroke-linejoin="round" d="M423.666 422.546C420.623 423.541 419.088 424.848 417.893 427.463C417.268 428.828 414.509 438.775 414.708 438.946C414.822 439.06 439.99 444.545 440.985 444.687C442.009 444.829 441.781 445.341 443.374 439.202C444.767 433.688 444.909 431.414 443.942 429.197C443.089 427.236 441.013 425.36 438.425 424.138C435.297 422.66 433.42 422.233 429.126 422.12C425.913 422.006 425.031 422.091 423.666 422.546ZM432.795 427.406C437.402 428.515 439.933 430.448 439.933 432.892C439.933 434.654 438.824 439.06 438.369 439.06C438.169 439.06 435.525 438.491 432.482 437.809C429.468 437.098 425.543 436.246 423.78 435.876L420.566 435.223L420.737 434.256C421.135 432.153 422.074 429.652 422.785 428.799C424.491 426.781 428.017 426.298 432.795 427.406Z" fill="none"/>
<path stroke="url(#colsihGradient)" stroke-width="2.5" stroke-linecap="round" stroke-linejoin="round" d="M106.3 438.406C105.703 438.463 105.22 438.576 105.22 438.662C105.22 438.719 105.732 439.827 106.386 441.078L107.523 443.38L110.936 443.266L114.348 443.181L116.168 447.558C117.192 449.974 118.017 451.964 118.017 451.992C118.017 451.992 116.879 452.958 115.457 454.095L112.926 456.142L114.121 458.387C114.775 459.638 115.372 460.661 115.457 460.661C115.628 460.661 136.018 444.176 136.871 443.351C137.355 442.897 137.326 442.755 136.302 440.538L135.279 438.207L121.316 438.264C113.637 438.292 106.869 438.349 106.3 438.406ZM126.093 445.739C123.932 447.387 122.055 448.695 121.913 448.638C121.742 448.581 119.467 443.494 119.439 443.124C119.439 443.01 122.396 442.84 126.093 442.811L130.018 442.755L126.093 445.739Z" fill="none"/>
<path stroke="url(#colsihGradient)" stroke-width="2.5" stroke-linecap="round" stroke-linejoin="round" d="M138.919 460.405C136.103 462.252 131.212 465.464 128.055 467.511C124.87 469.557 122.283 471.319 122.283 471.405C122.283 471.49 122.88 472.343 123.619 473.28C124.358 474.247 124.984 475.043 125.013 475.1C125.041 475.156 128.283 473.082 132.236 470.467C136.189 467.88 139.459 465.805 139.487 465.834C139.516 465.891 137.923 469.756 135.904 474.446C133.914 479.136 132.264 483.086 132.264 483.257C132.236 483.399 132.975 484.365 133.885 485.332L135.506 487.151L140.625 483.768C143.44 481.921 148.474 478.624 151.772 476.464C155.583 473.991 157.744 472.428 157.631 472.2C157.233 471.518 154.901 468.903 154.702 468.903C154.588 468.903 151.317 470.95 147.45 473.451C143.582 475.981 140.369 477.97 140.312 477.913C140.255 477.857 141.876 473.963 143.895 469.244C145.943 464.498 147.592 460.604 147.592 460.519C147.592 460.178 144.691 456.966 144.379 456.966C144.18 456.994 141.734 458.529 138.919 460.405Z" fill="none"/>
<path stroke="url(#colsihGradient)" stroke-width="2.5" stroke-linecap="round" stroke-linejoin="round" d="M387.55 475.611L385.901 477.459L386.697 478.112C387.408 478.681 389.967 480.642 402.423 490.135L406.575 493.29L413.059 486.81C419.429 480.443 419.571 480.272 419.059 479.732C418.775 479.42 418.064 478.823 417.438 478.425L416.329 477.658L413.855 479.931C412.462 481.182 410.357 483.257 409.106 484.507C407.656 486.014 406.774 486.724 406.547 486.582C403.589 484.308 389.37 473.735 389.285 473.735C389.228 473.735 388.432 474.588 387.55 475.611Z" fill="none"/>
<path stroke="url(#colsihGradient)" stroke-width="2.5" stroke-linecap="round" stroke-linejoin="round" d="M161.669 478.453C160.901 479.363 160.418 480.13 160.588 480.244C163.432 482.035 166.645 484.451 166.589 484.706C166.532 484.905 163.574 488.288 159.963 492.238C156.379 496.189 153.251 499.657 153.081 499.912C152.768 500.339 152.995 500.566 154.872 501.874C156.977 503.323 157.033 503.352 157.602 502.84C158.029 502.442 170.001 489.282 171.195 487.861C171.309 487.748 172.731 488.543 174.352 489.68C175.973 490.789 177.452 491.755 177.594 491.812C177.765 491.897 178.561 491.244 179.414 490.391L180.921 488.884L172.077 482.859C167.243 479.562 163.233 476.862 163.176 476.862C163.091 476.862 162.437 477.572 161.669 478.453Z" fill="none"/>
<path stroke="url(#colsihGradient)" stroke-width="2.5" stroke-linecap="round" stroke-linejoin="round" d="M372.251 486.753C368.582 488.913 364.715 491.187 363.663 491.784C362.582 492.437 361.786 493.063 361.871 493.262C361.985 493.574 365.511 498.236 374.042 509.264C375.436 511.054 376.687 512.646 376.801 512.788C376.943 512.93 381.038 510.656 386.015 507.7L395.001 502.385L394.063 501.248C393.579 500.623 392.953 499.856 392.726 499.571C392.328 499.088 392.243 499.088 390.735 499.998C389.882 500.509 386.896 502.3 384.138 503.949L379.104 506.933L377.057 504.233C375.208 501.817 375.038 501.476 375.464 501.163C375.72 500.993 378.308 499.429 381.209 497.724C384.081 496.019 386.47 494.541 386.47 494.399C386.47 494.086 384.394 491.357 384.166 491.357C384.052 491.357 381.493 492.778 378.45 494.512C375.436 496.246 372.819 497.724 372.649 497.809C372.364 497.923 369.123 494.086 369.123 493.66C369.123 493.574 371.938 491.84 375.35 489.822L381.607 486.156L380.327 484.479C379.616 483.569 379.019 482.83 378.99 482.83C378.962 482.83 375.919 484.593 372.251 486.753Z" fill="none"/>
<path stroke="url(#colsihGradient)" stroke-width="2.5" stroke-linecap="round" stroke-linejoin="round" d="M190.22 499.259C182.087 505.881 174.267 512.248 173.698 512.703C173.158 513.129 173.243 513.186 175.689 514.209C177.224 514.863 178.419 515.204 178.646 515.062C178.845 514.948 179.954 514.095 181.092 513.157L183.168 511.48L188.088 513.527C190.818 514.664 193.178 515.687 193.349 515.801C193.604 515.943 193.633 516.739 193.434 518.814C193.292 520.348 193.206 521.713 193.263 521.798C193.405 522.025 198.496 524.157 198.61 524.015C198.666 523.958 199.036 518.472 199.463 511.822C199.861 505.171 200.23 499.316 200.259 498.804C200.344 497.866 200.316 497.838 197.643 496.729C196.164 496.132 194.884 495.621 194.799 495.621C194.714 495.621 192.666 497.269 190.22 499.259ZM194.458 506.649C194.259 509.235 193.974 511.253 193.832 511.253C193.292 511.253 187.121 508.553 187.178 508.354C187.291 508.098 194.628 501.874 194.714 501.987C194.742 502.016 194.628 504.119 194.458 506.649Z" fill="none"/>
<path stroke="url(#colsihGradient)" stroke-width="2.5" stroke-linecap="round" stroke-linejoin="round" d="M346.799 499.628C346.031 499.77 342.306 500.907 338.552 502.158C332.921 504.034 331.727 504.517 331.784 504.915C331.812 505.199 333.945 510.23 336.533 516.085C340.4 524.839 341.339 526.715 341.737 526.658C343.159 526.374 355.273 522.167 356.752 521.457C359.738 519.95 361.16 518.075 361.16 515.602C361.132 512.305 358.117 509.264 354.875 509.264C353.908 509.264 353.908 509.264 354.591 508.07C357.264 503.38 352.885 498.605 346.799 499.628ZM349.245 504.687C350.752 506.222 350.24 507.899 347.936 509.036C346.884 509.576 340.685 511.623 340.571 511.509C340.4 511.253 338.694 507.103 338.637 506.734C338.524 506.222 345.462 503.892 347.169 503.863C348.164 503.863 348.562 504.034 349.245 504.687ZM353.766 513.044C354.164 513.243 354.705 513.868 354.989 514.465C355.672 515.829 355.273 517.25 353.965 518.046C353.027 518.586 345.747 521.201 345.15 521.201C344.808 521.201 342.249 515.573 342.476 515.318C342.562 515.261 344.325 514.635 346.429 513.953C350.382 512.646 352.458 512.39 353.766 513.044Z" fill="none"/>
<path stroke="url(#colsihGradient)" stroke-width="2.5" stroke-linecap="round" stroke-linejoin="round" d="M307.782 509.178C305.365 509.576 305.166 509.661 304.995 510.344C304.54 512.134 300.019 534.162 300.019 534.588C300.019 535.014 300.246 535.014 302.749 534.56C304.227 534.275 305.564 533.963 305.678 533.821C305.82 533.679 306.104 532.428 306.36 531.035C306.616 529.671 306.872 528.477 306.957 528.392C307.1 528.25 316.939 526.601 317.65 526.601C317.906 526.601 318.901 527.681 319.868 528.989L321.631 531.348L324.504 530.836C326.096 530.552 327.433 530.268 327.49 530.211C327.575 530.154 324.845 526.459 321.432 521.997C318.02 517.563 314.351 512.759 313.242 511.31C312.162 509.889 311.053 508.723 310.825 508.752C310.598 508.752 309.233 508.951 307.782 509.178ZM312.389 518.927L315.119 522.764L311.479 523.361C309.488 523.702 307.811 523.958 307.754 523.901C307.725 523.873 308.038 521.769 308.465 519.268C308.891 516.739 309.346 514.778 309.46 514.891C309.574 515.005 310.882 516.824 312.389 518.927Z" fill="none"/>
<path stroke="url(#colsihGradient)" stroke-width="2.5" stroke-linecap="round" stroke-linejoin="round" d="M247.693 510.571C247.693 510.884 246.84 516.142 245.788 522.253C244.736 528.392 243.939 533.48 244.025 533.536C244.167 533.707 249.229 534.531 249.343 534.418C249.399 534.361 253.352 511.282 253.381 510.798C253.381 510.77 252.584 510.685 251.618 510.571C250.622 510.457 249.343 510.287 248.774 510.201C247.835 510.059 247.693 510.116 247.693 510.571Z" fill="none"/>
<path stroke="url(#colsihGradient)" stroke-width="2.5" stroke-linecap="round" stroke-linejoin="round" d="M271.638 511.964C265.495 513.3 263.135 518.245 266.775 522.196C268.225 523.787 269.903 524.47 274.823 525.521C280.766 526.8 282.046 527.681 281.136 529.87C279.999 532.57 273.941 533.082 271.268 530.666C270.671 530.126 270.017 529.188 269.846 528.619L269.533 527.596L267.372 527.795C266.149 527.88 264.898 527.994 264.528 527.994C263.988 528.022 263.931 528.136 264.073 528.79C264.5 530.609 265.467 532.343 266.718 533.508C268.595 535.27 270.699 536.009 274.453 536.18C282.444 536.578 286.937 533.906 286.937 528.733C286.937 524.271 284.833 522.793 275.79 520.775C272.235 519.979 270.643 519.183 270.5 518.103C270.216 516.17 274.482 514.863 277.894 515.801C279.06 516.142 280.397 517.535 280.397 518.416C280.397 518.984 280.482 519.012 283.269 518.842C284.861 518.728 286.198 518.615 286.255 518.558C286.511 518.33 285.658 516.113 284.918 515.033C282.928 512.163 277.013 510.798 271.638 511.964Z" fill="none"/>
</g>

<!-- Group B: Bright glowing neon pulses travelling along outlines -->
<g filter="url(#glowFilter)">
  <path stroke="url(#colsihGradient)" stroke-width="2.5" stroke-linecap="round" stroke-linejoin="round" class="animated-stroke" d="M242.688 0.328125C236.062 1.60714 231.085 4.30727 228.213 8.20117C226.223 10.9013 225.682 12.6067 225.654 16.1311C225.654 18.7744 225.739 19.3428 226.479 21.105C227.474 23.4641 231.142 30.3992 233.673 34.6626C235.067 37.0217 235.436 37.846 235.209 38.2155C234.782 39.0397 231.512 42.0525 229.209 43.7579C218.829 51.4604 197.33 60.0724 176.599 64.8474C155.1 69.793 126.918 71.1288 113.04 67.8602C103.002 65.5012 94.6978 59.305 89.5222 50.3235C88.2993 48.1634 86.1949 43.8147 84.9437 40.7735C84.6024 40.0061 84.318 39.7219 83.863 39.7219C83.4934 39.7219 68.1085 42.2231 49.6524 45.2643C31.1678 48.3055 12.4558 51.4035 8.0479 52.1425C3.6116 52.8531 0 53.5352 0 53.6489C0 53.9047 17.9158 71.1288 45.7848 97.6756C52.6099 104.184 52.7805 104.355 54.2024 107.055C54.9703 108.561 56.8756 111.773 58.4112 114.189C59.9753 116.605 65.4922 125.416 70.6964 133.744L80.1946 148.893L80.1661 307.69C80.1661 465.862 80.1661 466.487 80.7349 469.756C82.1852 478.084 85.3702 485.389 90.5744 492.352C91.4844 493.603 93.9869 496.36 96.1197 498.491C101.75 504.147 107.722 508.468 115.145 512.219C124.643 517.023 130.672 518.899 169.774 529.017C197.671 536.237 211.321 540.074 224.09 544.28C246.499 551.642 262.879 559.486 272.576 567.501C273.344 568.155 274.083 568.667 274.226 568.667C274.339 568.667 275.221 568.013 276.188 567.217C282.757 561.76 295.014 555.223 308.977 549.766C325.243 543.399 340.969 538.738 385.19 527.312C417.524 518.956 423.353 517.137 432.055 512.788C450.938 503.323 462.711 490.05 466.949 473.423C468.456 467.596 468.37 477.658 468.37 306.696V148.04L471.555 142.981C475.821 136.16 485.234 121.266 490.58 112.882L494.96 106.06L503.918 97.3914C508.837 92.6448 517.881 83.9474 523.966 78.0924C530.08 72.2373 537.048 65.5296 539.465 63.1705C541.882 60.8398 545.124 57.7134 546.66 56.2354C548.167 54.7574 549.39 53.5353 549.361 53.5068C549.304 53.4784 547.115 53.1089 544.442 52.6826C541.797 52.2562 523.483 49.215 503.775 45.9464C484.068 42.6778 467.318 39.9776 466.55 39.9492L465.157 39.864L463.394 44.1558C460.607 50.9488 458.076 54.8427 453.611 59.1345C444.938 67.4907 435.894 69.8498 413.713 69.4803C400.745 69.2814 391.987 68.315 379.076 65.7001C357.093 61.2378 333.831 52.2278 322.485 43.7579C320.181 42.0525 316.911 39.0397 316.484 38.2439C316.285 37.846 316.598 37.0501 317.878 34.8331C320.92 29.5465 324.731 22.2135 325.271 20.5082C327.063 15.1363 325.897 10.3329 321.83 6.3537C317.394 1.97662 310.313 -0.354032 302.72 0.0438843C295.895 0.384956 290.094 2.91456 285.885 7.40533C283.582 9.8781 282.615 11.3276 280.937 14.8521C275.761 25.6811 277.069 37.9597 285.117 53.3363C289.724 62.1473 297.09 71.4415 304.853 78.2061L306.702 79.7977L304.142 79.5988C302.749 79.4567 288.956 79.3714 273.515 79.3714H245.447L246.357 78.6608C253.694 72.9195 262.026 62.4884 267.031 52.7678C273.884 39.3808 275.619 28.4665 272.406 18.6607C269.306 9.19597 262.964 2.88615 254.433 0.754456C251.419 0.0154675 245.503 -0.211905 242.688 0.328125ZM253.637 3.65356C254.831 3.93779 256.879 4.73359 258.215 5.35889C261.485 6.95055 265.467 10.9013 267.23 14.2836C269.932 19.485 271.183 24.6579 270.927 29.6318C270.642 35.828 268.709 42.3652 264.898 50.0961C259.381 61.3515 251.817 70.6741 242.148 78.1776L240.157 79.7409L232.621 80.0536C199.15 81.5031 160.56 84.9991 133.373 89.0635C106.13 93.1279 81.1899 97.9882 59.6056 103.474L56.8187 104.184L55.3399 102.678C54.5437 101.854 48.0599 95.6291 40.9504 88.8646C26.3334 74.9659 8.92947 58.2534 7.33695 56.5765L6.25631 55.4964L18.0011 53.5352C24.4281 52.4836 41.2917 49.6982 55.4537 47.3391C69.6157 45.0085 81.4743 43.0473 81.844 43.0473C82.4127 42.9905 82.6971 43.3883 84.0052 46.259C89.4369 58.1681 97.2288 65.7001 108.149 69.5372C121.97 74.3974 152.398 73.4595 178.589 67.4055C205.719 61.1241 231.512 48.9592 238.138 39.3524L239.19 37.8459L236.801 33.8668C233.816 28.9212 230.062 21.9009 229.265 19.7692C227.986 16.3585 228.242 13.6015 230.119 10.6455C233.986 4.56307 244.679 1.37975 253.637 3.65356ZM309.716 3.48303C312.019 3.96622 315.062 5.10311 316.797 6.0979C318.788 7.26323 321.034 9.56545 322.03 11.4413C322.854 13.033 322.911 13.3456 322.911 16.0458V18.9449L321.205 22.2704C318.56 27.4433 315.46 33.0994 313.896 35.5437L312.474 37.7322L312.986 38.5281C319.84 49.1013 346.003 61.4936 374.839 67.8318C401.57 73.7153 429.866 74.2838 443.374 69.1961C447.924 67.4907 452.076 64.819 455.772 61.2378C460.294 56.8607 463.536 52.0573 465.982 46.0032C466.949 43.6442 467.347 43.0189 467.716 43.0757C468.143 43.1326 493.339 47.2823 538.271 54.7006C540.801 55.1269 542.849 55.5532 542.821 55.6385C542.764 55.7238 537.247 61.0957 530.507 67.576C523.796 74.028 512.477 84.9138 505.396 91.7068C498.315 98.5282 492.372 104.128 492.144 104.184C491.945 104.241 488.846 103.559 485.262 102.706C443.857 92.7584 400.66 86.136 351.491 82.2421C337.557 81.1336 319.84 80.082 314.835 80.082H312.133L309.488 78.064C296.094 67.8602 284.719 50.4656 281.648 35.4869C279.97 27.3864 281.079 20.2239 285.032 13.4309C286.454 11.0434 290.151 7.26323 292.397 5.92737C297.175 3.14195 303.602 2.23244 309.716 3.48303ZM291.772 82.4695C306.047 82.64 311.934 82.8105 327.746 83.6348C381.92 86.4771 437.515 94.2933 484.637 105.691L490.523 107.112L488.931 109.585C484.182 116.975 469.878 139.229 468.228 141.873C466.579 144.488 466.209 144.914 465.697 144.772C465.384 144.687 461.915 143.891 457.991 143.038C440.757 139.286 415.078 135.023 394.574 132.522C364.828 128.912 337.955 126.667 310.825 125.53C298.938 125.047 260.604 124.876 247.835 125.246C214.99 126.212 183.253 128.685 150.578 132.806C129.79 135.449 99.0488 140.707 85.0574 144.061C83.0952 144.516 81.4174 144.8 81.3036 144.687C81.0761 144.459 65.9757 120.385 60.8 112.057C58.9231 109.016 57.9278 107.169 58.1268 107.055C58.6956 106.714 75.0189 102.877 84.4602 100.859C136.587 89.6888 198.78 83.1232 259.921 82.3842C268.453 82.2989 275.875 82.2421 276.415 82.2705C276.956 82.2989 283.866 82.4126 291.772 82.4695ZM298.682 128.315C298.796 128.372 298.881 142.356 298.881 159.41V190.362H334.855H370.829V210.968V231.575H334.855H298.881V362.432V493.262L297.402 493.432C289.61 494.342 284.662 494.597 274.993 494.597C265.126 494.626 260.348 494.399 252.528 493.546L249.542 493.205L249.456 362.375L249.399 231.575H213.426H177.452V210.968V190.362H213.426H249.399V159.239V128.116L257.021 128.031C266.121 127.917 298.369 128.116 298.682 128.315ZM246.271 157.818V187.235H210.297H174.324L174.381 210.883L174.466 234.559L210.383 234.644L246.271 234.701V325.17C246.271 374.91 246.357 431.727 246.47 451.424C246.556 471.12 246.527 488.487 246.413 490.021L246.214 492.807L245.333 492.636C232.906 490.505 220.507 487.321 211.378 483.939C200.003 479.732 190.078 474.702 181.945 469.074C176.968 465.606 173.101 462.309 168.067 457.279C161.527 450.713 157.033 444.886 153.081 437.781C148.161 428.941 144.407 417.714 142.928 407.511C141.734 399.183 141.762 403.958 141.762 267.529V137.069L145.317 136.586C163.432 134.113 189.453 131.527 210.297 130.134C222.355 129.338 238.167 128.514 243.371 128.429L246.271 128.4V157.818ZM311.252 128.685C333.035 129.594 351.719 130.93 372.819 133.119C386.214 134.483 405.921 136.956 406.234 137.268C406.291 137.325 406.348 195.933 406.404 267.529C406.433 365.53 406.376 398.472 406.12 400.831C404.983 411.632 403.219 419.192 399.949 427.492C387.579 458.785 358.828 480.187 315.659 490.164C310.711 491.3 302.322 492.892 302.152 492.722C302.095 492.665 301.952 434.597 301.839 363.654L301.64 234.701L337.727 234.644L373.815 234.559V210.968V187.377L337.784 187.292L301.725 187.235V157.818V128.4H303.09C303.829 128.4 307.498 128.543 311.252 128.685ZM138.862 269.576L138.947 401.684L139.573 406.004C142.502 426.184 150.322 442.954 163.29 456.881C178.845 473.593 199.662 484.991 227.445 492.039C253.779 498.719 283.781 499.6 310.256 494.455C320.778 492.409 336.192 487.804 344.922 484.11C360.079 477.714 372.393 469.671 382.488 459.524C393.096 448.922 400.148 437.297 404.897 422.575C406.859 416.549 407.627 412.882 408.879 404.1C409.305 401.144 409.334 388.78 409.419 269.291C409.504 139.343 409.533 137.78 410.073 137.78C410.841 137.78 424.178 139.855 433.108 141.361C441.525 142.782 455.374 145.511 461.346 146.904L465.242 147.841L465.328 301.75C465.356 386.421 465.356 458.018 465.328 460.831C465.242 468.733 464.304 473.451 461.574 479.846C456.085 492.579 446.132 502.328 430.804 509.946C421.619 514.522 415.476 516.398 378.08 526.033C348.875 533.565 336.248 537.118 321.745 541.893C302.976 548.117 285.97 556.019 276.899 562.812C275.505 563.835 274.311 564.688 274.226 564.688C274.14 564.688 273.173 564.005 272.036 563.153C262.822 556.246 247.807 549.084 229.209 542.774C214.933 537.914 201.311 534.02 171.906 526.459C133.572 516.568 126.065 514.294 116.879 509.69C107.893 505.199 99.8451 498.975 94.385 492.324C88.2425 484.82 84.4034 475.895 83.3227 466.487C83.1521 464.754 83.0384 412.087 83.0384 305.843V147.756L84.119 147.472C86.8206 146.761 97.4847 144.488 103.514 143.351C110.623 142.015 136.103 137.751 138.407 137.524C138.691 137.496 138.776 164.952 138.862 269.576Z" fill="none"/>
<path stroke="url(#colsihGradient)" stroke-width="2.5" stroke-linecap="round" stroke-linejoin="round" class="animated-stroke" d="M245.333 94.3217C242.518 94.9754 239.731 97.2492 238.536 99.8357C237.996 101.029 237.882 101.74 237.882 104.241C237.882 107.055 237.939 107.339 238.821 109.13C240.641 112.825 243.598 114.53 248.12 114.559C252.84 114.587 255.599 113.194 257.334 109.926C257.845 108.959 258.158 108.078 258.045 107.936C257.76 107.68 253.665 106.686 253.58 106.828C253.551 106.884 253.182 107.567 252.784 108.362C251.845 110.182 250.423 111.063 248.319 111.063C245.162 111.063 243.399 109.3 242.83 105.605C242.006 100.347 244.48 97.1071 248.973 97.4766C250.764 97.6187 251.76 98.2156 252.755 99.722L253.409 100.717L255.599 100.262C258.016 99.722 258.045 99.722 256.907 97.7608C256.025 96.2544 254.319 95.0038 252.442 94.4354C250.878 93.9806 247.068 93.9238 245.333 94.3217Z" fill="none"/>
<path stroke="url(#colsihGradient)" stroke-width="2.5" stroke-linecap="round" stroke-linejoin="round" class="animated-stroke" d="M261.969 104.014L262.054 114.047L264.415 114.132L266.747 114.218V104.099V94.009H264.329H261.912L261.969 104.014Z" fill="none"/>
<path stroke="url(#colsihGradient)" stroke-width="2.5" stroke-linecap="round" stroke-linejoin="round" class="animated-stroke" d="M276.444 97.5051C275.591 99.4094 273.572 103.843 271.951 107.339C270.33 110.864 269.022 113.82 269.022 113.962C269.022 114.36 273.799 114.246 274.055 113.848C274.169 113.649 274.624 112.654 275.022 111.631L275.79 109.784H280.539H285.316L286.17 111.972L287.023 114.189H289.696C291.175 114.189 292.312 114.104 292.255 113.962C292.198 113.848 290.122 109.329 287.648 103.872L283.127 94.0091H280.567L277.979 94.0375L276.444 97.5051ZM282.103 102.422L283.496 105.804L280.624 105.89C279.06 105.918 277.723 105.918 277.667 105.861C277.61 105.804 278.235 104.213 279.032 102.308C279.856 100.404 280.567 98.8978 280.596 98.9546C280.653 99.0115 281.335 100.575 282.103 102.422Z" fill="none"/>
<path stroke="url(#colsihGradient)" stroke-width="2.5" stroke-linecap="round" stroke-linejoin="round" class="animated-stroke" d="M228.754 99.3241C228.839 101.797 229.01 104.781 229.095 105.947C229.237 108.05 229.237 108.078 228.725 107.481C228.441 107.14 226.137 104.298 223.578 101.143L218.943 95.4302L216.753 95.6292C215.558 95.7144 214.506 95.8281 214.449 95.885C214.307 96.0271 215.502 115.383 215.672 115.525C215.729 115.61 216.724 115.553 217.833 115.44L219.909 115.241L219.71 111.802C219.17 101.939 219.17 102.621 219.682 103.246C219.909 103.559 222.184 106.344 224.715 109.471L229.294 115.099L231.597 114.9C232.877 114.786 233.929 114.672 233.986 114.615C234.1 114.502 233.247 98.5851 233.019 96.3397L232.877 94.8617H230.716H228.555L228.754 99.3241Z" fill="none"/>
<path stroke="url(#colsihGradient)" stroke-width="2.5" stroke-linecap="round" stroke-linejoin="round" class="animated-stroke" d="M312.133 101.655C311.877 110.665 311.65 111.347 309.062 111.347C307.356 111.347 306.446 110.551 306.133 108.846L305.962 107.709L304.341 107.822C301.298 108.078 301.355 108.078 301.554 109.556C301.839 111.716 302.777 113.081 304.597 113.99C307.839 115.61 312.219 115.241 314.522 113.166C316.228 111.603 316.484 110.437 316.911 102.337C317.11 98.4714 317.224 95.2028 317.167 95.0607C317.11 94.947 316.001 94.8617 314.693 94.8617H312.332L312.133 101.655Z" fill="none"/>
<path stroke="url(#colsihGradient)" stroke-width="2.5" stroke-linecap="round" stroke-linejoin="round" class="animated-stroke" d="M321.916 102.451C321.518 110.466 321.575 111.148 322.968 112.995C323.821 114.161 325.812 115.184 328.087 115.61C330.532 116.093 335.139 115.866 336.419 115.212C338.097 114.331 339.263 113.024 339.689 111.489C340.088 110.096 340.969 100.802 340.969 97.8745V96.3681L339.917 96.1691C339.32 96.0839 338.296 95.9986 337.642 95.9986C336.504 95.9986 336.476 96.027 336.305 97.0503C336.22 97.6471 336.078 99.523 335.993 101.257C335.708 106.487 335.31 109.897 334.883 110.722C334.286 111.858 333.177 112.342 331.187 112.342C328.883 112.313 327.404 111.603 326.807 110.238C326.437 109.329 326.437 108.391 326.75 102.451C326.949 98.7272 327.063 95.6291 326.978 95.5723C326.921 95.5154 325.84 95.3733 324.589 95.2596L322.286 95.0607L321.916 102.451Z" fill="none"/>
<path stroke="url(#colsihGradient)" stroke-width="2.5" stroke-linecap="round" stroke-linejoin="round" class="animated-stroke" d="M199.918 96.624C195.936 96.9366 192.609 97.2493 192.524 97.3061C192.41 97.4482 193.86 114.701 194.145 116.378C194.259 117.174 194.372 117.287 195.055 117.145C195.709 117.031 210.411 115.895 211.236 115.895C211.463 115.895 211.577 115.298 211.577 114.161V112.427L209.672 112.597C205.52 112.967 198.752 113.393 198.666 113.308C198.61 113.251 198.496 112.001 198.382 110.551L198.183 107.936L199.406 107.908C200.088 107.908 202.619 107.737 205.036 107.567L209.444 107.226L209.53 105.719C209.587 104.582 209.501 104.184 209.16 104.071C208.932 103.957 206.345 104.042 203.472 104.241C200.572 104.44 198.126 104.554 198.041 104.469C197.955 104.383 197.813 103.417 197.728 102.337L197.557 100.347L199.662 100.177C200.828 100.063 203.558 99.8357 205.719 99.6936C207.909 99.5231 209.729 99.3525 209.757 99.3241C209.814 99.2673 209.757 98.5283 209.672 97.6188L209.501 95.9987L208.335 96.0271C207.681 96.0555 203.899 96.3113 199.918 96.624Z" fill="none"/>
<path stroke="url(#colsihGradient)" stroke-width="2.5" stroke-linecap="round" stroke-linejoin="round" class="animated-stroke" d="M349.387 97.2776C346.941 98.1302 345.519 100.006 345.519 102.337C345.519 103.9 345.974 104.895 347.14 105.975C348.249 107.027 349.159 107.424 352.941 108.618C356.837 109.812 357.747 110.409 357.747 111.773C357.747 113.592 355.359 114.53 352.401 113.876C350.524 113.478 349.33 112.484 348.932 111.034L348.619 109.897L346.287 109.982L343.955 110.068L344.04 110.92C344.325 113.393 346.287 115.781 348.903 116.775C351.15 117.628 355.871 117.856 358.146 117.202C362.724 115.866 364.26 110.665 360.961 107.623C359.823 106.543 358.345 105.861 354.904 104.81C351.32 103.73 350.069 103.019 350.069 102.138C350.069 101.001 351.036 100.432 353.169 100.319C355.785 100.177 357.065 100.717 357.662 102.252C358.089 103.303 358.202 103.388 359.169 103.388C359.766 103.388 360.819 103.474 361.558 103.559C362.866 103.758 362.866 103.758 362.866 102.905C362.866 101.655 361.729 99.6651 360.421 98.6703C359.738 98.1587 358.458 97.5902 357.378 97.3344C355.103 96.7375 350.922 96.7375 349.387 97.2776Z" fill="none"/>
<path stroke="url(#colsihGradient)" stroke-width="2.5" stroke-linecap="round" stroke-linejoin="round" class="animated-stroke" d="M184.021 97.903L182.77 98.0167L182.94 99.2104C183.026 99.8642 183.509 104.355 184.021 109.187L184.959 117.969L187.234 117.799C188.457 117.685 189.538 117.543 189.595 117.486C189.68 117.429 189.396 114.445 188.998 110.864C188.628 107.311 188.144 102.877 187.945 101.029L187.604 97.704L186.438 97.7609C185.784 97.7893 184.703 97.8461 184.021 97.903Z" fill="none"/>
<path stroke="url(#colsihGradient)" stroke-width="2.5" stroke-linecap="round" stroke-linejoin="round" class="animated-stroke" d="M366.449 98.7272C366.364 98.983 366.279 99.722 366.279 100.404C366.279 101.797 366.25 101.797 370.488 102.138C371.909 102.252 372.82 102.451 372.82 102.65C372.82 102.82 372.393 106.515 371.881 110.835L370.943 118.737L371.824 118.85C372.279 118.936 373.331 119.078 374.156 119.163C375.919 119.362 375.663 120.243 376.687 110.494C377.114 106.515 377.54 103.161 377.625 103.047C377.711 102.962 379.246 103.019 381.038 103.218C383.256 103.445 384.28 103.474 384.365 103.275C384.422 103.104 384.507 102.337 384.536 101.541L384.621 100.12L376.659 99.2104C367.217 98.1588 366.677 98.1303 366.449 98.7272Z" fill="none"/>
<path stroke="url(#colsihGradient)" stroke-width="2.5" stroke-linecap="round" stroke-linejoin="round" class="animated-stroke" d="M168.807 99.1535C165.224 99.6936 162.039 101.854 160.674 104.668C159.678 106.714 159.564 110.068 160.361 112.711C161.441 116.321 164.598 118.964 168.579 119.589C171.736 120.101 175.717 119.078 177.935 117.202C178.874 116.406 180.182 113.99 180.352 112.796C180.438 112.143 180.324 112.086 178.447 111.745C177.367 111.546 176.314 111.375 176.144 111.375C175.973 111.347 175.689 111.83 175.518 112.455C174.58 115.553 171.224 117.003 168.153 115.639C166.674 114.957 165.565 113.336 165.053 111.148C164.114 107.112 164.882 104.639 167.47 103.303C170.086 101.996 172.589 102.365 174.21 104.326L175.063 105.35L177.253 104.753C178.447 104.412 179.442 104.071 179.442 103.957C179.442 103.843 179.016 103.104 178.532 102.365C176.798 99.7788 172.959 98.5282 168.807 99.1535Z" fill="none"/>
<path stroke="url(#colsihGradient)" stroke-width="2.5" stroke-linecap="round" stroke-linejoin="round" class="animated-stroke" d="M387.465 104.298C387.209 106.373 386.612 110.693 386.157 113.876C385.702 117.06 385.332 119.817 385.332 120.016C385.332 120.328 387.749 120.783 389.74 120.868C390.081 120.868 390.167 120.328 391.446 110.75C392.015 106.487 392.527 102.564 392.612 102.053C392.783 101.058 392.726 101.029 389.569 100.688L387.977 100.518L387.465 104.298Z" fill="none"/>
<path stroke="url(#colsihGradient)" stroke-width="2.5" stroke-linecap="round" stroke-linejoin="round" class="animated-stroke" d="M403.475 102.82C398.925 103.616 395.74 106.941 395.001 111.659C394.461 115.184 395.456 118.083 398.015 120.414C399.949 122.176 402.054 123 405.125 123.199C407.798 123.398 409.959 122.858 411.58 121.664C412.803 120.755 414.737 118.168 414.424 117.856C414.168 117.628 410.3 116.122 410.244 116.236C409.049 118.509 407.798 119.39 405.637 119.533C403.106 119.703 400.916 118.452 400.148 116.378C399.409 114.445 399.949 110.466 401.229 108.448C402.253 106.856 403.674 106.145 405.864 106.145C408.139 106.174 409.703 107.083 410.613 108.874L411.296 110.238L413.457 110.068C414.651 109.954 415.675 109.812 415.704 109.755C415.96 109.556 415.362 107.879 414.623 106.686C412.775 103.786 407.741 102.053 403.475 102.82Z" fill="none"/>
<path stroke="url(#colsihGradient)" stroke-width="2.5" stroke-linecap="round" stroke-linejoin="round" class="animated-stroke" d="M131.24 104.099C129.051 104.469 125.439 105.037 123.221 105.378L119.183 106.003L119.325 106.771C120.292 112.228 122.823 125.643 122.908 125.7C123.022 125.785 139.999 123 140.141 122.858C140.312 122.687 139.601 119.589 139.402 119.589C139.288 119.589 136.587 120.044 133.373 120.584C130.16 121.124 127.401 121.579 127.231 121.579C126.889 121.579 125.894 116.719 126.207 116.434C126.321 116.321 128.653 115.894 131.383 115.468C134.113 115.07 136.558 114.644 136.786 114.53C137.44 114.246 136.956 111.347 136.274 111.375C136.018 111.375 133.487 111.745 130.672 112.171C127.856 112.626 125.496 112.938 125.439 112.882C125.24 112.683 124.643 108.76 124.813 108.675C124.899 108.618 127.657 108.163 130.899 107.623L136.814 106.685L136.644 105.89C136.558 105.463 136.416 104.696 136.331 104.241C136.132 103.246 136.416 103.246 131.24 104.099Z" fill="none"/>
<path stroke="url(#colsihGradient)" stroke-width="2.5" stroke-linecap="round" stroke-linejoin="round" class="animated-stroke" d="M420.481 107.425C419.742 110.977 417.182 124.222 417.182 124.45C417.182 124.677 419.457 125.189 420.993 125.331L421.818 125.416L423.752 115.639C424.832 110.238 425.657 105.804 425.628 105.804C425.543 105.719 421.533 105.094 421.221 105.094C421.078 105.094 420.737 106.146 420.481 107.425Z" fill="none"/>
<path stroke="url(#colsihGradient)" stroke-width="2.5" stroke-linecap="round" stroke-linejoin="round" class="animated-stroke" d="M106.727 108.192C102.916 108.931 99.7313 109.613 99.646 109.727C99.4754 109.897 103.4 128.94 103.627 129.196C103.741 129.282 108.092 128.486 108.234 128.315C108.291 128.287 107.921 126.525 107.466 124.421C107.011 122.318 106.699 120.442 106.755 120.272C106.812 120.101 108.888 119.618 111.362 119.163C113.865 118.737 115.912 118.339 115.941 118.31C115.998 118.31 115.884 117.486 115.713 116.52C115.429 114.928 115.344 114.786 114.775 114.9C114.462 114.985 112.301 115.411 109.997 115.866L105.817 116.662L105.362 114.53C105.021 113.024 104.964 112.342 105.191 112.228C105.362 112.114 107.779 111.603 110.566 111.091C113.325 110.579 115.657 110.125 115.685 110.068C115.742 110.011 115.657 109.244 115.457 108.391C115.145 106.913 115.088 106.799 114.377 106.828C113.95 106.856 110.509 107.481 106.727 108.192Z" fill="none"/>
<path stroke="url(#colsihGradient)" stroke-width="2.5" stroke-linecap="round" stroke-linejoin="round" class="animated-stroke" d="M436.15 108.561C432.311 113.791 423.979 125.615 424.064 125.7C424.15 125.814 428.415 126.695 428.757 126.695C428.813 126.695 429.439 125.786 430.15 124.705C431.06 123.37 431.657 122.716 432.027 122.716C432.653 122.716 440.587 124.109 440.7 124.251C440.757 124.279 440.928 125.075 441.07 126.013C441.61 129.111 441.355 128.855 444.113 129.338C445.478 129.594 446.644 129.765 446.701 129.679C446.815 129.594 441.98 108.76 441.81 108.59C441.753 108.505 437.373 107.652 437.032 107.652C436.918 107.652 436.52 108.078 436.15 108.561ZM439.762 120.414C439.677 120.499 434.188 119.561 433.989 119.419C433.932 119.362 434.899 117.856 436.122 116.037L438.34 112.74L439.108 116.52C439.506 118.595 439.819 120.357 439.762 120.414Z" fill="none"/>
<path stroke="url(#colsihGradient)" stroke-width="2.5" stroke-linecap="round" stroke-linejoin="round" class="animated-stroke" d="M440.928 196.87C436.406 198.405 430.264 200.565 427.278 201.645L421.875 203.607V206.42V209.206L425.998 210.599C428.273 211.394 434.274 213.498 439.364 215.288C444.454 217.079 448.834 218.614 449.118 218.699C449.545 218.841 449.601 218.585 449.601 216.141V213.441L446.473 212.361L443.345 211.281L443.402 206.307L443.487 201.333L446.473 200.452L449.459 199.542L449.545 196.785C449.573 195.279 449.516 194.057 449.402 194.057C449.289 194.057 445.478 195.336 440.928 196.87ZM438.71 209.575C438.568 209.718 428.842 206.477 428.842 206.278C428.842 206.193 431.06 205.426 433.762 204.573L438.653 202.981L438.738 206.222C438.767 208.012 438.767 209.519 438.71 209.575Z" fill="none"/>
<path stroke="url(#colsihGradient)" stroke-width="2.5" stroke-linecap="round" stroke-linejoin="round" class="animated-stroke" d="M110.765 195.933C106.101 196.672 102.49 198.945 100.641 202.356C99.7029 204.061 99.6745 204.26 99.6745 207.131C99.6745 209.575 99.7882 210.343 100.272 211.423C101.039 213.1 102.632 214.862 104.168 215.743C105.39 216.454 108.547 217.562 108.718 217.335C108.775 217.278 109.087 216.226 109.4 215.004C109.969 212.958 109.969 212.759 109.542 212.617C106.158 211.537 104.594 209.916 104.424 207.415C104.225 204.516 105.845 202.583 109.315 201.589C111.306 200.992 115.173 200.935 117.505 201.418C123.448 202.669 125.155 209.007 120.32 211.878C119.467 212.389 118.699 212.844 118.557 212.872C118.443 212.929 118.614 213.952 118.955 215.175L119.552 217.42L120.406 217.25C121.856 216.965 124.103 215.743 125.268 214.606C125.866 214.038 126.69 212.844 127.088 211.991C127.743 210.599 127.828 210.03 127.828 207.415C127.828 204.744 127.743 204.26 127.032 202.839C125.638 199.997 122.567 197.609 118.87 196.501C117.306 196.018 112.386 195.677 110.765 195.933Z" fill="none"/>
<path stroke="url(#colsihGradient)" stroke-width="2.5" stroke-linecap="round" stroke-linejoin="round" class="animated-stroke" d="M109.031 222.309C105.305 223.161 102.092 225.634 100.499 228.874C99.7313 230.466 99.6745 230.807 99.6745 233.848C99.6745 236.804 99.7598 237.287 100.442 238.737C102.604 243.341 107.267 245.786 113.865 245.786C118.728 245.786 122.112 244.564 124.87 241.835C126.889 239.817 127.714 237.799 127.885 234.417C127.999 232.456 127.913 231.66 127.401 230.153C126.207 226.601 123.704 224.156 119.922 222.82C118.216 222.223 117.277 222.081 114.32 221.996C112.016 221.968 110.168 222.053 109.031 222.309ZM116.936 227.34C120.775 228.164 123.136 230.722 123.136 234.047C123.107 237.003 121.316 239.107 117.988 240.13C116.311 240.641 115.486 240.727 113.069 240.613C107.95 240.386 105.021 238.453 104.225 234.758C103.57 231.688 106.272 228.221 109.969 227.34C111.533 226.97 115.202 226.97 116.936 227.34Z" fill="none"/>
<path stroke="url(#colsihGradient)" stroke-width="2.5" stroke-linecap="round" stroke-linejoin="round" class="animated-stroke" d="M421.732 225.037V227.595H435.667H449.601V225.037V222.479H435.667H421.732V225.037Z" fill="none"/>
<path stroke="url(#colsihGradient)" stroke-width="2.5" stroke-linecap="round" stroke-linejoin="round" class="animated-stroke" d="M445.62 233.649C441.838 235.696 440.075 236.861 438.482 238.396C437.544 239.277 437.316 239.391 437.174 239.021C436.406 236.52 434.672 234.53 432.653 233.82C430.889 233.195 427.534 233.337 425.856 234.104C424.121 234.872 423.297 235.611 422.5 237.117C421.903 238.197 421.875 238.709 421.789 245.701L421.704 253.176H435.667H449.63L449.545 250.675L449.459 248.202L443.658 248.116L437.857 248.06L438.056 246.269C438.283 244.052 438.511 243.853 444.824 240.13L449.459 237.401L449.545 234.616C449.602 232.512 449.545 231.859 449.26 231.859C449.061 231.887 447.412 232.683 445.62 233.649ZM431.544 238.851C433.051 239.561 433.392 240.641 433.392 244.621V248.06H429.809H426.226L426.311 244.393C426.425 241.181 426.51 240.613 427.022 239.902C428.159 238.396 429.78 237.998 431.544 238.851Z" fill="none"/>
<path stroke="url(#colsihGradient)" stroke-width="2.5" stroke-linecap="round" stroke-linejoin="round" class="animated-stroke" d="M100.101 257.382C100.101 260.964 100.016 264.857 99.9304 266.051L99.7314 268.24H102.035H104.31L104.509 265.312C104.594 263.721 104.651 260.992 104.594 259.287L104.509 256.16L115.969 256.075L127.43 256.018L127.344 253.517L127.259 251.044L113.694 250.959L100.101 250.902V257.382Z" fill="none"/>
<path stroke="url(#colsihGradient)" stroke-width="2.5" stroke-linecap="round" stroke-linejoin="round" class="animated-stroke" d="M434.529 264.403V269.661H436.805H439.08V266.961V264.261H440.9C442.606 264.261 442.776 264.317 443.516 265.17C444.653 266.563 445.137 267.899 445.137 269.803C445.165 272.929 443.658 275.004 440.388 276.283C439.25 276.738 438.255 276.88 435.667 276.88C431.828 276.909 430.15 276.454 428.273 274.862C424.718 271.821 425.373 266.421 429.496 264.687C430.292 264.346 430.548 264.118 430.434 263.749C430.349 263.493 430.065 262.413 429.809 261.361C429.354 259.514 429.325 259.429 428.586 259.599C427.022 259.94 424.292 261.475 423.439 262.498C421.875 264.374 421.334 266.279 421.306 269.803C421.306 272.73 421.363 273.043 422.187 274.777C423.723 278.017 426.851 280.433 430.861 281.513C433.079 282.082 437.715 282.138 439.933 281.627C443.999 280.66 447.355 278.244 448.919 275.118C449.602 273.725 449.744 273.072 449.829 270.599C449.943 268.211 449.829 267.33 449.317 265.625C448.692 263.465 447.753 261.646 446.502 260.082L445.762 259.144H440.16H434.529V264.403Z" fill="none"/>
<path stroke="url(#colsihGradient)" stroke-width="2.5" stroke-linecap="round" stroke-linejoin="round" class="animated-stroke" d="M100.101 282.735V291.83H102.319H104.509V285.236V278.642H105.789C106.5 278.642 108.177 278.671 109.571 278.699L112.045 278.756V284.725V290.722L114.263 290.637L116.453 290.551L116.538 284.497L116.595 278.472H119.723H122.851V285.009V291.546H125.126H127.401V282.593V273.64H113.751H100.101V282.735Z" fill="none"/>
<path stroke="url(#colsihGradient)" stroke-width="2.5" stroke-linecap="round" stroke-linejoin="round" class="animated-stroke" d="M421.732 290.125V292.399L430.889 292.456L440.075 292.541L432.397 296.634C428.159 298.879 424.036 301.153 423.24 301.665L421.732 302.631V305.047V307.463H435.667H449.63L449.545 305.104L449.459 302.773L440.558 302.631L431.686 302.489L440.644 297.657L449.601 292.825V290.324V287.851H435.667H421.732V290.125Z" fill="none"/>
<path stroke="url(#colsihGradient)" stroke-width="2.5" stroke-linecap="round" stroke-linejoin="round" class="animated-stroke" d="M109.599 296.776C105.533 297.714 102.149 300.244 100.499 303.626C99.7313 305.218 99.6745 305.559 99.6745 308.6C99.6745 311.613 99.7598 312.039 100.613 314.142C101.096 315.393 102.006 317.041 102.604 317.837L103.684 319.258L109.144 319.344L114.604 319.4V314.142V308.884H112.329H110.054V311.584V314.284H108.206H106.357L105.504 312.778C103.542 309.339 103.77 306.326 106.158 304.109C108.007 302.432 110.196 301.693 113.467 301.693C118.045 301.665 121.117 303.057 122.51 305.758C123.05 306.809 123.164 307.378 123.079 309.055C122.993 310.76 122.851 311.243 122.169 312.153C121.714 312.749 120.974 313.432 120.519 313.687C118.813 314.625 118.842 314.483 119.382 316.984C119.951 319.571 119.894 319.571 122.624 318.349C124.643 317.468 126.548 315.506 127.288 313.574C127.714 312.465 127.828 311.414 127.828 308.884C127.828 305.928 127.743 305.445 127.06 303.995C125.496 300.67 122.794 298.339 119.183 297.202C116.737 296.435 111.988 296.236 109.599 296.776Z" fill="none"/>
<path stroke="url(#colsihGradient)" stroke-width="2.5" stroke-linecap="round" stroke-linejoin="round" class="animated-stroke" d="M421.732 316.245V318.804L431.913 318.889C441.468 318.974 442.122 319.002 443.032 319.543C444.682 320.509 445.194 321.475 445.194 323.522C445.194 325.483 444.767 326.336 443.231 327.472C442.492 328.041 442.037 328.069 432.084 328.155L421.732 328.24V330.798V333.356L432.34 333.271C444.454 333.157 444.852 333.1 447.27 330.883C449.26 329.121 449.943 327.273 449.971 323.664C450 320.111 449.402 318.32 447.611 316.558C446.786 315.705 445.649 314.966 444.596 314.54C442.947 313.886 442.72 313.858 432.34 313.773L421.732 313.687V316.245Z" fill="none"/>
<path stroke="url(#colsihGradient)" stroke-width="2.5" stroke-linecap="round" stroke-linejoin="round" class="animated-stroke" d="M99.8167 327.927V330.485H113.609H127.401V327.927V325.369H113.609H99.8167V327.927Z" fill="none"/>
<path stroke="url(#colsihGradient)" stroke-width="2.5" stroke-linecap="round" stroke-linejoin="round" class="animated-stroke" d="M110.339 335.488C108.547 335.829 105.959 336.88 104.452 337.847C102.461 339.126 101.381 340.348 100.414 342.423C99.7598 343.815 99.6745 344.327 99.6745 347.255C99.6745 350.211 99.7598 350.694 100.442 352.143C102.575 356.719 107.267 359.192 113.893 359.192C122.226 359.192 127.572 354.986 127.913 348.164C128.226 342.309 125.183 337.96 119.467 336.141C117.619 335.544 112.13 335.147 110.339 335.488ZM118.728 341.314C120.491 341.968 122.14 343.418 122.738 344.867C122.965 345.379 123.136 346.516 123.136 347.397C123.136 350.04 121.771 352.001 119.012 353.28C117.761 353.849 117.164 353.934 113.865 353.934C110.168 353.934 110.111 353.934 108.177 352.939C105.533 351.575 104.566 350.211 104.424 347.567C104.338 346.032 104.424 345.407 104.907 344.498C106.357 341.627 109.571 340.319 114.661 340.575C116.197 340.661 117.732 340.945 118.728 341.314Z" fill="none"/>
<path stroke="url(#colsihGradient)" stroke-width="2.5" stroke-linecap="round" stroke-linejoin="round" class="animated-stroke" d="M421.732 342.138V344.697H427.278H432.823V349.386V354.076H427.278H421.732V356.492V358.908H435.667H449.601V356.492V354.076L443.573 354.019L437.515 353.934L437.43 349.329L437.373 344.697L443.402 344.64L449.459 344.554L449.545 342.053L449.63 339.58H435.667H421.732V342.138Z" fill="none"/>
<path stroke="url(#colsihGradient)" stroke-width="2.5" stroke-linecap="round" stroke-linejoin="round" class="animated-stroke" d="M420.737 407.766C420.282 412.456 419.998 416.378 420.083 416.464C420.339 416.719 447.725 418.88 447.924 418.652C448.094 418.453 449.602 402.991 449.602 401.513C449.602 400.803 449.545 400.774 447.554 400.604C446.416 400.519 445.393 400.547 445.279 400.632C445.194 400.746 444.824 403.645 444.511 407.056C444.17 410.495 443.829 413.366 443.772 413.451C443.715 413.593 436.15 413.081 436.094 412.939C436.065 412.911 436.321 410.353 436.605 407.198C436.89 404.071 437.089 401.457 437.032 401.428C437.004 401.371 435.98 401.258 434.757 401.144L432.596 400.945L432.425 401.741C432.34 402.167 432.055 404.81 431.771 407.596L431.288 412.683L429.013 412.484C425.742 412.229 425.145 412.087 425.145 411.547C425.145 411.291 425.401 408.505 425.714 405.407C426.027 402.281 426.197 399.666 426.112 399.581C426.027 399.495 424.974 399.353 423.752 399.325L421.562 399.211L420.737 407.766Z" fill="none"/>
<path stroke="url(#colsihGradient)" stroke-width="2.5" stroke-linecap="round" stroke-linejoin="round" class="animated-stroke" d="M119.353 406.658C116.766 407.312 115.031 408.761 114.007 411.092C113.751 411.745 113.239 413.906 112.926 415.867C112.244 419.931 112.045 420.528 111.249 421.239C109.628 422.688 107.068 421.836 105.874 419.448C104.48 416.748 105.248 414.048 107.694 412.74C108.376 412.399 109.059 412.058 109.258 412.001C109.514 411.916 109.4 411.234 108.917 409.557C108.177 406.857 108.376 406.914 104.992 408.534C101.466 410.239 100.186 412.655 100.471 417.117C100.812 422.802 103.627 426.241 108.348 426.753C111.732 427.094 115.287 425.701 116.794 423.456C117.647 422.177 117.932 421.125 118.557 416.862C119.126 413.025 119.382 412.342 120.349 411.66C122.425 410.211 124.813 412.484 124.842 415.924C124.842 417.657 124.216 418.595 122.538 419.448C121.941 419.761 121.429 420.045 121.429 420.102C121.429 420.13 121.742 421.125 122.112 422.29C122.738 424.337 122.794 424.422 123.591 424.337C124.956 424.166 126.662 423.285 127.771 422.148C130.672 419.164 130.217 412.143 126.889 408.79C125.013 406.885 121.941 406.033 119.353 406.658Z" fill="none"/>
<path stroke="url(#colsihGradient)" stroke-width="2.5" stroke-linecap="round" stroke-linejoin="round" class="animated-stroke" d="M423.666 422.546C420.623 423.541 419.088 424.848 417.893 427.463C417.268 428.828 414.509 438.775 414.708 438.946C414.822 439.06 439.99 444.545 440.985 444.687C442.009 444.829 441.781 445.341 443.374 439.202C444.767 433.688 444.909 431.414 443.942 429.197C443.089 427.236 441.013 425.36 438.425 424.138C435.297 422.66 433.42 422.233 429.126 422.12C425.913 422.006 425.031 422.091 423.666 422.546ZM432.795 427.406C437.402 428.515 439.933 430.448 439.933 432.892C439.933 434.654 438.824 439.06 438.369 439.06C438.169 439.06 435.525 438.491 432.482 437.809C429.468 437.098 425.543 436.246 423.78 435.876L420.566 435.223L420.737 434.256C421.135 432.153 422.074 429.652 422.785 428.799C424.491 426.781 428.017 426.298 432.795 427.406Z" fill="none"/>
<path stroke="url(#colsihGradient)" stroke-width="2.5" stroke-linecap="round" stroke-linejoin="round" class="animated-stroke" d="M106.3 438.406C105.703 438.463 105.22 438.576 105.22 438.662C105.22 438.719 105.732 439.827 106.386 441.078L107.523 443.38L110.936 443.266L114.348 443.181L116.168 447.558C117.192 449.974 118.017 451.964 118.017 451.992C118.017 451.992 116.879 452.958 115.457 454.095L112.926 456.142L114.121 458.387C114.775 459.638 115.372 460.661 115.457 460.661C115.628 460.661 136.018 444.176 136.871 443.351C137.355 442.897 137.326 442.755 136.302 440.538L135.279 438.207L121.316 438.264C113.637 438.292 106.869 438.349 106.3 438.406ZM126.093 445.739C123.932 447.387 122.055 448.695 121.913 448.638C121.742 448.581 119.467 443.494 119.439 443.124C119.439 443.01 122.396 442.84 126.093 442.811L130.018 442.755L126.093 445.739Z" fill="none"/>
<path stroke="url(#colsihGradient)" stroke-width="2.5" stroke-linecap="round" stroke-linejoin="round" class="animated-stroke" d="M138.919 460.405C136.103 462.252 131.212 465.464 128.055 467.511C124.87 469.557 122.283 471.319 122.283 471.405C122.283 471.49 122.88 472.343 123.619 473.28C124.358 474.247 124.984 475.043 125.013 475.1C125.041 475.156 128.283 473.082 132.236 470.467C136.189 467.88 139.459 465.805 139.487 465.834C139.516 465.891 137.923 469.756 135.904 474.446C133.914 479.136 132.264 483.086 132.264 483.257C132.236 483.399 132.975 484.365 133.885 485.332L135.506 487.151L140.625 483.768C143.44 481.921 148.474 478.624 151.772 476.464C155.583 473.991 157.744 472.428 157.631 472.2C157.233 471.518 154.901 468.903 154.702 468.903C154.588 468.903 151.317 470.95 147.45 473.451C143.582 475.981 140.369 477.97 140.312 477.913C140.255 477.857 141.876 473.963 143.895 469.244C145.943 464.498 147.592 460.604 147.592 460.519C147.592 460.178 144.691 456.966 144.379 456.966C144.18 456.994 141.734 458.529 138.919 460.405Z" fill="none"/>
<path stroke="url(#colsihGradient)" stroke-width="2.5" stroke-linecap="round" stroke-linejoin="round" class="animated-stroke" d="M387.55 475.611L385.901 477.459L386.697 478.112C387.408 478.681 389.967 480.642 402.423 490.135L406.575 493.29L413.059 486.81C419.429 480.443 419.571 480.272 419.059 479.732C418.775 479.42 418.064 478.823 417.438 478.425L416.329 477.658L413.855 479.931C412.462 481.182 410.357 483.257 409.106 484.507C407.656 486.014 406.774 486.724 406.547 486.582C403.589 484.308 389.37 473.735 389.285 473.735C389.228 473.735 388.432 474.588 387.55 475.611Z" fill="none"/>
<path stroke="url(#colsihGradient)" stroke-width="2.5" stroke-linecap="round" stroke-linejoin="round" class="animated-stroke" d="M161.669 478.453C160.901 479.363 160.418 480.13 160.588 480.244C163.432 482.035 166.645 484.451 166.589 484.706C166.532 484.905 163.574 488.288 159.963 492.238C156.379 496.189 153.251 499.657 153.081 499.912C152.768 500.339 152.995 500.566 154.872 501.874C156.977 503.323 157.033 503.352 157.602 502.84C158.029 502.442 170.001 489.282 171.195 487.861C171.309 487.748 172.731 488.543 174.352 489.68C175.973 490.789 177.452 491.755 177.594 491.812C177.765 491.897 178.561 491.244 179.414 490.391L180.921 488.884L172.077 482.859C167.243 479.562 163.233 476.862 163.176 476.862C163.091 476.862 162.437 477.572 161.669 478.453Z" fill="none"/>
<path stroke="url(#colsihGradient)" stroke-width="2.5" stroke-linecap="round" stroke-linejoin="round" class="animated-stroke" d="M372.251 486.753C368.582 488.913 364.715 491.187 363.663 491.784C362.582 492.437 361.786 493.063 361.871 493.262C361.985 493.574 365.511 498.236 374.042 509.264C375.436 511.054 376.687 512.646 376.801 512.788C376.943 512.93 381.038 510.656 386.015 507.7L395.001 502.385L394.063 501.248C393.579 500.623 392.953 499.856 392.726 499.571C392.328 499.088 392.243 499.088 390.735 499.998C389.882 500.509 386.896 502.3 384.138 503.949L379.104 506.933L377.057 504.233C375.208 501.817 375.038 501.476 375.464 501.163C375.72 500.993 378.308 499.429 381.209 497.724C384.081 496.019 386.47 494.541 386.47 494.399C386.47 494.086 384.394 491.357 384.166 491.357C384.052 491.357 381.493 492.778 378.45 494.512C375.436 496.246 372.819 497.724 372.649 497.809C372.364 497.923 369.123 494.086 369.123 493.66C369.123 493.574 371.938 491.84 375.35 489.822L381.607 486.156L380.327 484.479C379.616 483.569 379.019 482.83 378.99 482.83C378.962 482.83 375.919 484.593 372.251 486.753Z" fill="none"/>
<path stroke="url(#colsihGradient)" stroke-width="2.5" stroke-linecap="round" stroke-linejoin="round" class="animated-stroke" d="M190.22 499.259C182.087 505.881 174.267 512.248 173.698 512.703C173.158 513.129 173.243 513.186 175.689 514.209C177.224 514.863 178.419 515.204 178.646 515.062C178.845 514.948 179.954 514.095 181.092 513.157L183.168 511.48L188.088 513.527C190.818 514.664 193.178 515.687 193.349 515.801C193.604 515.943 193.633 516.739 193.434 518.814C193.292 520.348 193.206 521.713 193.263 521.798C193.405 522.025 198.496 524.157 198.61 524.015C198.666 523.958 199.036 518.472 199.463 511.822C199.861 505.171 200.23 499.316 200.259 498.804C200.344 497.866 200.316 497.838 197.643 496.729C196.164 496.132 194.884 495.621 194.799 495.621C194.714 495.621 192.666 497.269 190.22 499.259ZM194.458 506.649C194.259 509.235 193.974 511.253 193.832 511.253C193.292 511.253 187.121 508.553 187.178 508.354C187.291 508.098 194.628 501.874 194.714 501.987C194.742 502.016 194.628 504.119 194.458 506.649Z" fill="none"/>
<path stroke="url(#colsihGradient)" stroke-width="2.5" stroke-linecap="round" stroke-linejoin="round" class="animated-stroke" d="M346.799 499.628C346.031 499.77 342.306 500.907 338.552 502.158C332.921 504.034 331.727 504.517 331.784 504.915C331.812 505.199 333.945 510.23 336.533 516.085C340.4 524.839 341.339 526.715 341.737 526.658C343.159 526.374 355.273 522.167 356.752 521.457C359.738 519.95 361.16 518.075 361.16 515.602C361.132 512.305 358.117 509.264 354.875 509.264C353.908 509.264 353.908 509.264 354.591 508.07C357.264 503.38 352.885 498.605 346.799 499.628ZM349.245 504.687C350.752 506.222 350.24 507.899 347.936 509.036C346.884 509.576 340.685 511.623 340.571 511.509C340.4 511.253 338.694 507.103 338.637 506.734C338.524 506.222 345.462 503.892 347.169 503.863C348.164 503.863 348.562 504.034 349.245 504.687ZM353.766 513.044C354.164 513.243 354.705 513.868 354.989 514.465C355.672 515.829 355.273 517.25 353.965 518.046C353.027 518.586 345.747 521.201 345.15 521.201C344.808 521.201 342.249 515.573 342.476 515.318C342.562 515.261 344.325 514.635 346.429 513.953C350.382 512.646 352.458 512.39 353.766 513.044Z" fill="none"/>
<path stroke="url(#colsihGradient)" stroke-width="2.5" stroke-linecap="round" stroke-linejoin="round" class="animated-stroke" d="M307.782 509.178C305.365 509.576 305.166 509.661 304.995 510.344C304.54 512.134 300.019 534.162 300.019 534.588C300.019 535.014 300.246 535.014 302.749 534.56C304.227 534.275 305.564 533.963 305.678 533.821C305.82 533.679 306.104 532.428 306.36 531.035C306.616 529.671 306.872 528.477 306.957 528.392C307.1 528.25 316.939 526.601 317.65 526.601C317.906 526.601 318.901 527.681 319.868 528.989L321.631 531.348L324.504 530.836C326.096 530.552 327.433 530.268 327.49 530.211C327.575 530.154 324.845 526.459 321.432 521.997C318.02 517.563 314.351 512.759 313.242 511.31C312.162 509.889 311.053 508.723 310.825 508.752C310.598 508.752 309.233 508.951 307.782 509.178ZM312.389 518.927L315.119 522.764L311.479 523.361C309.488 523.702 307.811 523.958 307.754 523.901C307.725 523.873 308.038 521.769 308.465 519.268C308.891 516.739 309.346 514.778 309.46 514.891C309.574 515.005 310.882 516.824 312.389 518.927Z" fill="none"/>
<path stroke="url(#colsihGradient)" stroke-width="2.5" stroke-linecap="round" stroke-linejoin="round" class="animated-stroke" d="M247.693 510.571C247.693 510.884 246.84 516.142 245.788 522.253C244.736 528.392 243.939 533.48 244.025 533.536C244.167 533.707 249.229 534.531 249.343 534.418C249.399 534.361 253.352 511.282 253.381 510.798C253.381 510.77 252.584 510.685 251.618 510.571C250.622 510.457 249.343 510.287 248.774 510.201C247.835 510.059 247.693 510.116 247.693 510.571Z" fill="none"/>
<path stroke="url(#colsihGradient)" stroke-width="2.5" stroke-linecap="round" stroke-linejoin="round" class="animated-stroke" d="M271.638 511.964C265.495 513.3 263.135 518.245 266.775 522.196C268.225 523.787 269.903 524.47 274.823 525.521C280.766 526.8 282.046 527.681 281.136 529.87C279.999 532.57 273.941 533.082 271.268 530.666C270.671 530.126 270.017 529.188 269.846 528.619L269.533 527.596L267.372 527.795C266.149 527.88 264.898 527.994 264.528 527.994C263.988 528.022 263.931 528.136 264.073 528.79C264.5 530.609 265.467 532.343 266.718 533.508C268.595 535.27 270.699 536.009 274.453 536.18C282.444 536.578 286.937 533.906 286.937 528.733C286.937 524.271 284.833 522.793 275.79 520.775C272.235 519.979 270.643 519.183 270.5 518.103C270.216 516.17 274.482 514.863 277.894 515.801C279.06 516.142 280.397 517.535 280.397 518.416C280.397 518.984 280.482 519.012 283.269 518.842C284.861 518.728 286.198 518.615 286.255 518.558C286.511 518.33 285.658 516.113 284.918 515.033C282.928 512.163 277.013 510.798 271.638 511.964Z" fill="none"/>
</g>
</svg>
