<svg width="537" height="562" viewBox="0 0 537 562" fill="none" xmlns="http://www.w3.org/2000/svg">
<path d="M53.3496 100.555C74.9339 95.0694 99.8738 90.2093 127.117 86.1448C154.304 82.0804 192.894 78.5846 226.365 77.1351L233.901 76.8226L235.892 75.2591C245.56 67.7555 253.126 58.4334 258.643 47.178C262.453 39.4471 264.387 32.9093 264.671 26.7132C264.927 21.7393 263.675 16.5668 260.974 11.3655C259.21 7.98325 255.229 4.0324 251.959 2.44073C250.622 1.81548 248.575 1.0199 247.381 0.735657C238.423 -1.53815 227.73 1.64443 223.862 7.72687C221.985 10.6828 221.73 13.4402 223.01 16.8509C223.806 18.9827 227.56 26.0031 230.546 30.9485L232.935 34.928L231.882 36.4339C225.256 46.0407 199.463 58.2053 172.333 64.4866C146.142 70.5406 115.713 71.4787 101.893 66.6185C90.9728 62.7814 83.1805 55.2499 77.749 43.3411C76.4409 40.4704 76.1566 40.0724 75.5879 40.1292C75.2139 40.13 63.3574 42.091 49.1982 44.4212C35.0362 46.7803 18.1721 49.5649 11.7451 50.6165L0 52.5784L1.08105 53.6585C2.67472 55.3365 20.0779 72.0485 34.6943 85.9466C41.8029 92.7103 48.2864 98.9336 49.084 99.7591L50.5625 101.266L53.3496 100.555ZM485.889 101.266C486.118 101.207 492.061 95.6085 499.141 88.7884C506.222 81.9954 517.54 71.1095 524.251 64.6575C530.989 58.1785 536.505 52.8075 536.564 52.72C536.593 52.6348 534.546 52.2089 532.015 51.7825C487.098 44.3667 461.904 40.2171 461.461 40.1575C461.091 40.1007 460.692 40.7262 459.726 43.0853C457.28 49.1391 454.038 53.9427 449.517 58.3196C445.82 61.9007 441.668 64.5723 437.118 66.2776C423.61 71.3653 395.314 70.7968 368.583 64.9134C339.747 58.5751 313.584 46.1829 306.73 35.6097L306.219 34.8138L307.641 32.6253C309.205 30.1809 312.305 24.5247 314.949 19.3519L316.655 16.0267V13.1273C316.655 10.4272 316.598 10.1144 315.773 8.52277C314.778 6.64696 312.532 4.34529 310.541 3.17999C308.806 2.1852 305.763 1.04794 303.46 0.564758C297.346 -0.685796 290.919 0.223709 286.142 3.00909C283.895 4.34496 280.198 8.1255 278.776 10.513C274.824 17.3059 273.714 24.4683 275.392 32.5687C278.463 47.5474 289.838 64.9421 303.232 75.1458L305.877 77.1634H308.579C313.584 77.1634 331.301 78.2151 345.235 79.3235C394.404 83.2174 437.601 89.8405 479.007 99.7884C482.59 100.641 485.69 101.323 485.889 101.266ZM459.441 141.854C459.953 141.996 460.323 141.569 461.973 138.954C463.622 136.311 477.926 114.056 482.675 106.666L484.268 104.194L478.381 102.773C431.259 91.3753 375.663 83.5584 321.489 80.7161C305.678 79.8919 299.791 79.7216 285.516 79.5511C277.61 79.4942 270.699 79.3803 270.159 79.3519C269.616 79.3235 262.195 79.3809 253.666 79.4661C192.525 80.2051 130.331 86.7706 78.2041 97.9407C68.7627 99.9588 52.4398 103.796 51.8711 104.137C51.6724 104.251 52.6673 106.098 54.5439 109.139C59.7186 117.465 74.8146 141.531 75.0479 141.768C75.1616 141.882 76.8396 141.598 78.8018 141.143C92.7932 137.789 123.534 132.531 144.322 129.888C176.997 125.767 208.734 123.294 241.579 122.327C254.348 121.958 292.682 122.128 304.569 122.612C331.699 123.749 358.573 125.993 388.318 129.603C408.822 132.104 434.501 136.368 451.734 140.119C455.659 140.972 459.129 141.769 459.441 141.854ZM255.799 111.128L255.713 101.095L255.656 91.0911H260.49V111.299L255.799 111.128ZM267.799 110.93C267.54 111.328 262.766 111.441 262.766 111.043C262.766 110.9 264.074 107.945 265.694 104.421C267.315 100.925 269.334 96.4906 270.188 94.5862L271.724 91.1194L274.312 91.0911H276.871L281.393 100.953C283.865 106.407 285.94 110.924 285.999 111.043C286.056 111.185 284.919 111.271 283.44 111.271H280.767L279.914 109.054L279.061 106.866H269.534L268.766 108.713C268.368 109.736 267.913 110.731 267.799 110.93ZM241.864 111.64C237.343 111.612 234.384 109.906 232.564 106.211C231.683 104.421 231.626 104.136 231.626 101.323C231.626 98.8216 231.74 98.111 232.28 96.9173C233.475 94.3308 236.262 92.0573 239.077 91.4036C240.812 91.0057 244.622 91.0622 246.187 91.5169C248.063 92.0853 249.77 93.3358 250.651 94.8421C251.789 96.8033 251.76 96.804 249.343 97.3441L247.153 97.7982L246.499 96.804C245.504 95.2976 244.508 94.7 242.717 94.5579C238.224 94.1886 235.75 97.4289 236.574 102.687C237.143 106.382 238.906 108.144 242.062 108.144C244.167 108.144 245.589 107.263 246.527 105.444C246.925 104.648 247.296 103.967 247.324 103.909C247.41 103.767 251.505 104.762 251.789 105.018C251.902 105.161 251.59 106.042 251.078 107.007C249.343 110.276 246.585 111.668 241.864 111.64ZM211.577 112.522C210.468 112.635 209.473 112.692 209.416 112.607C209.245 112.456 208.051 93.1082 208.193 92.9661C208.252 92.9092 209.304 92.7955 210.497 92.7103L212.687 92.512L217.322 98.2249C219.882 101.38 222.185 104.222 222.47 104.563C222.981 105.16 222.981 105.131 222.839 103.029C222.754 101.863 222.583 98.8783 222.498 96.4056L222.299 91.9437H226.621L226.764 93.4212C226.991 95.6645 227.842 111.553 227.73 111.697C227.674 111.753 226.621 111.868 225.342 111.982L223.038 112.18L218.46 106.553C215.929 103.427 213.654 100.642 213.426 100.328C212.914 99.7031 212.914 99.0206 213.454 108.883L213.653 112.323L211.577 112.522ZM308.267 110.247C305.963 112.322 301.584 112.692 298.342 111.072C296.522 110.162 295.583 108.798 295.299 106.638C295.1 105.16 295.043 105.159 298.085 104.904L299.706 104.79L299.877 105.927C300.19 107.632 301.1 108.428 302.806 108.428C305.393 108.428 305.621 107.746 305.877 98.7366L306.076 91.9437H308.437C309.744 91.9437 310.853 92.0283 310.911 92.1419C310.968 92.284 310.854 95.5529 310.655 99.4183C310.229 107.518 309.973 108.684 308.267 110.247ZM330.163 112.294C328.883 112.948 324.277 113.175 321.831 112.692C319.556 112.265 317.565 111.242 316.712 110.076C315.319 108.229 315.262 107.547 315.66 99.5325L316.029 92.1419L318.333 92.3411C319.583 92.4547 320.662 92.5966 320.722 92.6536C320.807 92.7105 320.693 95.8092 320.494 99.5325C320.181 105.472 320.182 106.41 320.552 107.32C321.149 108.684 322.627 109.395 324.931 109.423C326.921 109.423 328.031 108.94 328.628 107.803C329.054 106.978 329.452 103.568 329.736 98.3382C329.822 96.6047 329.964 94.7293 330.05 94.1321C330.22 93.109 330.249 93.0804 331.386 93.0804C332.04 93.0804 333.064 93.165 333.661 93.2503L334.713 93.4495V94.9564C334.713 97.8842 333.832 107.178 333.434 108.571C333.007 110.105 331.841 111.413 330.163 112.294ZM188.799 114.227C188.116 114.369 188.002 114.255 187.889 113.459C187.604 111.783 186.156 94.556 186.268 94.388C186.353 94.3312 189.681 94.018 193.662 93.7054C197.643 93.3928 201.424 93.1372 202.079 93.1087L203.245 93.0804L203.416 94.7005C203.501 95.61 203.558 96.3487 203.501 96.4056C203.469 96.4342 201.651 96.6053 199.463 96.7757C197.302 96.9178 194.572 97.1444 193.406 97.2581L191.302 97.429L191.472 99.4183C191.557 100.498 191.7 101.465 191.785 101.55C191.871 101.635 194.317 101.521 197.217 101.323C200.089 101.124 202.677 101.039 202.904 101.153C203.245 101.266 203.33 101.664 203.273 102.801L203.188 104.307L198.78 104.649C196.364 104.819 193.834 104.989 193.15 104.99L191.927 105.018L192.126 107.633C192.24 109.082 192.353 110.332 192.41 110.39C192.495 110.475 199.264 110.049 203.416 109.679L205.321 109.508V111.242C205.321 112.379 205.208 112.975 204.98 112.976C204.156 112.976 189.453 114.113 188.799 114.227ZM351.89 114.284C349.615 114.937 344.894 114.709 342.647 113.857C340.031 112.862 338.069 110.475 337.784 108.002L337.699 107.15L342.363 106.979L342.676 108.116C343.074 109.565 344.269 110.56 346.146 110.958C349.103 111.612 351.491 110.674 351.491 108.855C351.491 107.491 350.582 106.893 346.686 105.7C342.904 104.506 341.994 104.108 340.885 103.057C339.719 101.977 339.264 100.982 339.264 99.4183C339.264 97.0877 340.685 95.2124 343.131 94.3597C344.667 93.8197 348.847 93.8194 351.122 94.4163C352.203 94.6722 353.483 95.2407 354.165 95.7523C355.473 96.7471 356.61 98.7361 356.61 99.9866C356.61 100.839 356.61 100.84 355.303 100.641C354.563 100.556 353.51 100.47 352.913 100.47C351.947 100.47 351.833 100.385 351.406 99.3333C350.809 97.7985 349.529 97.2586 346.913 97.4007C344.781 97.5144 343.814 98.0824 343.813 99.2191C343.813 100.1 345.065 100.811 348.647 101.891C352.088 102.943 353.568 103.625 354.705 104.705C358.004 107.747 356.468 112.948 351.89 114.284ZM177.765 106.268C177.253 101.437 176.77 96.947 176.685 96.2923L176.514 95.098L177.765 94.9847C178.447 94.9278 179.529 94.8705 180.183 94.8421L181.349 94.7855L181.689 98.1107C181.889 99.9581 182.372 104.393 182.742 107.946C183.14 111.526 183.424 114.51 183.339 114.568C183.282 114.625 182.201 114.766 180.979 114.88L178.703 115.051L177.765 106.268ZM370.432 107.576C369.408 117.324 369.663 116.443 367.9 116.244C367.076 116.159 366.023 116.017 365.568 115.932L364.687 115.819L365.625 107.917C366.137 103.597 366.563 99.9013 366.563 99.7308C366.562 99.5319 365.652 99.3336 364.231 99.22C359.994 98.879 360.022 98.8783 360.022 97.4857C360.022 96.8036 360.108 96.0648 360.193 95.8089C360.421 95.212 360.961 95.2407 370.402 96.2923L378.365 97.2015L378.28 98.6224C378.252 99.4182 378.166 100.186 378.109 100.357C378.023 100.555 376.999 100.526 374.782 100.299C372.991 100.1 371.454 100.044 371.369 100.129C371.283 100.248 370.858 103.6 370.432 107.576ZM271.411 102.943C271.469 102.999 272.805 102.999 274.368 102.971L277.24 102.886L275.847 99.5042C275.079 97.6578 274.397 96.095 274.34 96.0364C274.311 95.9796 273.6 97.4856 272.775 99.39C271.979 101.294 271.354 102.886 271.411 102.943ZM171.68 114.284C169.462 116.159 165.48 117.183 162.323 116.671C158.342 116.046 155.185 113.402 154.104 109.792C153.308 107.149 153.423 103.796 154.418 101.749C155.783 98.9355 158.968 96.7747 162.551 96.2347C166.703 95.6094 170.542 96.8604 172.276 99.4466C172.76 100.185 173.186 100.924 173.187 101.038C173.187 101.152 172.191 101.493 170.997 101.834L168.808 102.431L167.954 101.409C166.333 99.4473 163.83 99.0776 161.214 100.385C158.626 101.721 157.858 104.194 158.797 108.23C159.309 110.418 160.418 112.038 161.896 112.72C164.968 114.084 168.324 112.635 169.263 109.537C169.433 108.912 169.717 108.429 169.888 108.457C170.058 108.457 171.111 108.628 172.191 108.826C174.068 109.168 174.182 109.225 174.097 109.878C173.926 111.072 172.618 113.488 171.68 114.284ZM383.484 117.951C381.494 117.865 379.076 117.41 379.076 117.097C379.077 116.895 379.447 114.14 379.901 110.958C380.356 107.775 380.953 103.454 381.209 101.379L381.721 97.5999L383.313 97.7698C386.47 98.1109 386.527 98.1395 386.356 99.1341C386.271 99.6457 385.759 103.568 385.19 107.831C383.911 117.407 383.825 117.95 383.484 117.951ZM405.324 118.745C403.703 119.939 401.542 120.479 398.869 120.281C395.798 120.082 393.693 119.257 391.76 117.495C389.2 115.165 388.205 112.266 388.745 108.742C389.484 104.023 392.67 100.698 397.22 99.9017C401.485 99.1344 406.519 100.868 408.367 103.767C409.106 104.961 409.704 106.638 409.448 106.837C409.418 106.894 408.395 107.036 407.201 107.15L405.04 107.32L404.357 105.955C403.447 104.165 401.883 103.255 399.608 103.227C397.419 103.227 395.996 103.938 394.973 105.53C393.693 107.548 393.153 111.527 393.893 113.459C394.66 115.534 396.85 116.785 399.381 116.615C401.542 116.472 402.793 115.591 403.987 113.317C404.048 113.205 407.91 114.709 408.168 114.937C408.481 115.249 406.547 117.836 405.324 118.745ZM116.652 122.782C116.565 122.712 114.036 109.308 113.069 103.853L112.927 103.085L116.965 102.459C119.183 102.118 122.795 101.55 124.984 101.181C130.16 100.328 129.876 100.328 130.075 101.323C130.16 101.777 130.302 102.545 130.388 102.971L130.559 103.767L124.644 104.705C121.402 105.245 118.643 105.7 118.558 105.757C118.387 105.845 118.985 109.764 119.184 109.963C119.244 110.019 121.603 109.707 124.416 109.252C127.23 108.826 129.759 108.458 130.018 108.457C130.7 108.429 131.184 111.326 130.53 111.612C130.303 111.725 127.857 112.152 125.127 112.55C122.398 112.976 120.067 113.402 119.951 113.516C119.638 113.8 120.633 118.658 120.975 118.66C121.145 118.66 123.904 118.205 127.117 117.665C130.331 117.125 133.033 116.671 133.146 116.671C133.346 116.674 134.056 119.769 133.886 119.94C133.744 120.082 116.766 122.867 116.652 122.782ZM414.737 122.412C413.202 122.27 410.928 121.759 410.927 121.532C410.927 121.304 413.486 108.059 414.226 104.506C414.482 103.227 414.823 102.175 414.965 102.175C415.279 102.175 419.288 102.801 419.373 102.886C419.396 102.915 418.573 107.337 417.496 112.72L415.562 122.497L414.737 122.412ZM97.3711 126.278C97.1408 126.007 93.2201 106.978 93.3906 106.808C93.4848 106.693 96.6665 106.012 100.472 105.274C104.254 104.563 107.695 103.938 108.121 103.909C108.832 103.881 108.888 103.995 109.201 105.473C109.4 106.326 109.486 107.093 109.429 107.15C109.39 107.208 107.063 107.662 104.311 108.172C101.524 108.684 99.1062 109.196 98.9355 109.31C98.7082 109.424 98.7653 110.106 99.1064 111.612L99.5615 113.743L103.741 112.948C106.045 112.493 108.207 112.067 108.52 111.982C109.088 111.868 109.174 112.01 109.458 113.601C109.629 114.567 109.741 115.392 109.685 115.392C109.647 115.422 107.603 115.819 105.106 116.244C102.634 116.699 100.56 117.182 100.5 117.353C100.443 117.523 100.756 119.4 101.211 121.503C101.666 123.605 102.035 125.367 101.979 125.397C101.836 125.567 97.4848 126.363 97.3711 126.278ZM440.445 126.761C440.388 126.846 439.222 126.676 437.857 126.42C435.099 125.937 435.355 126.192 434.814 123.094C434.672 122.156 434.501 121.361 434.444 121.332C434.325 121.189 426.4 119.798 425.771 119.797C425.402 119.797 424.805 120.452 423.895 121.787C423.184 122.866 422.559 123.774 422.501 123.777C422.16 123.777 417.894 122.895 417.809 122.782C417.734 122.682 426.058 110.869 429.895 105.643C430.264 105.16 430.663 104.734 430.776 104.734C431.119 104.734 435.491 105.585 435.554 105.671C435.724 105.842 440.555 126.657 440.445 126.761ZM433.506 117.495C433.563 117.439 433.251 115.676 432.853 113.601L432.084 109.822L429.866 113.118C428.644 114.937 427.677 116.442 427.733 116.5C427.932 116.642 433.41 117.579 433.506 117.495ZM268.737 491.679C278.406 491.679 283.355 491.423 291.146 490.514L292.625 490.343V228.657H364.573V187.444H292.625V156.492C292.625 139.455 292.54 125.481 292.427 125.397C292.114 125.198 259.865 124.999 250.765 125.113L243.144 125.198V187.444H171.196V228.657H243.144L243.286 490.286L246.271 490.627C254.092 491.48 258.87 491.707 268.737 491.679ZM240.157 487.103C240.271 485.567 240.3 468.201 240.215 448.505C240.101 428.808 240.016 371.992 240.016 322.252V231.783L168.21 231.641L168.125 207.964L168.067 184.317H240.016V125.482L237.115 125.51C231.911 125.595 216.1 126.42 204.042 127.216C201.436 127.39 198.75 127.582 196.008 127.791C193.266 128 190.469 128.226 187.642 128.464C170.68 129.895 152.648 131.813 139.062 133.667L135.507 134.151V264.611C135.507 401.039 135.478 396.264 136.673 404.592C138.059 414.158 141.444 424.624 145.916 433.178C146.214 433.748 146.518 434.31 146.825 434.863C147.319 435.751 147.821 436.619 148.335 437.471C148.849 438.323 149.374 439.16 149.914 439.984C153.152 444.928 156.906 449.437 161.812 454.361C166.845 459.391 170.713 462.688 175.689 466.156C180.01 469.145 184.836 471.967 190.117 474.585C190.739 474.893 191.366 475.199 192 475.501C196.119 477.467 200.501 479.312 205.122 481.021C214.251 484.403 226.65 487.586 239.077 489.718L239.959 489.888L240.157 487.103ZM295.896 489.803C296.066 489.974 304.455 488.382 309.403 487.245C330.988 482.257 348.968 474.412 363.098 463.903C363.981 463.246 364.849 462.579 365.702 461.902C369.541 458.852 373.073 455.593 376.295 452.128C377.011 451.358 377.711 450.579 378.396 449.788C383.535 443.862 387.805 437.368 391.183 430.325C391.633 429.385 392.067 428.436 392.485 427.478C392.904 426.519 393.307 425.551 393.693 424.574C395.533 419.905 396.896 415.47 397.938 410.561C398.054 410.016 398.166 409.464 398.274 408.907C398.923 405.558 399.438 401.963 399.864 397.912C400.12 395.55 400.177 362.606 400.148 264.611C400.092 193.014 400.034 134.407 399.978 134.35C399.777 134.154 392.007 133.115 382.939 132.031C380.218 131.705 377.38 131.375 374.594 131.063C371.808 130.751 369.075 130.456 366.563 130.201C356.013 129.106 346.067 128.224 336.035 127.503C333.527 127.323 331.014 127.153 328.485 126.992C320.898 126.508 313.165 126.107 304.996 125.766C301.242 125.624 297.573 125.482 296.834 125.482H295.469V184.317L367.559 184.459V231.641L295.384 231.783L295.583 360.736C295.697 431.634 295.839 489.674 295.896 489.803ZM267.97 561.769C268.055 561.769 269.249 560.916 270.643 559.893C279.714 553.1 296.72 545.198 315.489 538.974C329.992 534.199 342.619 530.646 371.824 523.115C409.219 513.479 415.363 511.604 424.548 507.028C439.876 499.41 449.83 489.661 455.318 476.928C458.048 470.533 458.986 465.815 459.071 457.913C459.1 455.1 459.1 383.502 459.071 298.831L458.986 144.923L455.091 143.985C449.119 142.592 435.269 139.864 426.852 138.443C417.923 136.936 404.588 134.862 403.817 134.862C403.277 134.862 403.248 136.425 403.163 266.373C403.078 385.855 403.05 398.224 402.623 401.181C401.372 409.964 400.604 413.631 398.642 419.657C393.892 434.379 386.84 446.004 376.232 456.606C366.137 466.753 353.823 474.796 338.666 481.191C329.936 484.886 314.522 489.491 304 491.537C277.525 496.682 247.523 495.801 221.189 489.121C193.406 482.073 172.59 470.675 157.034 453.962C144.067 440.035 136.246 423.266 133.316 403.086L132.691 398.766L132.605 266.658C132.52 162.094 132.435 134.609 132.151 134.606C129.848 134.833 104.368 139.096 97.2578 140.432C91.229 141.569 80.565 143.843 77.8633 144.554L76.7822 144.838V302.924C76.7822 409.158 76.8958 461.825 77.0664 463.569C78.147 472.977 81.9863 481.902 88.1289 489.406C93.5889 496.056 101.637 502.281 110.623 506.772C119.808 511.376 127.317 513.649 165.65 523.54C195.055 531.101 208.677 534.996 222.953 539.856C241.551 546.166 256.567 553.328 265.78 560.235C266.918 561.087 267.884 561.769 267.97 561.769ZM443.346 213.223C443.346 215.667 443.289 215.923 442.862 215.781C442.578 215.695 438.199 214.161 433.108 212.37C428.018 210.58 422.017 208.476 419.742 207.68L415.619 206.287V200.688L421.022 198.727C424.009 197.647 430.151 195.487 434.672 193.952C439.221 192.418 443.031 191.139 443.146 191.138C443.26 191.138 443.317 192.36 443.289 193.867L443.203 196.624L440.218 197.534L437.231 198.414L437.146 203.388L437.089 208.363L443.346 210.523V213.223ZM112.699 212.256C112.358 211.034 112.188 210.011 112.302 209.954C112.445 209.925 113.212 209.47 114.064 208.959C118.899 206.089 117.193 199.75 111.249 198.499C108.917 198.016 105.049 198.073 103.059 198.67C99.5894 199.665 97.9689 201.598 98.168 204.497C98.3388 206.998 99.9024 208.619 103.286 209.699C103.713 209.841 103.713 210.039 103.145 212.085C102.832 213.307 102.519 214.358 102.462 214.416C102.291 214.644 99.135 213.535 97.9121 212.825C96.3765 211.943 94.7834 210.181 94.0156 208.504C93.5323 207.424 93.4189 206.656 93.4189 204.212C93.4189 201.342 93.4473 201.143 94.3857 199.438C96.2342 196.027 99.846 193.753 104.51 193.014C106.131 192.758 111.05 193.099 112.614 193.582C116.311 194.691 119.382 197.079 120.775 199.921C121.486 201.342 121.572 201.826 121.572 204.497C121.572 207.112 121.487 207.68 120.833 209.073C120.435 209.925 119.61 211.119 119.013 211.688C117.847 212.825 115.6 214.047 114.149 214.331L113.297 214.501L112.699 212.256ZM432.454 206.657C432.511 206.595 432.511 205.09 432.482 203.303L432.397 200.063L427.506 201.655C424.808 202.506 422.592 203.273 422.586 203.36C422.586 203.559 432.312 206.799 432.454 206.657ZM107.609 242.867C101.012 242.867 96.3478 240.423 94.1865 235.819C93.504 234.369 93.4189 233.886 93.4189 230.93C93.4189 227.889 93.4755 227.548 94.2432 225.956C95.8357 222.716 99.0491 220.243 102.774 219.39C103.912 219.134 105.761 219.049 108.064 219.077C111.021 219.163 111.96 219.305 113.666 219.902C117.448 221.237 119.951 223.682 121.146 227.235C121.657 228.741 121.743 229.537 121.629 231.498C121.458 234.881 120.633 236.898 118.614 238.916C115.856 241.645 112.472 242.867 107.609 242.867ZM415.477 224.677V219.561H443.346V224.677H415.477ZM106.812 237.695C109.23 237.808 110.055 237.723 111.732 237.211C115.06 236.188 116.851 234.085 116.88 231.129C116.88 227.804 114.52 225.246 110.681 224.421C108.946 224.052 105.277 224.052 103.713 224.421C100.016 225.302 97.3149 228.77 97.9688 231.839C98.765 235.534 101.694 237.467 106.812 237.695ZM415.448 250.257L415.533 242.783C415.619 235.791 415.647 235.279 416.244 234.199C417.04 232.692 417.866 231.953 419.601 231.186C421.278 230.419 424.633 230.276 426.396 230.902C428.416 231.612 430.15 233.602 430.918 236.103C431.06 236.472 431.288 236.359 432.227 235.478C433.819 233.943 435.582 232.777 439.364 230.731C441.156 229.764 442.806 228.969 443.005 228.941C443.289 228.941 443.346 229.596 443.289 231.698L443.203 234.483L438.568 237.211C432.255 240.935 432.027 241.134 431.8 243.351L431.601 245.141L437.402 245.199L443.203 245.284L443.374 250.257H415.448ZM427.136 245.141V241.702C427.136 237.723 426.795 236.643 425.288 235.932C423.525 235.079 421.903 235.477 420.766 236.984C420.254 237.694 420.168 238.263 420.055 241.475L419.97 245.141H427.136ZM93.4756 265.322L93.6748 263.133C93.7601 261.939 93.8447 258.045 93.8447 254.464V247.984L107.438 248.04L121.003 248.125L121.174 253.1L109.714 253.157L98.2529 253.242L98.3379 256.368C98.3948 258.074 98.3382 260.802 98.2529 262.394L98.0537 265.322H93.4756ZM433.677 278.708C431.459 279.22 426.824 279.163 424.605 278.595C420.596 277.515 417.467 275.099 415.932 271.859C415.107 270.125 415.05 269.812 415.05 266.884C415.078 263.36 415.619 261.456 417.183 259.58C418.036 258.557 420.766 257.022 422.33 256.681C423.069 256.51 423.098 256.596 423.553 258.443C423.809 259.494 424.093 260.574 424.179 260.83C424.292 261.2 424.036 261.428 423.24 261.769C419.117 263.503 418.463 268.902 422.018 271.944C423.894 273.535 425.572 273.991 429.411 273.962C431.999 273.962 432.994 273.819 434.132 273.365C437.402 272.086 438.909 270.011 438.881 266.884C438.881 264.98 438.397 263.644 437.26 262.251C436.521 261.399 436.35 261.342 434.644 261.342H432.823V266.742H428.273V256.226H439.507L440.246 257.164C441.497 258.728 442.436 260.546 443.062 262.706C443.573 264.412 443.687 265.293 443.573 267.68C443.488 270.153 443.346 270.807 442.663 272.2C441.099 275.326 437.743 277.742 433.677 278.708ZM93.8447 288.912V270.722H121.146V288.628H116.596V275.553H110.339L110.282 281.579L110.197 287.633L105.789 287.804V275.837L103.315 275.781C101.922 275.752 100.244 275.724 99.5332 275.724H98.2529V288.912H93.8447ZM415.477 304.544V299.712L416.983 298.746C417.78 298.235 421.903 295.961 426.141 293.715L433.819 289.622L424.634 289.537L415.477 289.481V284.933H443.346V289.907L425.43 299.571L443.203 299.855L443.374 304.544H415.477ZM102.889 316.425L97.4287 316.34L96.3477 314.919C95.7505 314.123 94.8409 312.475 94.3574 311.224C93.5043 309.121 93.4189 308.694 93.4189 305.681C93.419 302.64 93.4754 302.299 94.2432 300.707C95.8926 297.325 99.2772 294.796 103.344 293.858C105.733 293.318 110.481 293.516 112.927 294.284C116.538 295.42 119.241 297.751 120.805 301.076C121.487 302.526 121.572 303.01 121.572 305.966C121.572 308.495 121.458 309.547 121.031 310.656C120.292 312.588 118.387 314.549 116.368 315.43C113.638 316.652 113.695 316.652 113.126 314.066C112.586 311.565 112.557 311.707 114.264 310.769C114.719 310.513 115.458 309.831 115.913 309.235C116.596 308.325 116.738 307.841 116.823 306.136C116.909 304.459 116.794 303.891 116.254 302.839C114.86 300.139 111.789 298.746 107.211 298.775C103.941 298.775 101.751 299.514 99.9023 301.191C97.5136 303.408 97.2859 306.421 99.248 309.86L100.102 311.366H103.799V305.966H108.349V316.482L102.889 316.425ZM415.477 325.322L425.828 325.237C435.781 325.151 436.236 325.122 436.976 324.554C438.511 323.417 438.938 322.564 438.938 320.603C438.937 318.557 438.426 317.591 436.776 316.624C435.866 316.084 435.212 316.055 425.657 315.97L415.477 315.885V310.769L426.084 310.855C436.464 310.94 436.691 310.968 438.341 311.621C439.393 312.048 440.531 312.787 441.355 313.64C443.147 315.402 443.744 317.193 443.716 320.745C443.687 324.355 443.004 326.203 441.014 327.965C438.597 330.182 438.198 330.238 426.084 330.352L415.477 330.438V325.322ZM93.5605 327.567V322.451H121.146V327.567H93.5605ZM107.638 356.274C101.012 356.274 96.3194 353.801 94.1865 349.225C93.504 347.775 93.4189 347.292 93.4189 344.336C93.4189 341.409 93.5041 340.897 94.1582 339.504C95.1251 337.429 96.2057 336.207 98.1963 334.928C99.7035 333.962 102.292 332.911 104.083 332.57C105.875 332.229 111.362 332.626 113.211 333.223C118.927 335.042 121.97 339.391 121.657 345.245C121.316 352.067 115.97 356.274 107.638 356.274ZM415.477 355.99V351.158H426.567V341.779H415.477V336.662H443.374L443.203 341.636L437.146 341.721L431.117 341.779L431.174 346.411L431.26 351.016L437.316 351.101L443.346 351.158V355.99H415.477ZM107.609 351.016C110.908 351.016 111.505 350.93 112.756 350.362C115.514 349.083 116.88 347.121 116.88 344.478C116.88 343.597 116.709 342.46 116.481 341.949C115.884 340.499 114.235 339.049 112.472 338.396C111.476 338.026 109.941 337.742 108.405 337.657C103.315 337.401 100.102 338.709 98.6514 341.579C98.168 342.489 98.0827 343.114 98.168 344.649C98.3102 347.292 99.2772 348.657 101.922 350.021C103.855 351.015 103.913 351.016 107.609 351.016ZM441.668 415.734C441.469 415.961 414.083 413.801 413.827 413.545C413.742 413.458 414.027 409.537 414.481 404.848L415.306 396.292L417.496 396.407C418.719 396.435 419.771 396.577 419.856 396.662C419.941 396.753 419.77 399.366 419.458 402.489C419.145 405.587 418.89 408.372 418.89 408.628C418.89 409.168 419.487 409.31 422.757 409.566L425.031 409.765L425.516 404.677C425.8 401.892 426.084 399.25 426.169 398.823L426.34 398.027L428.501 398.226C429.724 398.34 430.748 398.453 430.776 398.51C430.832 398.548 430.633 401.159 430.35 404.28C430.065 407.434 429.809 409.992 429.838 410.021C429.895 410.163 437.454 410.674 437.516 410.533C437.573 410.447 437.914 407.576 438.255 404.137C438.568 400.727 438.938 397.828 439.023 397.714C439.138 397.629 440.161 397.601 441.298 397.686C443.288 397.856 443.346 397.884 443.346 398.595C443.346 400.073 441.839 415.527 441.668 415.734ZM110.538 420.537C109.031 422.783 105.476 424.175 102.092 423.834C97.3713 423.323 94.5561 419.883 94.2148 414.199C93.9306 409.737 95.2103 407.321 98.7363 405.616C102.12 403.995 101.922 403.939 102.661 406.639C103.144 408.316 103.258 408.998 103.002 409.083C102.803 409.14 102.121 409.481 101.438 409.822C98.9928 411.129 98.2247 413.829 99.6182 416.53C100.813 418.917 103.372 419.77 104.993 418.321C105.789 417.61 105.988 417.013 106.671 412.949C106.984 410.987 107.495 408.827 107.751 408.173C108.775 405.843 110.51 404.393 113.098 403.74C115.685 403.114 118.757 403.967 120.634 405.871C123.961 409.225 124.416 416.245 121.516 419.23C120.407 420.367 118.7 421.248 117.335 421.418C116.539 421.504 116.482 421.418 115.856 419.372C115.487 418.207 115.174 417.211 115.174 417.183C115.177 417.125 115.687 416.841 116.282 416.53C117.96 415.677 118.586 414.739 118.586 413.005C118.557 409.566 116.169 407.292 114.093 408.742C113.126 409.424 112.871 410.107 112.302 413.944C111.676 418.207 111.391 419.258 110.538 420.537ZM437.118 436.284C435.526 442.423 435.752 441.911 434.729 441.769C433.726 441.625 408.566 436.141 408.452 436.028C408.255 435.853 411.012 425.91 411.638 424.545C412.832 421.93 414.367 420.622 417.41 419.627C418.775 419.173 419.657 419.088 422.87 419.201C427.164 419.315 429.042 419.741 432.17 421.219C434.758 422.441 436.833 424.318 437.687 426.279C438.653 428.496 438.512 430.77 437.118 436.284ZM432.112 436.141C432.567 436.141 433.677 431.736 433.677 429.974C433.677 427.53 431.146 425.596 426.539 424.488C421.762 423.379 418.235 423.863 416.528 425.881C415.817 426.734 414.879 429.235 414.481 431.338L414.311 432.304L417.524 432.958C419.288 433.328 423.212 434.18 426.227 434.891C429.267 435.573 431.91 436.14 432.112 436.141ZM109.201 457.742C109.114 457.739 108.518 456.718 107.865 455.469L106.671 453.223L109.201 451.177C110.615 450.047 111.747 449.085 111.761 449.074C111.76 449.044 110.935 447.055 109.912 444.64L108.093 440.263L104.68 440.348L101.268 440.461L100.13 438.159C99.4763 436.91 98.9646 435.802 98.9639 435.743C98.9639 435.658 99.4477 435.544 100.045 435.488C100.616 435.431 107.383 435.373 115.06 435.345L129.022 435.288L130.047 437.619C131.07 439.836 131.099 439.978 130.615 440.433C129.762 441.257 109.372 457.742 109.201 457.742ZM115.657 445.72C115.802 445.775 117.677 444.468 119.837 442.821L123.762 439.836L119.837 439.893C116.144 439.921 113.188 440.092 113.183 440.205C113.211 440.575 115.487 445.663 115.657 445.72ZM127.629 482.413C126.719 481.447 125.98 480.48 126.009 480.338C126.01 480.164 127.659 476.215 129.648 471.528C131.668 466.838 133.26 462.972 133.231 462.915C133.199 462.889 129.93 464.963 125.979 467.548C122.027 470.163 118.785 472.238 118.757 472.181C118.728 472.123 118.102 471.328 117.363 470.362C116.625 469.425 116.028 468.574 116.026 468.487C116.026 468.401 118.615 466.639 121.8 464.592C124.956 462.546 129.848 459.334 132.663 457.487C135.478 455.611 137.924 454.076 138.123 454.047C138.437 454.049 141.334 457.257 141.336 457.6C141.336 457.685 139.687 461.58 137.64 466.326C135.621 471.045 134 474.939 134.057 474.995C134.129 475.042 137.336 473.056 141.194 470.533C145.057 468.034 148.325 465.989 148.445 465.985C148.644 465.985 150.976 468.599 151.375 469.282C151.489 469.509 149.327 471.072 145.517 473.545C142.218 475.705 137.185 479.002 134.369 480.85L129.25 484.233L127.629 482.413ZM396.167 487.217C383.711 477.724 381.152 475.762 380.441 475.194L379.645 474.54L381.294 472.693C382.176 471.669 382.972 470.817 383.029 470.817C383.133 470.831 397.335 481.392 400.291 483.664C400.519 483.806 401.401 483.095 402.851 481.589C404.102 480.339 406.206 478.264 407.6 477.013L410.073 474.74L411.183 475.506C411.808 475.904 412.519 476.501 412.804 476.814C413.316 477.354 413.173 477.524 406.803 483.891L400.319 490.371L396.167 487.217ZM151.347 499.921C150.778 500.433 150.721 500.405 148.616 498.955C146.739 497.648 146.512 497.421 146.825 496.994C146.996 496.739 150.124 493.27 153.707 489.32C157.317 485.371 160.273 481.99 160.333 481.788C160.39 481.533 157.176 479.116 154.332 477.326C154.162 477.211 154.646 476.444 155.413 475.535C156.18 474.655 156.833 473.945 156.92 473.944C156.977 473.944 160.987 476.644 165.821 479.941L174.665 485.966L173.158 487.473C172.305 488.326 171.509 488.979 171.338 488.894C171.195 488.836 169.717 487.87 168.097 486.762C166.476 485.625 165.053 484.829 164.939 484.943C163.745 486.363 151.779 499.516 151.347 499.921ZM370.545 509.869C370.431 509.727 369.179 508.135 367.786 506.345C359.255 495.317 355.729 490.656 355.615 490.343C355.53 490.144 356.326 489.519 357.406 488.866C358.458 488.269 362.327 485.994 365.995 483.834C369.653 481.681 372.688 479.923 372.734 479.912C372.763 479.912 373.36 480.651 374.071 481.561L375.351 483.238L369.095 486.904C365.682 488.922 362.867 490.656 362.867 490.742C362.869 491.169 366.106 495.001 366.393 494.891C366.563 494.806 369.18 493.328 372.194 491.594C375.236 489.861 377.794 488.44 377.91 488.439C378.138 488.439 380.212 491.166 380.214 491.48C380.214 491.622 377.825 493.101 374.953 494.806C372.052 496.511 369.464 498.074 369.208 498.244C368.782 498.557 368.952 498.899 370.801 501.315L372.849 504.015L377.882 501.031C380.64 499.382 383.626 497.591 384.479 497.079C385.986 496.17 386.072 496.17 386.47 496.653C386.697 496.937 387.323 497.705 387.807 498.33L388.745 499.467L379.759 504.782C374.782 507.738 370.687 510.012 370.545 509.869ZM192.354 521.096C192.24 521.238 187.15 519.107 187.008 518.879C186.951 518.794 187.036 517.43 187.178 515.895C187.377 513.82 187.349 513.024 187.093 512.882C186.922 512.768 184.562 511.745 181.832 510.609L176.912 508.562L174.836 510.239C173.699 511.176 172.591 512.028 172.391 512.143C172.163 512.285 170.968 511.944 169.433 511.29C166.987 510.267 166.902 510.211 167.442 509.784C168.011 509.329 175.832 502.962 183.965 496.34C186.41 494.351 188.457 492.703 188.543 492.702C188.628 492.702 189.908 493.214 191.387 493.811C194.06 494.919 194.088 494.948 194.003 495.886C193.974 496.4 193.605 502.254 193.207 508.904C192.781 515.547 192.411 521.027 192.354 521.096ZM335.481 523.74C335.083 523.796 334.145 521.92 330.277 513.166C327.69 507.311 325.557 502.281 325.528 501.996C325.472 501.598 326.665 501.115 332.296 499.24C336.049 497.989 339.775 496.852 340.543 496.71C346.629 495.687 351.008 500.462 348.335 505.152C347.653 506.345 347.653 506.345 348.619 506.345C351.861 506.345 354.876 509.386 354.904 512.683C354.904 515.156 353.482 517.032 350.496 518.538C349.017 519.249 336.905 523.455 335.481 523.74ZM187.576 508.334C187.718 508.334 188.003 506.316 188.202 503.73C188.373 501.201 188.486 499.097 188.458 499.069C188.371 498.956 181.036 505.18 180.922 505.436C180.868 505.636 187.036 508.334 187.576 508.334ZM334.315 508.59C334.429 508.704 340.628 506.658 341.681 506.117C343.984 504.981 344.495 503.304 342.988 501.769C342.306 501.115 341.908 500.945 340.913 500.945C339.207 500.973 332.268 503.304 332.382 503.816C332.44 504.187 334.144 508.333 334.315 508.59ZM296.493 531.641C293.991 532.096 293.763 532.096 293.763 531.669C293.766 531.229 298.284 509.215 298.739 507.425C298.91 506.743 299.109 506.658 301.526 506.26C302.977 506.033 304.342 505.833 304.569 505.833C304.797 505.805 305.906 506.971 306.986 508.392C308.096 509.842 311.764 514.645 315.177 519.078C318.589 523.541 321.319 527.235 321.233 527.292C321.176 527.349 319.84 527.634 318.248 527.918L315.376 528.429L313.612 526.071C312.646 524.764 311.651 523.684 311.395 523.683C310.684 523.683 300.847 525.331 300.702 525.474C300.617 525.559 300.36 526.752 300.104 528.117C299.849 529.509 299.564 530.761 299.422 530.903C299.307 531.045 297.971 531.357 296.493 531.641ZM243.087 531.499C242.973 531.613 237.913 530.789 237.769 530.618C237.683 530.562 238.48 525.474 239.532 519.334C240.584 513.224 241.437 507.966 241.438 507.653C241.438 507.198 241.579 507.141 242.518 507.284C243.086 507.369 244.366 507.539 245.361 507.653C246.328 507.766 247.125 507.852 247.125 507.88C247.095 508.37 243.144 531.44 243.087 531.499ZM280.682 525.815C280.682 530.988 276.188 533.659 268.197 533.261C264.444 533.091 262.339 532.351 260.462 530.589C259.211 529.424 258.244 527.69 257.817 525.871C257.675 525.218 257.732 525.104 258.272 525.076C258.642 525.076 259.893 524.962 261.116 524.876L263.277 524.678L263.591 525.701C263.761 526.269 264.416 527.207 265.013 527.747C267.686 530.163 273.742 529.651 274.88 526.951C275.79 524.763 274.511 523.882 268.567 522.603C263.648 521.551 261.97 520.869 260.52 519.278C256.88 515.327 259.239 510.381 265.382 509.045C270.756 507.88 276.671 509.244 278.662 512.115C279.401 513.194 280.254 515.411 279.999 515.639C279.942 515.696 278.605 515.809 277.013 515.923C274.226 516.094 274.141 516.066 274.141 515.497C274.141 514.616 272.805 513.223 271.639 512.882C268.226 511.944 263.96 513.252 264.244 515.185C264.387 516.265 265.98 517.061 269.534 517.857C278.577 519.875 280.682 521.352 280.682 525.815ZM338.894 518.283C339.491 518.283 346.77 515.667 347.709 515.127C349.017 514.331 349.416 512.91 348.733 511.546C348.449 510.95 347.909 510.324 347.511 510.125C346.203 509.472 344.126 509.727 340.174 511.034C338.072 511.716 336.31 512.34 336.221 512.399C335.993 512.655 338.552 518.282 338.894 518.283ZM301.498 520.983C301.556 521.039 303.233 520.784 305.224 520.443L308.863 519.846L306.134 516.009C304.627 513.906 303.318 512.087 303.204 511.973C303.09 511.859 302.636 513.82 302.209 516.35C301.782 518.851 301.47 520.954 301.498 520.983Z" fill="white"/>
</svg>
