<svg width="1524" height="1464" viewBox="0 0 1524 1464" fill="none" xmlns="http://www.w3.org/2000/svg">
<defs>
  <linearGradient id="mjsGradient" x1="0%" y1="0%" x2="100%" y2="100%">
    <stop offset="0%" stop-color="#FFE800" />
    <stop offset="50%" stop-color="#0B09A1" />
    <stop offset="100%" stop-color="#F30B0F" />
  </linearGradient>
  <style>
    @keyframes stroke-draw-infinite {
      0% {
        stroke-dashoffset: 10000;
      }
      75% {
        stroke-dashoffset: 0;
      }
      92% {
        stroke-dashoffset: 0;
      }
      100% {
        stroke-dashoffset: 10000;
      }
    }
    .animated-stroke {
      stroke-dasharray: 10000;
      stroke-dashoffset: 10000;
      animation: stroke-draw-infinite 5.2s cubic-bezier(0.25, 1, 0.3, 1) infinite;
    }
  </style>
</defs>
<g>

<path d="M1278.8 327.073C1292.04 335.657 1303.41 342.907 1313.49 349.5C1364.4 338.596 1384.38 351.505 1390.5 415.5C1399.44 426.191 1409.16 438.858 1420.5 454.5C1426.92 463.346 1456.94 506.569 1459.5 515C1460.55 518.312 1463.05 527.424 1463.5 527.424C1465.01 527.424 1470.14 507.853 1474.66 492.045C1491.97 432.276 1493.18 372.808 1478.12 310.781C1459 232.495 1415.8 169.748 1342.03 133.616C1324.04 124.775 1305.17 117.129 1284.58 110.478L1295.54 99.8163C1310.25 104.689 1323.98 109.945 1336.31 115.474C1400.3 143.928 1445.45 195.836 1470.89 250.034C1489.41 289.178 1499.65 335.848 1499.95 381.917C1500.1 394.864 1500.25 405.252 1500.4 405.102C1501.46 404.048 1508.68 367.313 1511.39 348.495C1515.61 320.944 1516.96 277.133 1514.55 253.497C1499.29 156.855 1443.77 85.5421 1347.26 55.1346L1352.84 49.7552C1419.21 71.3888 1465.63 107.694 1491.32 158.231C1500.24 175.761 1513.35 205.17 1517.71 227C1520.88 242.206 1524 247.701 1524 287.898C1524 327.041 1520.73 335.246 1517.71 354.517C1508.98 409.618 1491.82 470.441 1469.24 526.295C1463.06 541.802 1470.45 541.285 1471.66 545.5C1474.22 553.931 1482.95 582.493 1484 598C1488.67 670.415 1450.91 763.913 1372.77 866.889C1325.65 929.067 1269.36 990.394 1191.51 1057.34C1147.37 1095.29 1121.85 1116.04 1073.18 1147.97C1014.91 1186.19 959.66 1214.96 916 1232.43C840.574 1262.69 777.949 1267.04 691.5 1250.78C646.336 1242.28 623.624 1231.78 579.964 1213.26C527.873 1190.98 460.728 1145.06 414.659 1099.89C407.884 1093.27 401.712 1088.3 401.109 1088.9L403.792 1075.09C403.792 1075.09 512.668 1172.46 562.5 1197C619.86 1225.15 695.215 1247.5 759.5 1247.5C856.003 1247.5 940.094 1220.99 1053.6 1152.64C1107.53 1120.16 1127.37 1104.16 1182.93 1056.43C1238.48 1008.71 1303.22 942.315 1349.74 885.708C1408.9 813.594 1454.22 732.899 1470.63 670.27C1482.52 624.653 1479.25 590.654 1466 548.5C1455.1 514.118 1421.87 462.32 1388.77 425C1390.06 410.744 1388.07 363.775 1360 354C1325.72 334.474 1297.33 357.811 1295.05 355C1163.41 279.979 970.591 206.664 772.951 157.779C574.976 108.85 426.683 99.6664 331.836 130.83C292.091 143.928 261.981 161.995 235.333 188.642C187.006 237.119 160.81 306.523 149.519 415.974C145.906 451.504 145.755 524.22 149.519 564.267C153.433 608.227 154.186 614.137 154.186 614.137L150.234 622.041C150.234 622.041 149.368 619.669 147.863 608.679C141.841 564.869 140.637 545.448 140.637 486.733C140.637 440.062 141.239 423.351 143.346 405.435C155.993 297.791 182.189 229.742 229.612 180.964C270.261 139.412 328.976 113.517 402.595 104.785C423.973 102.226 501.658 102.226 526.8 104.785C626.916 114.872 732.302 136.25 851.99 170.576C999.078 212.881 1133.37 263.917 1244.17 320.073C1258.33 327.149 1274.89 336.031 1281.06 339.645C1306.35 354.549 1307.11 353.646 1283.02 337.537C1241.72 310.186 1192.19 282.206 1136.53 254.509L1141.77 249.411C1194.11 275.613 1238.06 300.604 1278.8 327.073Z" fill="url(#mjsGradient)"/>
<path d="M232.848 918.512C222.31 902.704 212.373 887.348 210.717 884.789C209.212 882.079 209.551 882.342 209.099 882.342L210.303 868.341L226.074 893.972C236.01 909.479 245.495 923.932 247.301 926.19L245.991 934.96L232.848 918.512Z" fill="url(#mjsGradient)"/>
<path d="M802.872 80.7025C831.227 78.5445 863.899 76.3393 890.38 74.9008L802.872 80.7025Z" fill="url(#mjsGradient)"/>
<path fill-rule="evenodd" clip-rule="evenodd" d="M890.38 74.9008C863.899 76.3393 831.227 78.5445 802.872 80.7025C765.941 83.5132 736.333 86.2438 737.27 87.0954C737.872 87.6976 755.637 93.8701 776.714 100.946C844.161 123.378 898.51 143.401 961.139 168.694C1014.58 190.373 1025.42 194.89 1050.72 206.332C1083.94 221.299 1114.03 235.525 1141.77 249.411L1136.53 254.509C1009.59 191.341 850.765 129.645 684.878 80.2454C555.404 41.7044 446.255 18.2184 355.924 9.48651C334.396 7.52941 270.411 6.62605 254.303 8.28212C222.687 11.2931 187.608 18.6701 166.08 26.6493C139.583 36.435 110.978 53.2967 93.213 69.4058C45.6389 113.066 16.7331 181.566 8.75394 269.187C6.49567 294.178 7.70008 361.474 11.0122 387.369C23.809 491.099 56.6291 591.968 115.946 710.602C124.227 727.012 131.453 740.411 132.206 740.411L131.001 757.724L111.58 719.334C57.5324 611.991 25.3145 520.306 8.90449 427.265C-1.78463 366.292 -2.98903 286.049 6.04402 233.055C24.5618 124.206 75.1469 54.6518 160.509 20.6273C181.586 12.1965 222.687 3.16326 250.539 0.75448C264.841 -0.449909 340.869 -0.148743 355.924 1.20616C427.888 7.83044 506.024 23.1867 611.259 51.0386L657.327 63.3837L715.892 54.2001C888.272 27.1009 1025.13 25.6391 1149.3 25.5C1215.02 25.5 1260.53 28.8392 1301.87 36.7696C1319.99 40.2571 1336.98 44.5876 1352.84 49.7552L1347.26 55.1346C1316.12 45.325 1286 38.3443 1245.71 34.5435C1219.83 32.1782 1124.36 30.9262 1086 32.5957C1000.04 36.2131 891.634 36.4352 799.045 49.5331C752.525 56.0067 681.314 67.1475 680.411 68.0508C679.959 68.653 689.444 71.664 709.016 77.2344C717.145 79.4927 719.253 79.4927 745.148 76.6322C927.766 56.1573 1063.41 55.254 1188.22 73.4706C1227.68 79.2583 1261.57 88.4284 1295.74 99.7418L1284.58 110.478C1235.03 94.4771 1175.52 84.2403 1094.38 77.0085C1063.51 74.2986 928.771 72.9437 890.38 74.9008Z" fill="url(#mjsGradient)"/>
<mask id="path-2-outside-1_15_89" maskUnits="userSpaceOnUse" x="89" y="224" width="1309" height="1240" fill="black">
<rect fill="url(#mjsGradient)" x="89" y="224" width="1309" height="1240"/>
<path d="M130.642 790.785L138.918 713.41C140.011 701.136 161.092 584.917 164.684 563.942C175.927 517.797 185.765 494.646 199.975 480.663C218.245 462.795 256.816 440.266 276.179 436.227C287.266 433.896 292.575 435.45 295.23 441.664C301.008 455.337 307.41 538.306 318.653 741.843C321.62 796.534 325.212 855.265 326.461 872.355C330.365 922.541 336.923 977.387 338.954 975.367C339.734 974.59 349.104 917.724 363.314 826.521C377.68 733.764 379.242 724.597 384.239 706.884C386.269 699.582 391.89 672.702 396.731 647.066C422.028 511.737 439.362 434.517 460.131 365.066C484.803 282.719 486.833 278.835 511.194 266.56C516.971 263.608 526.028 259.569 531.025 257.393C536.178 255.374 551.169 249.003 564.287 243.255C577.404 237.661 589.74 233 591.77 233C602.076 233 604.731 248.071 602.232 294.372C601.139 312.24 599.109 349.374 597.392 376.719C590.989 483.926 583.962 647.532 581.776 747.281C579.902 833.668 581.62 892.088 587.398 934.815C587.866 939.321 588.959 943.05 589.74 943.05C591.145 943.05 599.89 925.182 606.605 908.557C613.632 890.689 618.317 874.22 630.184 824.967C636.118 799.797 642.208 775.559 643.614 771.364C648.298 757.069 653.92 745.727 656.575 745.727C660.635 745.727 699.361 785.969 703.578 794.669C707.169 801.817 707.482 804.147 707.325 824.19C707.169 848.583 702.172 876.395 691.554 913.374C675.001 971.172 647.361 1026.48 622.845 1050.88C598.797 1074.96 563.506 1078.84 542.269 1059.73C524.623 1044.04 512.13 1011.41 506.04 965.889C501.824 933.261 500.263 881.056 501.98 826.521C506.197 699.582 509.944 549.182 509.944 520.438C509.788 506.921 509.632 506.144 507.758 510.339C506.665 512.825 504.323 523.079 502.449 532.868C499.326 549.337 480.743 645.668 461.536 744.174C457.164 766.858 450.137 805.546 445.92 830.405C441.86 855.109 434.209 895.04 428.899 918.967C423.746 942.894 414.533 985.311 408.443 1013.28C407.974 1013.9 387.362 1117.69 383.302 1139.28C379.086 1160.73 374.557 1180.92 373.152 1184.03C369.56 1192.27 359.098 1201.74 348.323 1206.72C335.83 1212.46 315.842 1212.93 306.161 1207.65C287.891 1198.01 279.614 1177.97 273.368 1128.72C271.182 1111.01 269.464 1094.38 258.533 980.65L253.692 932.174L252.131 914.306L248.383 864.898C248.071 863.033 245.572 834.6 242.918 801.661C234.485 698.339 232.768 679.694 231.518 681.559C229.957 683.889 221.993 731.588 217.152 766.547L213.56 792.96C212.467 792.96 203.879 889.136 199.975 952.838C194.978 1033.94 193.885 1077.76 193.729 1192.42C193.729 1310.35 194.822 1347.33 199.975 1402.02C202.629 1428.9 202.317 1429.52 189.981 1440.55C178.269 1451.12 166.401 1455 146.101 1455C130.798 1455 129.08 1454.69 121.116 1450.34C111.747 1445.21 103.47 1435.58 100.66 1426.57C98.005 1417.71 97.0681 1310.81 99.0981 1245.25C103.783 1097.8 112.371 973.192 130.642 790.785Z"/>
<path d="M1040.87 260.501C1010.89 395.519 962.953 501.327 904.238 562.233C852.706 615.681 795.71 628.266 728.563 601.076C709.824 593.463 686.557 579.479 663.289 561.922C653.295 554.464 644.551 548.405 643.77 548.405C642.989 548.405 643.614 550.269 645.175 552.6C686.713 615.215 716.07 683.889 733.091 758.157C741.992 797.155 750.893 858.993 752.923 895.661C753.547 905.916 754.484 915.238 755.109 916.326C756.671 919.433 768.07 909.8 792.586 884.474C881.751 792.805 957.019 634.326 1008.86 429.079C1022.92 372.99 1048.21 245.43 1045.09 245.43C1044.62 245.43 1042.75 252.266 1040.87 260.501Z"/>
<path d="M1049.78 281.165C1049.31 282.408 1047.75 291.575 1046.34 301.364C1029.63 420.378 993.091 565.185 957.644 652.504C926.412 729.724 883.626 807.255 841.464 863.499C816.322 896.749 794.305 919.899 761.824 947.245C758.857 949.731 758.076 953.459 755.109 976.454C749.332 1023.07 738.088 1089.72 725.44 1152.8C719.974 1179.68 714.04 1215.11 714.977 1215.88C716.227 1217.13 737.932 1197.55 749.8 1184.34C808.827 1118.93 871.914 1003.02 924.851 863.033C983.409 708.283 1023.85 551.668 1039.31 420.223C1040.87 405.618 1044.47 370.193 1047.12 341.294C1051.65 292.352 1052.43 275.261 1049.78 281.165Z"/>
<path d="M791.806 319.853C764.478 326.534 738.244 347.664 725.908 372.834C705.92 413.387 713.259 458.289 744.959 490.296C769.319 515 801.487 524.944 834.748 518.263C855.829 514.068 869.103 506.765 884.874 491.072C907.673 468.233 917.199 443.684 915.481 412.61C913.919 385.42 905.175 365.532 886.28 346.577C873.007 333.215 856.454 323.582 839.277 319.387C826.16 316.279 805.86 316.434 791.806 319.853Z"/>
<path d="M1312.59 352.17C1277.61 358.23 1235.91 378.273 1193.91 409.036C1125.04 459.532 1065.86 525.876 1036.97 584.917C1016.83 625.935 1010.89 655.922 1016.67 685.754C1021.2 709.526 1034.94 729.413 1053.21 738.735C1070.08 747.126 1082.57 749.301 1114.27 749.301C1138.16 749.301 1150.5 748.369 1186.1 743.707C1241.07 736.56 1255.43 735.628 1271.98 737.959C1290.88 740.6 1293.22 741.843 1292.75 750.388C1291.5 775.714 1250.59 817.82 1191.56 854.488C1166.27 870.18 1129.1 888.359 1109.58 894.573C1083.97 902.808 1086.47 903.119 1071.64 889.446C1057.58 876.395 1038.22 862.878 1026.04 857.595C1015.42 852.934 1001.99 852.623 996.058 856.974C981.535 867.539 982.316 899.545 997.775 933.106C1013.08 965.734 1035.25 988.418 1059.46 995.876C1084.6 1003.64 1128.79 995.721 1170.95 975.678C1287.6 920.365 1397.22 784.415 1387.38 707.04C1382.7 669.44 1356.78 650.018 1304 644.735C1284.17 642.716 1259.49 644.269 1198.59 651.261C1151.9 656.544 1108.33 658.097 1104.74 654.524C1102.09 651.883 1106.46 634.636 1114.11 618.788C1137.22 570.778 1199.37 507.853 1254.03 477.245C1271.99 467.145 1271.2 466.835 1271.2 483.615C1271.2 506.921 1277.92 514.068 1298.06 512.203C1310.4 510.96 1321.8 505.678 1337.88 493.559C1369.11 470.097 1385.82 437.159 1384.1 401.889C1383.17 383.555 1379.11 373.767 1368.49 364.289C1358.34 355.278 1345.22 350.927 1328.36 351.238C1321.8 351.393 1314.77 351.859 1312.59 352.17Z"/>
</mask>
<path d="M130.642 790.785L138.918 713.41C140.011 701.136 161.092 584.917 164.684 563.942C175.927 517.797 185.765 494.646 199.975 480.663C218.245 462.795 256.816 440.266 276.179 436.227C287.266 433.896 292.575 435.45 295.23 441.664C301.008 455.337 307.41 538.306 318.653 741.843C321.62 796.534 325.212 855.265 326.461 872.355C330.365 922.541 336.923 977.387 338.954 975.367C339.734 974.59 349.104 917.724 363.314 826.521C377.68 733.764 379.242 724.597 384.239 706.884C386.269 699.582 391.89 672.702 396.731 647.066C422.028 511.737 439.362 434.517 460.131 365.066C484.803 282.719 486.833 278.835 511.194 266.56C516.971 263.608 526.028 259.569 531.025 257.393C536.178 255.374 551.169 249.003 564.287 243.255C577.404 237.661 589.74 233 591.77 233C602.076 233 604.731 248.071 602.232 294.372C601.139 312.24 599.109 349.374 597.392 376.719C590.989 483.926 583.962 647.532 581.776 747.281C579.902 833.668 581.62 892.088 587.398 934.815C587.866 939.321 588.959 943.05 589.74 943.05C591.145 943.05 599.89 925.182 606.605 908.557C613.632 890.689 618.317 874.22 630.184 824.967C636.118 799.797 642.208 775.559 643.614 771.364C648.298 757.069 653.92 745.727 656.575 745.727C660.635 745.727 699.361 785.969 703.578 794.669C707.169 801.817 707.482 804.147 707.325 824.19C707.169 848.583 702.172 876.395 691.554 913.374C675.001 971.172 647.361 1026.48 622.845 1050.88C598.797 1074.96 563.506 1078.84 542.269 1059.73C524.623 1044.04 512.13 1011.41 506.04 965.889C501.824 933.261 500.263 881.056 501.98 826.521C506.197 699.582 509.944 549.182 509.944 520.438C509.788 506.921 509.632 506.144 507.758 510.339C506.665 512.825 504.323 523.079 502.449 532.868C499.326 549.337 480.743 645.668 461.536 744.174C457.164 766.858 450.137 805.546 445.92 830.405C441.86 855.109 434.209 895.04 428.899 918.967C423.746 942.894 414.533 985.311 408.443 1013.28C407.974 1013.9 387.362 1117.69 383.302 1139.28C379.086 1160.73 374.557 1180.92 373.152 1184.03C369.56 1192.27 359.098 1201.74 348.323 1206.72C335.83 1212.46 315.842 1212.93 306.161 1207.65C287.891 1198.01 279.614 1177.97 273.368 1128.72C271.182 1111.01 269.464 1094.38 258.533 980.65L253.692 932.174L252.131 914.306L248.383 864.898C248.071 863.033 245.572 834.6 242.918 801.661C234.485 698.339 232.768 679.694 231.518 681.559C229.957 683.889 221.993 731.588 217.152 766.547L213.56 792.96C212.467 792.96 203.879 889.136 199.975 952.838C194.978 1033.94 193.885 1077.76 193.729 1192.42C193.729 1310.35 194.822 1347.33 199.975 1402.02C202.629 1428.9 202.317 1429.52 189.981 1440.55C178.269 1451.12 166.401 1455 146.101 1455C130.798 1455 129.08 1454.69 121.116 1450.34C111.747 1445.21 103.47 1435.58 100.66 1426.57C98.005 1417.71 97.0681 1310.81 99.0981 1245.25C103.783 1097.8 112.371 973.192 130.642 790.785Z" stroke="url(#mjsGradient)" class="animated-stroke" stroke-width="18" mask="url(#path-2-outside-1_15_89)"/>
<path d="M1040.87 260.501C1010.89 395.519 962.953 501.327 904.238 562.233C852.706 615.681 795.71 628.266 728.563 601.076C709.824 593.463 686.557 579.479 663.289 561.922C653.295 554.464 644.551 548.405 643.77 548.405C642.989 548.405 643.614 550.269 645.175 552.6C686.713 615.215 716.07 683.889 733.091 758.157C741.992 797.155 750.893 858.993 752.923 895.661C753.547 905.916 754.484 915.238 755.109 916.326C756.671 919.433 768.07 909.8 792.586 884.474C881.751 792.805 957.019 634.326 1008.86 429.079C1022.92 372.99 1048.21 245.43 1045.09 245.43C1044.62 245.43 1042.75 252.266 1040.87 260.501Z" stroke="url(#mjsGradient)" class="animated-stroke" stroke-width="18" mask="url(#path-2-outside-1_15_89)"/>
<path d="M1049.78 281.165C1049.31 282.408 1047.75 291.575 1046.34 301.364C1029.63 420.378 993.091 565.185 957.644 652.504C926.412 729.724 883.626 807.255 841.464 863.499C816.322 896.749 794.305 919.899 761.824 947.245C758.857 949.731 758.076 953.459 755.109 976.454C749.332 1023.07 738.088 1089.72 725.44 1152.8C719.974 1179.68 714.04 1215.11 714.977 1215.88C716.227 1217.13 737.932 1197.55 749.8 1184.34C808.827 1118.93 871.914 1003.02 924.851 863.033C983.409 708.283 1023.85 551.668 1039.31 420.223C1040.87 405.618 1044.47 370.193 1047.12 341.294C1051.65 292.352 1052.43 275.261 1049.78 281.165Z" stroke="url(#mjsGradient)" class="animated-stroke" stroke-width="18" mask="url(#path-2-outside-1_15_89)"/>
<path d="M791.806 319.853C764.478 326.534 738.244 347.664 725.908 372.834C705.92 413.387 713.259 458.289 744.959 490.296C769.319 515 801.487 524.944 834.748 518.263C855.829 514.068 869.103 506.765 884.874 491.072C907.673 468.233 917.199 443.684 915.481 412.61C913.919 385.42 905.175 365.532 886.28 346.577C873.007 333.215 856.454 323.582 839.277 319.387C826.16 316.279 805.86 316.434 791.806 319.853Z" stroke="url(#mjsGradient)" class="animated-stroke" stroke-width="18" mask="url(#path-2-outside-1_15_89)"/>
<path d="M1312.59 352.17C1277.61 358.23 1235.91 378.273 1193.91 409.036C1125.04 459.532 1065.86 525.876 1036.97 584.917C1016.83 625.935 1010.89 655.922 1016.67 685.754C1021.2 709.526 1034.94 729.413 1053.21 738.735C1070.08 747.126 1082.57 749.301 1114.27 749.301C1138.16 749.301 1150.5 748.369 1186.1 743.707C1241.07 736.56 1255.43 735.628 1271.98 737.959C1290.88 740.6 1293.22 741.843 1292.75 750.388C1291.5 775.714 1250.59 817.82 1191.56 854.488C1166.27 870.18 1129.1 888.359 1109.58 894.573C1083.97 902.808 1086.47 903.119 1071.64 889.446C1057.58 876.395 1038.22 862.878 1026.04 857.595C1015.42 852.934 1001.99 852.623 996.058 856.974C981.535 867.539 982.316 899.545 997.775 933.106C1013.08 965.734 1035.25 988.418 1059.46 995.876C1084.6 1003.64 1128.79 995.721 1170.95 975.678C1287.6 920.365 1397.22 784.415 1387.38 707.04C1382.7 669.44 1356.78 650.018 1304 644.735C1284.17 642.716 1259.49 644.269 1198.59 651.261C1151.9 656.544 1108.33 658.097 1104.74 654.524C1102.09 651.883 1106.46 634.636 1114.11 618.788C1137.22 570.778 1199.37 507.853 1254.03 477.245C1271.99 467.145 1271.2 466.835 1271.2 483.615C1271.2 506.921 1277.92 514.068 1298.06 512.203C1310.4 510.96 1321.8 505.678 1337.88 493.559C1369.11 470.097 1385.82 437.159 1384.1 401.889C1383.17 383.555 1379.11 373.767 1368.49 364.289C1358.34 355.278 1345.22 350.927 1328.36 351.238C1321.8 351.393 1314.77 351.859 1312.59 352.17Z" stroke="url(#mjsGradient)" class="animated-stroke" stroke-width="18" mask="url(#path-2-outside-1_15_89)"/>
</g></svg>
