<svg width="1521" height="1475" viewBox="0 0 1521 1475" fill="none" xmlns="http://www.w3.org/2000/svg">
<path d="M1232.94 21.5037C1342.95 32.9835 1417.76 67.27 1463.38 126.812C1522.02 203.344 1536.31 272.75 1504.37 406.954C1499.05 428.903 1497.59 432.537 1498.79 420.095C1500.78 399.685 1503.69 353.677 1500.63 332.568C1487.19 239.183 1447.4 171.802 1379.27 127.206C1300.24 75.4818 1155.6 44.3072 993.531 44.3072C914.759 44.3072 819.886 52.5552 742.71 66.1155L701.782 73.5247L676.9 66.1155C663.061 62.0614 651.884 58.4267 651.884 58.0073C651.884 56.4696 733.407 41.7724 798.945 32.6708C904.592 17.9989 969.248 13.8607 1075.95 14.8478C1131.6 15.3627 1212.25 19.3608 1232.94 21.5037Z" fill="#920709"/>
<path d="M1213.19 40.8987C1306.17 59.3265 1372.84 68.8504 1435.5 136.639C1515.05 222.693 1526.79 291.779 1495.84 429.721C1490.68 452.28 1489.26 456.016 1490.42 443.227C1492.35 422.249 1491.19 375.406 1488.23 353.709C1475.2 257.725 1436.65 188.467 1370.62 142.63C1294.03 89.4655 1153.85 57.4229 996.791 57.4229C920.451 57.4229 828.508 65.9006 753.715 79.8384L734.372 83.4305L710.258 75.8151C696.847 71.6481 686.015 67.9122 686.015 67.4811C686.015 65.9006 770.712 47.7713 825.929 40.8987C924.003 28.6914 979.832 26.5506 1078.48 30.1954C1131.22 32.144 1161.46 30.6466 1213.19 40.8987Z" fill="#F30B0F"/>
<path d="M1031.82 46.6788C1183.22 53.8043 1305.05 82.0273 1377.95 127.016C1430.94 159.71 1464.58 202.883 1485.19 264.637C1500.33 310.325 1506.78 364.962 1501.59 409.653C1499.49 426.791 1493.04 457.244 1487.43 476.228C1483.37 489.675 1470.19 522.501 1467.95 524.743C1467.39 525.27 1464.86 520.788 1462.48 514.723C1438.23 454.608 1388.6 399.37 1308.27 342.814C1176.63 250.136 986.115 162.467 751.437 86.6638C711.343 73.6124 710.829 73.7629 710.829 73.7629C710.829 73.7629 825.072 51.1918 899.337 46.8186C950.98 43.7775 999.013 45.1419 1031.82 46.6788Z" fill="#0A0D3B"/>
<path d="M1048.94 67.9868C1194.79 74.72 1312.11 88.6512 1382.33 133.173C1433.38 165.527 1465.82 202.806 1485.67 263.92C1500.26 309.133 1506.47 369.141 1501.47 416.013C1499.45 433.988 1493.23 465.928 1487.83 485.838C1483.92 499.941 1471.22 532.178 1469.06 534.422C1468.52 534.95 1466.09 530.462 1463.79 524.389C1440.43 464.186 1387.8 415.074 1310.42 358.436C1183.61 265.625 1000.09 177.83 774.029 101.917C735.407 88.8464 741.045 84.0937 770.079 80.5291C810.592 75.6442 881.894 69.8352 921.327 68.119C956.978 66.5347 1017.34 66.5346 1048.94 67.9868Z" fill="#0B09A1"/>
<path d="M36.1214 129.378C75.5539 50.6921 145.911 9.5011 255.566 0.65564C273.257 -0.664673 339.968 0.127563 360.899 1.97583C427.476 7.91687 517.414 24.1556 608.028 46.4674L653.807 57.8214C653.807 58.2174 683.517 66.5348 697.561 70.3635L722.814 77.3607C948.876 153.274 1188.44 259.42 1315.25 352.232C1392.63 408.869 1440.43 464.187 1463.79 524.389C1466.09 530.462 1469.06 532.211 1469.06 532.211C1469.06 532.211 1472.03 547.493 1473.65 555.282C1476.89 570.201 1478.65 594.757 1477.7 609.279C1472.17 693.378 1424.23 792.526 1338.07 898.408C1294.45 952.01 1236.92 1008.91 1179.26 1055.38C1056.64 1154.4 925.244 1220.94 816.534 1239.03C736.994 1252.23 663.395 1239.29 584.395 1198.5C468.394 1138.56 344.154 1023.43 259.077 897.088C249.084 882.17 234.364 861.442 226.532 850.88C166.978 771.667 129.301 712.653 92.9744 642.285C65.0205 588.156 47.8701 546.833 30.4496 492.439C-12.0889 358.833 -9.92826 221.265 36.1214 129.378Z" fill="#FFC606"/>
<path d="M99.2369 139.983C136.025 62.0715 201.664 21.2854 303.966 12.5269C320.47 11.2196 382.708 12.004 402.236 13.8341C464.347 19.7167 548.255 35.7958 632.792 57.8883L675.502 69.1306C675.502 69.5228 703.219 77.7584 716.321 81.5494L739.881 88.4779C950.783 163.644 1174.28 268.747 1292.59 360.646C1364.78 416.727 1409.38 471.501 1431.17 531.111C1433.31 537.124 1436.09 538.856 1436.09 538.856C1436.09 538.856 1438.86 553.988 1440.37 561.701C1443.39 576.472 1445.03 600.787 1444.15 615.167C1438.98 698.438 1394.26 796.612 1313.88 901.453C1273.18 954.528 1219.51 1010.87 1165.72 1056.88C1051.32 1154.93 928.736 1220.81 827.316 1238.72C753.11 1251.8 689.121 1238.98 610.744 1198.59C495.657 1139.24 372.398 1025.25 287.992 900.146C278.077 885.374 263.474 864.851 255.703 854.393C196.619 775.958 159.239 717.524 123.199 647.848C95.4652 594.251 78.45 553.334 61.1669 499.476C18.9638 367.182 56.2753 230.968 99.2369 139.983Z" fill="#FFE800"/>
<path d="M508.916 87.2271C611.389 94.417 741.858 120.463 872.463 159.804C1113.02 232.11 1320.27 338.602 1410.24 435.869C1480.37 511.973 1494.5 580.616 1460.8 681.818C1401.13 861.158 1199.18 1073.19 985.944 1180.63C919.622 1214.14 866.212 1232.05 805.87 1241.14C784.397 1244.39 739.004 1244.53 717.531 1241.27C658.548 1232.45 600.245 1208.17 536.369 1165.57C457.272 1112.8 374.37 1034.8 310.359 952.727C264.831 894.394 222.7 824.259 195.111 761.313C136.944 627.825 118.868 486.877 141.972 348.234C150.398 298.176 165.891 251.238 185.598 216.645C202.178 187.614 229.087 157.634 254.094 139.863C296.768 109.746 356.295 91.5681 427.373 86.8201C443.41 85.7348 491.385 86.0062 508.916 87.2271Z" fill="white"/>
<path d="M137.464 778.558L145.696 701.214C146.783 688.945 167.75 572.774 171.322 551.807C182.504 505.681 192.288 482.54 206.421 468.562C224.593 450.701 262.954 428.182 282.212 424.144C293.239 421.814 298.519 423.367 301.16 429.579C306.906 443.247 313.274 526.181 324.456 729.635C327.407 784.304 330.979 843.011 332.221 860.095C336.104 910.259 342.627 965.083 344.646 963.064C345.423 962.288 354.741 905.445 368.874 814.279C383.163 721.559 384.716 712.396 389.686 694.691C391.705 687.392 397.296 660.523 402.11 634.897C427.27 499.624 444.509 422.435 465.165 353.012C489.704 270.699 491.723 266.816 515.951 254.547C521.698 251.596 530.706 247.558 535.676 245.383C540.801 243.365 555.71 236.997 568.756 231.25C581.802 225.659 594.072 221 596.091 221C606.341 221 608.981 236.065 606.496 282.347C605.409 300.207 603.39 337.326 601.682 364.661C595.314 471.823 588.325 635.363 586.151 735.071C584.287 821.423 585.996 879.819 591.742 922.529C592.208 927.033 593.295 930.76 594.072 930.76C595.469 930.76 604.167 912.899 610.845 896.281C617.834 878.421 622.493 861.958 634.297 812.726C640.198 787.566 646.255 763.337 647.653 759.144C652.312 744.856 657.903 733.518 660.544 733.518C664.582 733.518 703.098 773.743 707.292 782.44C710.864 789.585 711.174 791.914 711.019 811.949C710.864 836.332 705.894 864.133 695.333 901.096C678.87 958.871 651.38 1014.16 626.997 1038.54C603.079 1062.62 567.98 1066.5 546.858 1047.4C529.308 1031.71 516.883 999.096 510.826 953.59C506.633 920.976 505.08 868.792 506.788 814.279C510.982 687.392 514.709 537.053 514.709 508.321C514.554 494.809 514.398 494.032 512.535 498.226C511.447 500.711 509.118 510.961 507.254 520.745C504.148 537.208 485.666 633.5 466.563 731.965C462.215 754.64 455.226 793.312 451.032 818.161C446.994 842.855 439.384 882.77 434.104 906.687C428.979 930.605 419.815 973.004 413.758 1000.96C413.292 1001.58 392.792 1105.33 388.754 1126.91C384.56 1148.35 380.056 1168.54 378.659 1171.64C375.087 1179.87 364.681 1189.35 353.965 1194.32C341.54 1200.07 321.66 1200.53 312.031 1195.25C293.86 1185.62 285.629 1165.59 279.416 1116.35C277.242 1098.65 275.534 1082.03 264.662 968.345L259.848 919.888L258.294 902.028L254.567 852.64C254.256 850.776 251.772 822.355 249.131 789.429C240.745 686.149 239.036 667.512 237.794 669.376C236.241 671.705 228.32 719.385 223.505 754.329L219.933 780.732C218.846 780.732 210.304 876.868 206.421 940.544C201.452 1021.62 200.364 1065.41 200.209 1180.03C200.209 1297.91 201.296 1334.87 206.421 1389.54C209.062 1416.41 208.751 1417.03 196.482 1428.06C184.834 1438.62 173.03 1442.5 152.84 1442.5C137.62 1442.5 135.911 1442.19 127.991 1437.84C118.672 1432.72 110.441 1423.09 107.645 1414.08C105.005 1405.23 104.073 1298.38 106.092 1232.84C110.751 1085.45 119.293 960.89 137.464 778.558Z" fill="#080D3B"/>
<path d="M1042.76 248.49C1012.94 383.453 965.259 489.218 906.863 550.099C855.611 603.525 798.924 616.105 732.141 588.926C713.504 581.316 690.363 567.338 667.222 549.788C657.282 542.333 648.585 536.276 647.808 536.276C647.032 536.276 647.653 538.14 649.206 540.47C690.518 603.059 719.716 671.705 736.645 745.943C745.497 784.925 754.35 846.738 756.369 883.391C756.99 893.641 757.922 902.96 758.543 904.047C760.096 907.153 771.434 897.524 795.817 872.209C884.499 780.577 959.357 622.162 1010.92 416.999C1024.9 360.933 1050.06 233.425 1046.95 233.425C1046.49 233.425 1044.62 240.258 1042.76 248.49Z" fill="#080D3B"/>
<path d="M1051.61 269.146C1051.15 270.388 1049.59 279.551 1048.19 289.336C1031.58 408.302 995.234 553.05 959.979 640.333C928.917 717.521 886.363 795.02 844.429 851.242C819.425 884.478 797.526 907.619 765.222 934.953C762.271 937.438 761.495 941.166 758.544 964.151C752.797 1010.74 741.615 1077.37 729.035 1140.43C723.599 1167.29 717.698 1202.71 718.629 1203.48C719.872 1204.72 741.46 1185.16 753.263 1171.95C811.97 1106.57 874.715 990.709 927.364 850.776C985.605 696.089 1025.83 539.538 1041.21 408.147C1042.76 393.548 1046.33 358.137 1048.97 329.25C1053.47 280.328 1054.25 263.244 1051.61 269.146Z" fill="#080D3B"/>
<path d="M795.041 307.817C767.862 314.495 741.77 335.617 729.5 360.777C709.621 401.313 716.92 446.197 748.448 478.191C772.676 502.885 804.67 512.824 837.751 506.146C858.717 501.953 871.918 494.653 887.605 478.967C910.28 456.137 919.753 431.598 918.045 400.536C916.492 373.357 907.795 353.478 889.002 334.53C875.801 321.174 859.338 311.545 842.254 307.351C829.209 304.245 809.018 304.4 795.041 307.817Z" fill="#080D3B"/>
<path d="M1312.99 340.122C1278.21 346.179 1236.74 366.213 1194.96 396.965C1126.47 447.44 1067.61 513.757 1038.88 572.774C1018.84 613.775 1012.94 643.75 1018.69 673.569C1023.19 697.331 1036.86 717.211 1055.03 726.529C1071.8 734.916 1084.23 737.09 1115.75 737.09C1139.52 737.09 1151.78 736.158 1187.19 731.499C1241.86 724.355 1256.15 723.423 1272.61 725.753C1291.41 728.393 1293.74 729.635 1293.27 738.177C1292.03 763.493 1251.34 805.581 1192.63 842.234C1167.47 857.92 1130.51 876.091 1111.09 882.304C1085.62 890.535 1088.11 890.846 1073.35 877.178C1059.38 864.133 1040.12 850.621 1028 845.34C1017.44 840.681 1004.09 840.37 998.184 844.719C983.741 855.28 984.517 887.273 999.893 920.82C1015.11 953.435 1037.17 976.11 1061.24 983.565C1086.24 991.33 1130.2 983.409 1172.13 963.375C1288.15 908.085 1397.17 772.19 1387.39 694.846C1382.73 657.262 1356.95 637.848 1304.45 632.568C1284.73 630.549 1260.19 632.102 1199.62 639.09C1153.18 644.371 1109.85 645.924 1106.28 642.352C1103.64 639.712 1107.99 622.472 1115.6 606.631C1138.58 558.641 1200.4 495.741 1254.75 465.145C1272.61 455.05 1271.84 454.739 1271.84 471.513C1271.84 494.809 1278.52 501.953 1298.55 500.089C1310.82 498.847 1322.16 493.566 1338.15 481.452C1369.22 458.001 1385.83 425.075 1384.13 389.82C1383.19 371.494 1379.16 361.709 1368.6 352.236C1358.5 343.228 1345.45 338.879 1328.68 339.19C1322.16 339.345 1315.17 339.811 1312.99 340.122Z" fill="#080D3B"/>
<mask id="path-9-outside-1_12_70" maskUnits="userSpaceOnUse" x="73" y="189" width="1348" height="1286" fill="black">
<rect fill="white" x="73" y="189" width="1348" height="1286"/>
<path d="M137.464 778.558L145.696 701.214C146.783 688.945 167.75 572.774 171.322 551.807C182.504 505.681 192.288 482.54 206.421 468.562C224.593 450.701 262.954 428.182 282.212 424.144C293.239 421.814 298.519 423.367 301.16 429.579C306.906 443.247 313.274 526.181 324.456 729.635C327.407 784.304 330.979 843.011 332.221 860.095C336.104 910.259 342.627 965.083 344.646 963.064C345.423 962.288 354.741 905.445 368.874 814.279C383.163 721.559 384.716 712.396 389.686 694.691C391.705 687.392 397.296 660.523 402.11 634.897C427.27 499.624 444.509 422.435 465.165 353.012C489.704 270.699 491.723 266.816 515.951 254.547C521.698 251.596 530.706 247.558 535.676 245.383C540.801 243.365 555.71 236.997 568.756 231.25C581.802 225.659 594.072 221 596.091 221C606.341 221 608.981 236.065 606.496 282.347C605.409 300.207 603.39 337.326 601.682 364.661C595.314 471.823 588.325 635.363 586.151 735.071C584.287 821.423 585.996 879.819 591.742 922.529C592.208 927.033 593.295 930.76 594.072 930.76C595.469 930.76 604.167 912.899 610.845 896.281C617.834 878.421 622.493 861.958 634.297 812.726C640.198 787.566 646.255 763.337 647.653 759.144C652.312 744.856 657.903 733.518 660.544 733.518C664.582 733.518 703.098 773.743 707.292 782.44C710.864 789.585 711.174 791.914 711.019 811.949C710.864 836.332 705.894 864.133 695.333 901.096C678.87 958.871 651.38 1014.16 626.997 1038.54C603.079 1062.62 567.98 1066.5 546.858 1047.4C529.308 1031.71 516.883 999.096 510.826 953.59C506.633 920.976 505.08 868.792 506.788 814.279C510.982 687.392 514.709 537.053 514.709 508.321C514.554 494.809 514.398 494.032 512.535 498.226C511.447 500.711 509.118 510.961 507.254 520.745C504.148 537.208 485.666 633.5 466.563 731.965C462.215 754.64 455.226 793.312 451.032 818.161C446.994 842.855 439.384 882.77 434.104 906.687C428.979 930.605 419.815 973.004 413.758 1000.96C413.292 1001.58 392.792 1105.33 388.754 1126.91C384.56 1148.35 380.056 1168.54 378.659 1171.64C375.087 1179.87 364.681 1189.35 353.965 1194.32C341.54 1200.07 321.66 1200.53 312.031 1195.25C293.86 1185.62 285.629 1165.59 279.416 1116.35C277.242 1098.65 275.534 1082.03 264.662 968.345L259.848 919.888L258.294 902.028L254.567 852.64C254.256 850.776 251.772 822.355 249.131 789.429C240.745 686.149 239.036 667.512 237.794 669.376C236.241 671.705 228.32 719.385 223.505 754.329L219.933 780.732C218.846 780.732 210.304 876.868 206.421 940.544C201.452 1021.62 200.364 1065.41 200.209 1180.03C200.209 1297.91 201.296 1334.87 206.421 1389.54C209.062 1416.41 208.751 1417.03 196.482 1428.06C184.834 1438.62 173.03 1442.5 152.84 1442.5C137.62 1442.5 135.911 1442.19 127.991 1437.84C118.672 1432.72 110.441 1423.09 107.645 1414.08C105.005 1405.23 104.073 1298.38 106.092 1232.84C110.751 1085.45 119.293 960.89 137.464 778.558Z"/>
<path d="M1042.76 248.49C1012.94 383.453 965.259 489.218 906.863 550.099C855.611 603.525 798.924 616.105 732.141 588.926C713.504 581.316 690.363 567.338 667.222 549.788C657.282 542.333 648.585 536.276 647.808 536.276C647.032 536.276 647.653 538.14 649.206 540.47C690.518 603.059 719.716 671.705 736.645 745.943C745.497 784.925 754.35 846.738 756.369 883.391C756.99 893.641 757.922 902.96 758.543 904.047C760.096 907.153 771.434 897.524 795.817 872.209C884.499 780.577 959.357 622.162 1010.92 416.999C1024.9 360.933 1050.06 233.425 1046.95 233.425C1046.49 233.425 1044.62 240.258 1042.76 248.49Z"/>
<path d="M1051.61 269.146C1051.15 270.388 1049.59 279.551 1048.19 289.336C1031.58 408.302 995.234 553.05 959.979 640.333C928.917 717.521 886.363 795.02 844.429 851.242C819.425 884.478 797.526 907.619 765.222 934.953C762.271 937.438 761.495 941.166 758.544 964.151C752.797 1010.74 741.615 1077.37 729.035 1140.43C723.599 1167.29 717.698 1202.71 718.629 1203.48C719.872 1204.72 741.46 1185.16 753.263 1171.95C811.97 1106.57 874.715 990.709 927.364 850.776C985.605 696.089 1025.83 539.538 1041.21 408.147C1042.76 393.548 1046.33 358.137 1048.97 329.25C1053.47 280.328 1054.25 263.244 1051.61 269.146Z"/>
<path d="M795.041 307.817C767.862 314.495 741.77 335.617 729.5 360.777C709.621 401.313 716.92 446.197 748.448 478.191C772.676 502.885 804.67 512.824 837.751 506.146C858.717 501.953 871.918 494.653 887.605 478.967C910.28 456.137 919.753 431.598 918.045 400.536C916.492 373.357 907.795 353.478 889.002 334.53C875.801 321.174 859.338 311.545 842.254 307.351C829.209 304.245 809.018 304.4 795.041 307.817Z"/>
<path d="M1312.99 340.122C1278.21 346.179 1236.74 366.213 1194.96 396.965C1126.47 447.44 1067.61 513.757 1038.88 572.774C1018.84 613.775 1012.94 643.75 1018.69 673.569C1023.19 697.331 1036.86 717.211 1055.03 726.529C1071.8 734.916 1084.23 737.09 1115.75 737.09C1139.52 737.09 1151.78 736.158 1187.19 731.499C1241.86 724.355 1256.15 723.423 1272.61 725.753C1291.41 728.393 1293.74 729.635 1293.27 738.177C1292.03 763.493 1251.34 805.581 1192.63 842.234C1167.47 857.92 1130.51 876.091 1111.09 882.304C1085.62 890.535 1088.11 890.846 1073.35 877.178C1059.38 864.133 1040.12 850.621 1028 845.34C1017.44 840.681 1004.09 840.37 998.184 844.719C983.741 855.28 984.517 887.273 999.893 920.82C1015.11 953.435 1037.17 976.11 1061.24 983.565C1086.24 991.33 1130.2 983.409 1172.13 963.375C1288.15 908.085 1397.17 772.19 1387.39 694.846C1382.73 657.262 1356.95 637.848 1304.45 632.568C1284.73 630.549 1260.19 632.102 1199.62 639.09C1153.18 644.371 1109.85 645.924 1106.28 642.352C1103.64 639.712 1107.99 622.472 1115.6 606.631C1138.58 558.641 1200.4 495.741 1254.75 465.145C1272.61 455.05 1271.84 454.739 1271.84 471.513C1271.84 494.809 1278.52 501.953 1298.55 500.089C1310.82 498.847 1322.16 493.566 1338.15 481.452C1369.22 458.001 1385.83 425.075 1384.13 389.82C1383.19 371.494 1379.16 361.709 1368.6 352.236C1358.5 343.228 1345.45 338.879 1328.68 339.19C1322.16 339.345 1315.17 339.811 1312.99 340.122Z"/>
</mask>
<path d="M137.464 778.558L145.696 701.214C146.783 688.945 167.75 572.774 171.322 551.807C182.504 505.681 192.288 482.54 206.421 468.562C224.593 450.701 262.954 428.182 282.212 424.144C293.239 421.814 298.519 423.367 301.16 429.579C306.906 443.247 313.274 526.181 324.456 729.635C327.407 784.304 330.979 843.011 332.221 860.095C336.104 910.259 342.627 965.083 344.646 963.064C345.423 962.288 354.741 905.445 368.874 814.279C383.163 721.559 384.716 712.396 389.686 694.691C391.705 687.392 397.296 660.523 402.11 634.897C427.27 499.624 444.509 422.435 465.165 353.012C489.704 270.699 491.723 266.816 515.951 254.547C521.698 251.596 530.706 247.558 535.676 245.383C540.801 243.365 555.71 236.997 568.756 231.25C581.802 225.659 594.072 221 596.091 221C606.341 221 608.981 236.065 606.496 282.347C605.409 300.207 603.39 337.326 601.682 364.661C595.314 471.823 588.325 635.363 586.151 735.071C584.287 821.423 585.996 879.819 591.742 922.529C592.208 927.033 593.295 930.76 594.072 930.76C595.469 930.76 604.167 912.899 610.845 896.281C617.834 878.421 622.493 861.958 634.297 812.726C640.198 787.566 646.255 763.337 647.653 759.144C652.312 744.856 657.903 733.518 660.544 733.518C664.582 733.518 703.098 773.743 707.292 782.44C710.864 789.585 711.174 791.914 711.019 811.949C710.864 836.332 705.894 864.133 695.333 901.096C678.87 958.871 651.38 1014.16 626.997 1038.54C603.079 1062.62 567.98 1066.5 546.858 1047.4C529.308 1031.71 516.883 999.096 510.826 953.59C506.633 920.976 505.08 868.792 506.788 814.279C510.982 687.392 514.709 537.053 514.709 508.321C514.554 494.809 514.398 494.032 512.535 498.226C511.447 500.711 509.118 510.961 507.254 520.745C504.148 537.208 485.666 633.5 466.563 731.965C462.215 754.64 455.226 793.312 451.032 818.161C446.994 842.855 439.384 882.77 434.104 906.687C428.979 930.605 419.815 973.004 413.758 1000.96C413.292 1001.58 392.792 1105.33 388.754 1126.91C384.56 1148.35 380.056 1168.54 378.659 1171.64C375.087 1179.87 364.681 1189.35 353.965 1194.32C341.54 1200.07 321.66 1200.53 312.031 1195.25C293.86 1185.62 285.629 1165.59 279.416 1116.35C277.242 1098.65 275.534 1082.03 264.662 968.345L259.848 919.888L258.294 902.028L254.567 852.64C254.256 850.776 251.772 822.355 249.131 789.429C240.745 686.149 239.036 667.512 237.794 669.376C236.241 671.705 228.32 719.385 223.505 754.329L219.933 780.732C218.846 780.732 210.304 876.868 206.421 940.544C201.452 1021.62 200.364 1065.41 200.209 1180.03C200.209 1297.91 201.296 1334.87 206.421 1389.54C209.062 1416.41 208.751 1417.03 196.482 1428.06C184.834 1438.62 173.03 1442.5 152.84 1442.5C137.62 1442.5 135.911 1442.19 127.991 1437.84C118.672 1432.72 110.441 1423.09 107.645 1414.08C105.005 1405.23 104.073 1298.38 106.092 1232.84C110.751 1085.45 119.293 960.89 137.464 778.558Z" fill="#080D3B"/>
<path d="M1042.76 248.49C1012.94 383.453 965.259 489.218 906.863 550.099C855.611 603.525 798.924 616.105 732.141 588.926C713.504 581.316 690.363 567.338 667.222 549.788C657.282 542.333 648.585 536.276 647.808 536.276C647.032 536.276 647.653 538.14 649.206 540.47C690.518 603.059 719.716 671.705 736.645 745.943C745.497 784.925 754.35 846.738 756.369 883.391C756.99 893.641 757.922 902.96 758.543 904.047C760.096 907.153 771.434 897.524 795.817 872.209C884.499 780.577 959.357 622.162 1010.92 416.999C1024.9 360.933 1050.06 233.425 1046.95 233.425C1046.49 233.425 1044.62 240.258 1042.76 248.49Z" fill="#080D3B"/>
<path d="M1051.61 269.146C1051.15 270.388 1049.59 279.551 1048.19 289.336C1031.58 408.302 995.234 553.05 959.979 640.333C928.917 717.521 886.363 795.02 844.429 851.242C819.425 884.478 797.526 907.619 765.222 934.953C762.271 937.438 761.495 941.166 758.544 964.151C752.797 1010.74 741.615 1077.37 729.035 1140.43C723.599 1167.29 717.698 1202.71 718.629 1203.48C719.872 1204.72 741.46 1185.16 753.263 1171.95C811.97 1106.57 874.715 990.709 927.364 850.776C985.605 696.089 1025.83 539.538 1041.21 408.147C1042.76 393.548 1046.33 358.137 1048.97 329.25C1053.47 280.328 1054.25 263.244 1051.61 269.146Z" fill="#080D3B"/>
<path d="M795.041 307.817C767.862 314.495 741.77 335.617 729.5 360.777C709.621 401.313 716.92 446.197 748.448 478.191C772.676 502.885 804.67 512.824 837.751 506.146C858.717 501.953 871.918 494.653 887.605 478.967C910.28 456.137 919.753 431.598 918.045 400.536C916.492 373.357 907.795 353.478 889.002 334.53C875.801 321.174 859.338 311.545 842.254 307.351C829.209 304.245 809.018 304.4 795.041 307.817Z" fill="#080D3B"/>
<path d="M1312.99 340.122C1278.21 346.179 1236.74 366.213 1194.96 396.965C1126.47 447.44 1067.61 513.757 1038.88 572.774C1018.84 613.775 1012.94 643.75 1018.69 673.569C1023.19 697.331 1036.86 717.211 1055.03 726.529C1071.8 734.916 1084.23 737.09 1115.75 737.09C1139.52 737.09 1151.78 736.158 1187.19 731.499C1241.86 724.355 1256.15 723.423 1272.61 725.753C1291.41 728.393 1293.74 729.635 1293.27 738.177C1292.03 763.493 1251.34 805.581 1192.63 842.234C1167.47 857.92 1130.51 876.091 1111.09 882.304C1085.62 890.535 1088.11 890.846 1073.35 877.178C1059.38 864.133 1040.12 850.621 1028 845.34C1017.44 840.681 1004.09 840.37 998.184 844.719C983.741 855.28 984.517 887.273 999.893 920.82C1015.11 953.435 1037.17 976.11 1061.24 983.565C1086.24 991.33 1130.2 983.409 1172.13 963.375C1288.15 908.085 1397.17 772.19 1387.39 694.846C1382.73 657.262 1356.95 637.848 1304.45 632.568C1284.73 630.549 1260.19 632.102 1199.62 639.09C1153.18 644.371 1109.85 645.924 1106.28 642.352C1103.64 639.712 1107.99 622.472 1115.6 606.631C1138.58 558.641 1200.4 495.741 1254.75 465.145C1272.61 455.05 1271.84 454.739 1271.84 471.513C1271.84 494.809 1278.52 501.953 1298.55 500.089C1310.82 498.847 1322.16 493.566 1338.15 481.452C1369.22 458.001 1385.83 425.075 1384.13 389.82C1383.19 371.494 1379.16 361.709 1368.6 352.236C1358.5 343.228 1345.45 338.879 1328.68 339.19C1322.16 339.345 1315.17 339.811 1312.99 340.122Z" fill="#080D3B"/>
<path d="M137.464 778.558L145.696 701.214C146.783 688.945 167.75 572.774 171.322 551.807C182.504 505.681 192.288 482.54 206.421 468.562C224.593 450.701 262.954 428.182 282.212 424.144C293.239 421.814 298.519 423.367 301.16 429.579C306.906 443.247 313.274 526.181 324.456 729.635C327.407 784.304 330.979 843.011 332.221 860.095C336.104 910.259 342.627 965.083 344.646 963.064C345.423 962.288 354.741 905.445 368.874 814.279C383.163 721.559 384.716 712.396 389.686 694.691C391.705 687.392 397.296 660.523 402.11 634.897C427.27 499.624 444.509 422.435 465.165 353.012C489.704 270.699 491.723 266.816 515.951 254.547C521.698 251.596 530.706 247.558 535.676 245.383C540.801 243.365 555.71 236.997 568.756 231.25C581.802 225.659 594.072 221 596.091 221C606.341 221 608.981 236.065 606.496 282.347C605.409 300.207 603.39 337.326 601.682 364.661C595.314 471.823 588.325 635.363 586.151 735.071C584.287 821.423 585.996 879.819 591.742 922.529C592.208 927.033 593.295 930.76 594.072 930.76C595.469 930.76 604.167 912.899 610.845 896.281C617.834 878.421 622.493 861.958 634.297 812.726C640.198 787.566 646.255 763.337 647.653 759.144C652.312 744.856 657.903 733.518 660.544 733.518C664.582 733.518 703.098 773.743 707.292 782.44C710.864 789.585 711.174 791.914 711.019 811.949C710.864 836.332 705.894 864.133 695.333 901.096C678.87 958.871 651.38 1014.16 626.997 1038.54C603.079 1062.62 567.98 1066.5 546.858 1047.4C529.308 1031.71 516.883 999.096 510.826 953.59C506.633 920.976 505.08 868.792 506.788 814.279C510.982 687.392 514.709 537.053 514.709 508.321C514.554 494.809 514.398 494.032 512.535 498.226C511.447 500.711 509.118 510.961 507.254 520.745C504.148 537.208 485.666 633.5 466.563 731.965C462.215 754.64 455.226 793.312 451.032 818.161C446.994 842.855 439.384 882.77 434.104 906.687C428.979 930.605 419.815 973.004 413.758 1000.96C413.292 1001.58 392.792 1105.33 388.754 1126.91C384.56 1148.35 380.056 1168.54 378.659 1171.64C375.087 1179.87 364.681 1189.35 353.965 1194.32C341.54 1200.07 321.66 1200.53 312.031 1195.25C293.86 1185.62 285.629 1165.59 279.416 1116.35C277.242 1098.65 275.534 1082.03 264.662 968.345L259.848 919.888L258.294 902.028L254.567 852.64C254.256 850.776 251.772 822.355 249.131 789.429C240.745 686.149 239.036 667.512 237.794 669.376C236.241 671.705 228.32 719.385 223.505 754.329L219.933 780.732C218.846 780.732 210.304 876.868 206.421 940.544C201.452 1021.62 200.364 1065.41 200.209 1180.03C200.209 1297.91 201.296 1334.87 206.421 1389.54C209.062 1416.41 208.751 1417.03 196.482 1428.06C184.834 1438.62 173.03 1442.5 152.84 1442.5C137.62 1442.5 135.911 1442.19 127.991 1437.84C118.672 1432.72 110.441 1423.09 107.645 1414.08C105.005 1405.23 104.073 1298.38 106.092 1232.84C110.751 1085.45 119.293 960.89 137.464 778.558Z" stroke="white" stroke-width="64" mask="url(#path-9-outside-1_12_70)"/>
<path d="M1042.76 248.49C1012.94 383.453 965.259 489.218 906.863 550.099C855.611 603.525 798.924 616.105 732.141 588.926C713.504 581.316 690.363 567.338 667.222 549.788C657.282 542.333 648.585 536.276 647.808 536.276C647.032 536.276 647.653 538.14 649.206 540.47C690.518 603.059 719.716 671.705 736.645 745.943C745.497 784.925 754.35 846.738 756.369 883.391C756.99 893.641 757.922 902.96 758.543 904.047C760.096 907.153 771.434 897.524 795.817 872.209C884.499 780.577 959.357 622.162 1010.92 416.999C1024.9 360.933 1050.06 233.425 1046.95 233.425C1046.49 233.425 1044.62 240.258 1042.76 248.49Z" stroke="white" stroke-width="64" mask="url(#path-9-outside-1_12_70)"/>
<path d="M1051.61 269.146C1051.15 270.388 1049.59 279.551 1048.19 289.336C1031.58 408.302 995.234 553.05 959.979 640.333C928.917 717.521 886.363 795.02 844.429 851.242C819.425 884.478 797.526 907.619 765.222 934.953C762.271 937.438 761.495 941.166 758.544 964.151C752.797 1010.74 741.615 1077.37 729.035 1140.43C723.599 1167.29 717.698 1202.71 718.629 1203.48C719.872 1204.72 741.46 1185.16 753.263 1171.95C811.97 1106.57 874.715 990.709 927.364 850.776C985.605 696.089 1025.83 539.538 1041.21 408.147C1042.76 393.548 1046.33 358.137 1048.97 329.25C1053.47 280.328 1054.25 263.244 1051.61 269.146Z" stroke="white" stroke-width="64" mask="url(#path-9-outside-1_12_70)"/>
<path d="M795.041 307.817C767.862 314.495 741.77 335.617 729.5 360.777C709.621 401.313 716.92 446.197 748.448 478.191C772.676 502.885 804.67 512.824 837.751 506.146C858.717 501.953 871.918 494.653 887.605 478.967C910.28 456.137 919.753 431.598 918.045 400.536C916.492 373.357 907.795 353.478 889.002 334.53C875.801 321.174 859.338 311.545 842.254 307.351C829.209 304.245 809.018 304.4 795.041 307.817Z" stroke="white" stroke-width="64" mask="url(#path-9-outside-1_12_70)"/>
<path d="M1312.99 340.122C1278.21 346.179 1236.74 366.213 1194.96 396.965C1126.47 447.44 1067.61 513.757 1038.88 572.774C1018.84 613.775 1012.94 643.75 1018.69 673.569C1023.19 697.331 1036.86 717.211 1055.03 726.529C1071.8 734.916 1084.23 737.09 1115.75 737.09C1139.52 737.09 1151.78 736.158 1187.19 731.499C1241.86 724.355 1256.15 723.423 1272.61 725.753C1291.41 728.393 1293.74 729.635 1293.27 738.177C1292.03 763.493 1251.34 805.581 1192.63 842.234C1167.47 857.92 1130.51 876.091 1111.09 882.304C1085.62 890.535 1088.11 890.846 1073.35 877.178C1059.38 864.133 1040.12 850.621 1028 845.34C1017.44 840.681 1004.09 840.37 998.184 844.719C983.741 855.28 984.517 887.273 999.893 920.82C1015.11 953.435 1037.17 976.11 1061.24 983.565C1086.24 991.33 1130.2 983.409 1172.13 963.375C1288.15 908.085 1397.17 772.19 1387.39 694.846C1382.73 657.262 1356.95 637.848 1304.45 632.568C1284.73 630.549 1260.19 632.102 1199.62 639.09C1153.18 644.371 1109.85 645.924 1106.28 642.352C1103.64 639.712 1107.99 622.472 1115.6 606.631C1138.58 558.641 1200.4 495.741 1254.75 465.145C1272.61 455.05 1271.84 454.739 1271.84 471.513C1271.84 494.809 1278.52 501.953 1298.55 500.089C1310.82 498.847 1322.16 493.566 1338.15 481.452C1369.22 458.001 1385.83 425.075 1384.13 389.82C1383.19 371.494 1379.16 361.709 1368.6 352.236C1358.5 343.228 1345.45 338.879 1328.68 339.19C1322.16 339.345 1315.17 339.811 1312.99 340.122Z" stroke="white" stroke-width="64" mask="url(#path-9-outside-1_12_70)"/>
</svg>
